<svg xmlns="http://www.w3.org/2000/svg" width="375" viewBox="0 0 375 375" height="375" version="1.0"><defs><clipPath id="a"><path d="M 72.183594 92 L 303.183594 92 L 303.183594 304.265625 L 72.183594 304.265625 Z M 72.183594 92"/></clipPath><clipPath id="b"><path d="M 115 71.015625 L 135 71.015625 L 135 117 L 115 117 Z M 115 71.015625"/></clipPath><clipPath id="c"><path d="M 241 71.015625 L 261 71.015625 L 261 117 L 241 117 Z M 241 71.015625"/></clipPath></defs><g clip-path="url(#a)"><path fill="#FEFCFC" d="M 268.519531 92.222656 L 268.519531 107.738281 C 268.519531 117.308594 260.757812 125.066406 251.1875 125.066406 L 250.152344 125.066406 C 240.582031 125.066406 232.820312 117.308594 232.820312 107.738281 L 232.820312 92.222656 L 143.058594 92.222656 L 143.058594 107.738281 C 143.058594 117.308594 135.300781 125.066406 125.726562 125.066406 L 124.695312 125.066406 C 115.121094 125.066406 107.363281 117.308594 107.363281 107.738281 L 107.363281 92.222656 L 94.167969 92.222656 C 82.011719 92.222656 72.183594 102.050781 72.183594 114.203125 L 72.183594 282.023438 C 72.183594 294.179688 82.011719 304.003906 94.167969 304.003906 L 251.703125 304.003906 C 254.808594 304.003906 257.652344 302.710938 259.980469 300.644531 L 299.820312 260.820312 C 301.886719 258.753906 303.183594 255.648438 303.183594 252.546875 L 303.183594 114.203125 C 303.183594 102.050781 293.351562 92.222656 281.195312 92.222656 Z M 85.890625 282.023438 L 85.890625 151.179688 L 289.472656 151.179688 L 289.472656 240.652344 L 265.15625 240.652344 C 253 240.652344 243.167969 250.476562 243.167969 262.632812 L 243.167969 290.039062 L 94.167969 290.039062 C 89.511719 290.300781 85.890625 286.679688 85.890625 282.023438 Z M 256.878906 286.421875 L 256.878906 262.632812 C 256.878906 257.976562 260.5 254.355469 265.15625 254.355469 L 287.402344 254.355469 Z M 256.878906 286.421875"/></g><g clip-path="url(#b)"><path fill="#FEFCFC" d="M 124.695312 116.789062 L 125.726562 116.789062 C 130.644531 116.789062 134.78125 112.652344 134.78125 107.738281 L 134.78125 80.328125 C 134.78125 75.417969 130.644531 71.28125 125.726562 71.28125 L 124.695312 71.28125 C 119.777344 71.28125 115.640625 75.417969 115.640625 80.328125 L 115.640625 107.738281 C 115.640625 112.652344 119.777344 116.789062 124.695312 116.789062 Z M 124.695312 116.789062"/></g><g clip-path="url(#c)"><path fill="#FEFCFC" d="M 250.152344 116.789062 L 251.1875 116.789062 C 256.101562 116.789062 260.242188 112.652344 260.242188 107.738281 L 260.242188 80.328125 C 260.242188 75.417969 256.101562 71.28125 251.1875 71.28125 L 250.152344 71.28125 C 245.238281 71.28125 241.097656 75.417969 241.097656 80.328125 L 241.097656 107.738281 C 241.097656 112.652344 245.238281 116.789062 250.152344 116.789062 Z M 250.152344 116.789062"/></g></svg>