<svg xmlns="http://www.w3.org/2000/svg" width="375" viewBox="0 0 375 375" height="375" version="1.0"><defs><clipPath id="a"><path d="M 109 229 L 274.699219 229 L 274.699219 246.796875 L 109 246.796875 Z M 109 229"/></clipPath><clipPath id="b"><path d="M 169 128.296875 L 204 128.296875 L 204 149 L 169 149 Z M 169 128.296875"/></clipPath></defs><g clip-path="url(#a)"><path fill="#FFF" d="M 154.664062 244.859375 C 154.664062 244.859375 158.199219 244.851562 163.914062 244.980469 C 169.980469 245.132812 177.808594 245.328125 186.25 245.539062 C 195.214844 245.703125 203.308594 245.578125 209.054688 245.34375 C 216.921875 245.777344 229.714844 246.574219 244.164062 246.734375 C 251 246.800781 257.46875 246.691406 263.222656 246.480469 C 264.644531 246.421875 266.039062 246.367188 267.394531 246.308594 C 268.972656 246.160156 270.605469 245.761719 271.765625 244.722656 C 272.914062 243.746094 273.710938 242.519531 274.058594 241.292969 C 274.492188 240.085938 274.527344 238.886719 274.503906 237.808594 C 274.585938 235.730469 274.015625 233.28125 272.152344 231.371094 C 271.699219 230.902344 271.101562 230.535156 270.519531 230.1875 C 269.878906 229.957031 269.230469 229.601562 268.535156 229.566406 L 267.488281 229.429688 L 266.582031 229.402344 C 265.980469 229.390625 265.371094 229.375 264.753906 229.363281 C 259.820312 229.261719 254.445312 229.210938 248.8125 229.253906 C 239.007812 229.324219 229.960938 229.671875 222.703125 230.03125 C 217.40625 229.785156 210.808594 229.621094 203.652344 229.714844 C 196.605469 229.808594 190.101562 230.125 184.847656 230.429688 C 176.941406 230.070312 165.648438 229.886719 153.121094 230.242188 C 141.164062 230.578125 130.34375 231.160156 122.511719 231.421875 C 114.679688 231.707031 109.832031 231.722656 109.832031 231.722656 C 109.832031 231.722656 114.679688 231.671875 122.511719 231.851562 C 130.347656 232.007812 141.175781 232.445312 153.132812 232.621094 C 165.664062 232.808594 176.949219 232.472656 184.855469 232.007812 C 190.109375 232.242188 196.613281 232.46875 203.660156 232.46875 C 210.8125 232.46875 217.410156 232.21875 222.707031 231.902344 C 229.964844 232.164062 239.011719 232.386719 248.816406 232.328125 C 254.445312 232.296875 259.820312 232.175781 264.753906 232.003906 C 267.363281 231.910156 269.308594 231.6875 270.683594 232.984375 C 272.0625 234.171875 272.78125 236.066406 272.863281 237.8125 C 272.707031 239.582031 271.929688 241.671875 270.277344 242.707031 C 269.492188 243.289062 268.460938 243.375 267.394531 243.410156 C 266.039062 243.355469 264.644531 243.296875 263.222656 243.238281 C 257.46875 243.03125 251 242.921875 244.164062 242.988281 C 229.714844 243.148438 216.921875 243.945312 209.054688 244.375 C 203.308594 244.140625 195.214844 244.019531 186.25 244.183594 C 177.808594 244.394531 169.980469 244.589844 163.914062 244.742188 C 158.199219 244.871094 154.664062 244.859375 154.664062 244.859375"/></g><path fill="#FFF" d="M 149.34375 162.390625 C 149.34375 162.390625 147.71875 163.457031 144.824219 165.351562 C 144.113281 165.851562 143.25 166.320312 142.4375 167 C 141.609375 167.671875 140.71875 168.402344 139.757812 169.1875 C 138.820312 169.996094 137.722656 170.765625 136.726562 171.765625 C 135.726562 172.765625 134.671875 173.820312 133.566406 174.929688 C 129.269531 179.480469 124.632812 185.488281 120.9375 192.992188 C 117.242188 200.472656 114.316406 209.316406 113.128906 218.929688 C 112.988281 220.167969 112.847656 221.398438 112.777344 222.632812 C 112.867188 224.328125 111.789062 227.507812 114.664062 226.640625 C 117.277344 226.625 119.851562 226.605469 122.382812 226.589844 C 125.007812 226.566406 127.585938 226.539062 130.113281 226.511719 L 130.789062 226.503906 L 130.957031 226.503906 C 131 226.488281 130.972656 226.402344 130.980469 226.355469 L 130.988281 226.011719 L 131.023438 224.660156 C 131.042969 223.910156 131.058594 223.164062 131.078125 222.421875 C 131.09375 221.359375 131.113281 220.3125 131.128906 219.277344 C 131.472656 211.003906 133.152344 203.6875 135.5625 198.023438 C 137.4375 194.257812 140.1875 190.195312 144.027344 186.492188 C 147.871094 182.800781 152.839844 179.511719 158.757812 177.339844 C 170.535156 172.800781 185.46875 172.214844 200.585938 174.613281 C 202.09375 174.851562 203.632812 175.152344 204.738281 175.40625 C 204.953125 173.734375 205.113281 172.472656 205.273438 171.207031 C 197.816406 171.15625 190.648438 173.394531 184.90625 177.027344 C 179.078125 180.582031 174.476562 185.1875 170.699219 189.8125 C 163.183594 199.167969 158.714844 208.632812 155.640625 216.238281 C 155.210938 217.203125 154.773438 218.183594 154.324219 219.1875 C 154.109375 219.691406 153.894531 220.203125 153.675781 220.71875 C 153.445312 221.296875 153.210938 221.878906 152.972656 222.46875 C 152.691406 223.242188 152.40625 224.023438 152.121094 224.8125 L 151.703125 226.015625 C 151.601562 226.164062 151.816406 226.085938 151.890625 226.113281 L 152.199219 226.121094 L 152.824219 226.136719 C 154.335938 226.164062 155.871094 226.191406 157.433594 226.21875 C 162.257812 226.292969 167.367188 226.367188 172.710938 226.445312 C 183.417969 226.574219 195.085938 226.660156 207.296875 226.660156 C 217.9375 226.660156 228.167969 226.597656 237.703125 226.492188 C 247.34375 226.347656 256.308594 226.214844 264.316406 226.09375 C 264.84375 226.101562 265.375 226.101562 265.90625 226.109375 L 266.714844 226.109375 C 266.921875 226.171875 266.765625 225.917969 266.789062 225.820312 L 266.742188 225.425781 C 266.621094 224.410156 266.460938 223.175781 266.296875 222.222656 C 266.0625 220.695312 265.765625 219.140625 265.445312 217.550781 C 264.78125 214.375 263.945312 211.078125 262.910156 207.707031 C 260.847656 200.96875 258.03125 193.890625 254.175781 186.992188 C 246.691406 173.316406 235.945312 162.945312 225.871094 157.277344 C 218.667969 152.40625 208.632812 148.152344 196.824219 146.425781 C 190.925781 145.503906 184.632812 145.382812 178.113281 145.699219 C 171.589844 146.132812 164.832031 147.402344 158.214844 149.710938 C 145.515625 154.085938 135.097656 162.335938 127.972656 171.351562 C 120.742188 180.371094 116.46875 189.925781 113.644531 198.019531 C 110.828125 206.160156 109.558594 213.015625 108.84375 217.738281 C 108.160156 222.472656 108.082031 225.117188 108.082031 225.117188 C 108.082031 225.117188 108.425781 222.496094 109.496094 217.863281 C 110.601562 213.242188 112.378906 206.574219 115.636719 198.777344 C 118.898438 191.023438 123.539062 182 130.738281 173.652344 C 137.855469 165.300781 147.714844 157.855469 159.625 153.742188 C 172.078125 149.34375 185.046875 148.808594 196.375 149.941406 C 207.730469 151.175781 217.539062 154.699219 224.835938 158.96875 C 234.328125 165 244.226562 175.246094 251.488281 188.5 C 255.230469 195.183594 258.09375 202.019531 260.300781 208.550781 C 261.414062 211.8125 262.347656 215.007812 263.121094 218.085938 C 263.503906 219.625 263.863281 221.136719 264.160156 222.609375 C 264.25 223.027344 264.335938 223.4375 264.421875 223.839844 C 264.421875 223.921875 264.503906 224.078125 264.433594 224.097656 L 264.160156 224.113281 L 263.59375 224.140625 C 255.804688 224.023438 247.082031 223.886719 237.703125 223.746094 C 228.167969 223.640625 217.9375 223.574219 207.296875 223.574219 C 195.085938 223.574219 183.417969 223.660156 172.710938 223.792969 C 167.367188 223.871094 162.257812 223.945312 157.433594 224.019531 C 156.59375 224.039062 155.765625 224.058594 154.953125 224.078125 C 154.816406 224.070312 154.597656 224.121094 154.527344 224.066406 L 154.648438 223.644531 L 154.925781 222.789062 C 155.09375 222.324219 155.257812 221.859375 155.421875 221.402344 C 155.617188 220.886719 155.808594 220.375 155.996094 219.871094 C 156.398438 218.867188 156.789062 217.878906 157.171875 216.914062 C 160.707031 209.636719 165.675781 200.621094 173.238281 191.980469 C 177.027344 187.707031 181.523438 183.539062 186.921875 180.429688 C 192.261719 177.238281 198.601562 175.40625 205.207031 175.464844 L 224.378906 175.636719 L 205.742188 171.265625 C 204.421875 170.957031 202.878906 170.65625 201.28125 170.398438 C 185.535156 167.902344 169.898438 168.882812 157.507812 174.246094 C 151.308594 176.824219 146.140625 180.628906 142.300781 184.78125 C 138.453125 188.953125 135.871094 193.394531 134.222656 197.40625 C 131.367188 203.078125 129.222656 210.589844 128.566406 219.105469 C 128.511719 220.167969 128.457031 221.25 128.398438 222.339844 L 128.339844 223.351562 C 128.296875 223.515625 128.402344 223.824219 128.117188 223.726562 L 127.457031 223.703125 L 125.785156 223.683594 C 124.660156 223.671875 123.527344 223.660156 122.382812 223.644531 C 120.332031 223.628906 118.246094 223.609375 116.132812 223.59375 C 115.644531 223.703125 115.832031 223.292969 115.839844 222.832031 C 115.910156 221.664062 116.046875 220.484375 116.179688 219.300781 C 117.324219 210.066406 119.960938 201.472656 123.28125 194.113281 C 126.601562 186.730469 130.785156 180.675781 134.710938 175.957031 C 135.722656 174.804688 136.691406 173.703125 137.605469 172.65625 C 138.519531 171.609375 139.539062 170.78125 140.40625 169.917969 C 141.292969 169.070312 142.121094 168.285156 142.886719 167.558594 C 143.640625 166.816406 144.449219 166.292969 145.113281 165.738281 C 147.820312 163.597656 149.34375 162.390625 149.34375 162.390625"/><g clip-path="url(#b)"><path fill="#FFF" d="M 186.875 132.765625 C 186.875 132.765625 186.515625 132.730469 185.953125 132.675781 C 185.351562 132.605469 184.476562 132.542969 183.386719 132.734375 C 181.242188 132.996094 178.125 134.386719 176.109375 137.207031 C 175.023438 138.597656 174.351562 140.128906 173.851562 141.515625 C 173.605469 142.210938 173.421875 142.886719 173.28125 143.519531 C 173.203125 143.832031 173.15625 144.144531 173.101562 144.4375 C 173.042969 144.757812 172.953125 145.1875 172.925781 145.503906 C 172.769531 145.976562 172.582031 146.535156 172.4375 147.140625 C 172.359375 147.460938 172.28125 147.785156 172.199219 148.113281 L 172.140625 148.378906 C 172.121094 148.464844 172.074219 148.59375 172.179688 148.527344 L 172.613281 148.402344 C 173.28125 148.203125 173.957031 148 174.632812 147.796875 L 175.8125 147.433594 L 176.597656 147.269531 C 178.652344 146.757812 181.042969 146.496094 183.570312 146.257812 C 188.382812 145.902344 192.792969 146.0625 195.695312 146.242188 C 196.578125 146.488281 197.542969 146.792969 198.585938 147.132812 C 199.121094 147.3125 199.660156 147.496094 200.203125 147.679688 C 201.121094 147.992188 202.121094 148.367188 203.183594 148.777344 C 203.308594 147.902344 203.304688 146.78125 203.304688 145.640625 C 203.261719 144.6875 203.210938 144.125 203.105469 143.328125 C 202.605469 139.609375 201.160156 136.277344 199.296875 134.171875 C 198.332031 132.375 196.371094 130.421875 193.757812 129.332031 C 192.496094 128.691406 191.152344 128.585938 189.957031 128.339844 C 188.734375 128.3125 187.605469 128.285156 186.613281 128.386719 C 185.804688 128.355469 184.957031 128.320312 184.105469 128.289062 C 183.191406 128.320312 182.207031 128.515625 181.15625 128.671875 C 179.136719 129.261719 176.800781 130.175781 175 132.003906 C 171.457031 135.410156 170.382812 139.773438 170.0625 142.671875 C 169.746094 145.640625 170.105469 147.445312 170.105469 147.445312 C 170.105469 147.445312 170.464844 145.648438 171.449219 142.992188 C 172.425781 140.355469 174.066406 136.808594 176.949219 134.074219 C 178.414062 132.574219 180.210938 131.710938 181.851562 130.929688 C 182.730469 130.675781 183.550781 130.339844 184.355469 130.144531 C 185.128906 129.996094 185.894531 129.847656 186.628906 129.707031 C 187.558594 129.808594 188.585938 130.015625 189.679688 130.15625 C 190.71875 130.511719 191.894531 130.667969 192.957031 131.222656 C 195.183594 132.160156 197.03125 133.515625 198.246094 134.941406 C 199.628906 137.09375 200.601562 140.171875 201.074219 143.601562 L 201.199219 144.625 L 201.277344 145.503906 C 201.289062 145.6875 201.351562 145.960938 201.308594 146.113281 L 200.703125 145.996094 C 200.109375 145.847656 199.535156 145.722656 198.976562 145.617188 C 197.871094 145.402344 196.847656 145.242188 195.914062 145.148438 C 193.128906 144.175781 188.585938 143.035156 183.355469 143.417969 C 180.613281 143.671875 178.039062 144.234375 175.925781 145.148438 L 175.160156 145.453125 L 174.945312 145.621094 L 174.320312 146.046875 C 173.960938 146.34375 174.082031 146 174.015625 145.886719 C 173.992188 145.71875 173.984375 145.519531 173.984375 145.300781 L 174.234375 144.765625 C 174.347656 144.5 174.453125 144.226562 174.585938 143.949219 C 174.832031 143.386719 175.113281 142.792969 175.429688 142.183594 C 176.070312 140.980469 176.792969 139.660156 177.742188 138.449219 C 179.5 136.003906 181.78125 134.484375 183.652344 133.726562 C 184.585938 133.3125 185.402344 133.117188 185.976562 132.996094 C 186.523438 132.855469 186.875 132.765625 186.875 132.765625"/></g><path fill="#FFF" d="M 242.273438 237.761719 C 242.273438 237.761719 235.378906 236.734375 226.871094 236.734375 C 222.496094 236.734375 218.546875 237.007812 215.746094 237.269531 C 211.90625 236.859375 205.667969 236.339844 198.621094 236.339844 C 191.949219 236.339844 186 236.804688 182.128906 237.203125 C 178.375 236.964844 173.375 236.734375 167.882812 236.734375 C 163.097656 236.734375 158.6875 236.90625 155.144531 237.113281 C 152.5625 236.90625 149.347656 236.734375 145.855469 236.734375 C 142.417969 236.734375 139.246094 236.902344 136.683594 237.105469 C 132.824219 236.730469 127.320312 236.339844 121.207031 236.339844 C 109.542969 236.339844 100.089844 237.761719 100.089844 237.761719 C 100.089844 237.761719 109.542969 239.1875 121.207031 239.1875 C 127.320312 239.1875 132.824219 238.796875 136.683594 238.425781 C 139.246094 238.625 142.417969 238.792969 145.855469 238.792969 C 149.347656 238.792969 152.5625 238.617188 155.144531 238.414062 C 158.6875 238.617188 163.097656 238.792969 167.882812 238.792969 C 173.375 238.792969 178.375 238.5625 182.128906 238.324219 C 186 238.722656 191.949219 239.1875 198.621094 239.1875 C 205.667969 239.1875 211.90625 238.667969 215.746094 238.257812 C 218.546875 238.519531 222.496094 238.792969 226.871094 238.792969 C 235.378906 238.792969 242.273438 237.761719 242.273438 237.761719"/></svg>