<svg xmlns="http://www.w3.org/2000/svg" width="375" viewBox="0 0 375 375" height="375" version="1.0"><defs><clipPath id="a"><path d="M 105.066406 105.066406 L 270.066406 105.066406 L 270.066406 270.066406 L 105.066406 270.066406 Z M 105.066406 105.066406"/></clipPath></defs><g clip-path="url(#a)"><path fill="#FFF" d="M 105.066406 105.066406 L 112.921875 105.066406 L 112.921875 112.921875 L 105.066406 112.921875 Z M 112.921875 105.066406 L 120.78125 105.066406 L 120.78125 112.921875 L 112.921875 112.921875 Z M 120.78125 105.066406 L 128.636719 105.066406 L 128.636719 112.921875 L 120.78125 112.921875 Z M 128.636719 105.066406 L 136.492188 105.066406 L 136.492188 112.921875 L 128.636719 112.921875 Z M 136.492188 105.066406 L 144.351562 105.066406 L 144.351562 112.921875 L 136.492188 112.921875 Z M 144.351562 105.066406 L 152.207031 105.066406 L 152.207031 112.921875 L 144.351562 112.921875 Z M 152.207031 105.066406 L 160.066406 105.066406 L 160.066406 112.921875 L 152.207031 112.921875 Z M 175.78125 105.066406 L 183.636719 105.066406 L 183.636719 112.921875 L 175.78125 112.921875 Z M 199.351562 105.066406 L 207.207031 105.066406 L 207.207031 112.921875 L 199.351562 112.921875 Z M 215.066406 105.066406 L 222.921875 105.066406 L 222.921875 112.921875 L 215.066406 112.921875 Z M 222.921875 105.066406 L 230.78125 105.066406 L 230.78125 112.921875 L 222.921875 112.921875 Z M 230.78125 105.066406 L 238.636719 105.066406 L 238.636719 112.921875 L 230.78125 112.921875 Z M 238.636719 105.066406 L 246.492188 105.066406 L 246.492188 112.921875 L 238.636719 112.921875 Z M 246.492188 105.066406 L 254.351562 105.066406 L 254.351562 112.921875 L 246.492188 112.921875 Z M 254.351562 105.066406 L 262.207031 105.066406 L 262.207031 112.921875 L 254.351562 112.921875 Z M 262.207031 105.066406 L 270.066406 105.066406 L 270.066406 112.921875 L 262.207031 112.921875 Z M 105.066406 112.921875 L 112.921875 112.921875 L 112.921875 120.78125 L 105.066406 120.78125 Z M 152.207031 112.921875 L 160.066406 112.921875 L 160.066406 120.78125 L 152.207031 120.78125 Z M 167.921875 112.921875 L 175.78125 112.921875 L 175.78125 120.78125 L 167.921875 120.78125 Z M 191.492188 112.921875 L 199.351562 112.921875 L 199.351562 120.78125 L 191.492188 120.78125 Z M 215.066406 112.921875 L 222.921875 112.921875 L 222.921875 120.78125 L 215.066406 120.78125 Z M 262.207031 112.921875 L 270.066406 112.921875 L 270.066406 120.78125 L 262.207031 120.78125 Z M 105.066406 120.78125 L 112.921875 120.78125 L 112.921875 128.636719 L 105.066406 128.636719 Z M 120.78125 120.78125 L 128.636719 120.78125 L 128.636719 128.636719 L 120.78125 128.636719 Z M 128.636719 120.78125 L 136.492188 120.78125 L 136.492188 128.636719 L 128.636719 128.636719 Z M 136.492188 120.78125 L 144.351562 120.78125 L 144.351562 128.636719 L 136.492188 128.636719 Z M 152.207031 120.78125 L 160.066406 120.78125 L 160.066406 128.636719 L 152.207031 128.636719 Z M 175.78125 120.78125 L 183.636719 120.78125 L 183.636719 128.636719 L 175.78125 128.636719 Z M 215.066406 120.78125 L 222.921875 120.78125 L 222.921875 128.636719 L 215.066406 128.636719 Z M 230.78125 120.78125 L 238.636719 120.78125 L 238.636719 128.636719 L 230.78125 128.636719 Z M 238.636719 120.78125 L 246.492188 120.78125 L 246.492188 128.636719 L 238.636719 128.636719 Z M 246.492188 120.78125 L 254.351562 120.78125 L 254.351562 128.636719 L 246.492188 128.636719 Z M 262.207031 120.78125 L 270.066406 120.78125 L 270.066406 128.636719 L 262.207031 128.636719 Z M 105.066406 128.636719 L 112.921875 128.636719 L 112.921875 136.492188 L 105.066406 136.492188 Z M 120.78125 128.636719 L 128.636719 128.636719 L 128.636719 136.492188 L 120.78125 136.492188 Z M 128.636719 128.636719 L 136.492188 128.636719 L 136.492188 136.492188 L 128.636719 136.492188 Z M 136.492188 128.636719 L 144.351562 128.636719 L 144.351562 136.492188 L 136.492188 136.492188 Z M 152.207031 128.636719 L 160.066406 128.636719 L 160.066406 136.492188 L 152.207031 136.492188 Z M 167.921875 128.636719 L 175.78125 128.636719 L 175.78125 136.492188 L 167.921875 136.492188 Z M 191.492188 128.636719 L 199.351562 128.636719 L 199.351562 136.492188 L 191.492188 136.492188 Z M 215.066406 128.636719 L 222.921875 128.636719 L 222.921875 136.492188 L 215.066406 136.492188 Z M 230.78125 128.636719 L 238.636719 128.636719 L 238.636719 136.492188 L 230.78125 136.492188 Z M 238.636719 128.636719 L 246.492188 128.636719 L 246.492188 136.492188 L 238.636719 136.492188 Z M 246.492188 128.636719 L 254.351562 128.636719 L 254.351562 136.492188 L 246.492188 136.492188 Z M 262.207031 128.636719 L 270.066406 128.636719 L 270.066406 136.492188 L 262.207031 136.492188 Z M 105.066406 136.492188 L 112.921875 136.492188 L 112.921875 144.351562 L 105.066406 144.351562 Z M 120.78125 136.492188 L 128.636719 136.492188 L 128.636719 144.351562 L 120.78125 144.351562 Z M 128.636719 136.492188 L 136.492188 136.492188 L 136.492188 144.351562 L 128.636719 144.351562 Z M 136.492188 136.492188 L 144.351562 136.492188 L 144.351562 144.351562 L 136.492188 144.351562 Z M 152.207031 136.492188 L 160.066406 136.492188 L 160.066406 144.351562 L 152.207031 144.351562 Z M 183.636719 136.492188 L 191.492188 136.492188 L 191.492188 144.351562 L 183.636719 144.351562 Z M 191.492188 136.492188 L 199.351562 136.492188 L 199.351562 144.351562 L 191.492188 144.351562 Z M 199.351562 136.492188 L 207.207031 136.492188 L 207.207031 144.351562 L 199.351562 144.351562 Z M 215.066406 136.492188 L 222.921875 136.492188 L 222.921875 144.351562 L 215.066406 144.351562 Z M 230.78125 136.492188 L 238.636719 136.492188 L 238.636719 144.351562 L 230.78125 144.351562 Z M 238.636719 136.492188 L 246.492188 136.492188 L 246.492188 144.351562 L 238.636719 144.351562 Z M 246.492188 136.492188 L 254.351562 136.492188 L 254.351562 144.351562 L 246.492188 144.351562 Z M 262.207031 136.492188 L 270.066406 136.492188 L 270.066406 144.351562 L 262.207031 144.351562 Z M 105.066406 144.351562 L 112.921875 144.351562 L 112.921875 152.207031 L 105.066406 152.207031 Z M 152.207031 144.351562 L 160.066406 144.351562 L 160.066406 152.207031 L 152.207031 152.207031 Z M 167.921875 144.351562 L 175.78125 144.351562 L 175.78125 152.207031 L 167.921875 152.207031 Z M 175.78125 144.351562 L 183.636719 144.351562 L 183.636719 152.207031 L 175.78125 152.207031 Z M 183.636719 144.351562 L 191.492188 144.351562 L 191.492188 152.207031 L 183.636719 152.207031 Z M 199.351562 144.351562 L 207.207031 144.351562 L 207.207031 152.207031 L 199.351562 152.207031 Z M 215.066406 144.351562 L 222.921875 144.351562 L 222.921875 152.207031 L 215.066406 152.207031 Z M 262.207031 144.351562 L 270.066406 144.351562 L 270.066406 152.207031 L 262.207031 152.207031 Z M 105.066406 152.207031 L 112.921875 152.207031 L 112.921875 160.066406 L 105.066406 160.066406 Z M 112.921875 152.207031 L 120.78125 152.207031 L 120.78125 160.066406 L 112.921875 160.066406 Z M 120.78125 152.207031 L 128.636719 152.207031 L 128.636719 160.066406 L 120.78125 160.066406 Z M 128.636719 152.207031 L 136.492188 152.207031 L 136.492188 160.066406 L 128.636719 160.066406 Z M 136.492188 152.207031 L 144.351562 152.207031 L 144.351562 160.066406 L 136.492188 160.066406 Z M 144.351562 152.207031 L 152.207031 152.207031 L 152.207031 160.066406 L 144.351562 160.066406 Z M 152.207031 152.207031 L 160.066406 152.207031 L 160.066406 160.066406 L 152.207031 160.066406 Z M 167.921875 152.207031 L 175.78125 152.207031 L 175.78125 160.066406 L 167.921875 160.066406 Z M 183.636719 152.207031 L 191.492188 152.207031 L 191.492188 160.066406 L 183.636719 160.066406 Z M 199.351562 152.207031 L 207.207031 152.207031 L 207.207031 160.066406 L 199.351562 160.066406 Z M 215.066406 152.207031 L 222.921875 152.207031 L 222.921875 160.066406 L 215.066406 160.066406 Z M 222.921875 152.207031 L 230.78125 152.207031 L 230.78125 160.066406 L 222.921875 160.066406 Z M 230.78125 152.207031 L 238.636719 152.207031 L 238.636719 160.066406 L 230.78125 160.066406 Z M 238.636719 152.207031 L 246.492188 152.207031 L 246.492188 160.066406 L 238.636719 160.066406 Z M 246.492188 152.207031 L 254.351562 152.207031 L 254.351562 160.066406 L 246.492188 160.066406 Z M 254.351562 152.207031 L 262.207031 152.207031 L 262.207031 160.066406 L 254.351562 160.066406 Z M 262.207031 152.207031 L 270.066406 152.207031 L 270.066406 160.066406 L 262.207031 160.066406 Z M 183.636719 160.066406 L 191.492188 160.066406 L 191.492188 167.921875 L 183.636719 167.921875 Z M 191.492188 160.066406 L 199.351562 160.066406 L 199.351562 167.921875 L 191.492188 167.921875 Z M 199.351562 160.066406 L 207.207031 160.066406 L 207.207031 167.921875 L 199.351562 167.921875 Z M 105.066406 167.921875 L 112.921875 167.921875 L 112.921875 175.78125 L 105.066406 175.78125 Z M 112.921875 167.921875 L 120.78125 167.921875 L 120.78125 175.78125 L 112.921875 175.78125 Z M 120.78125 167.921875 L 128.636719 167.921875 L 128.636719 175.78125 L 120.78125 175.78125 Z M 128.636719 167.921875 L 136.492188 167.921875 L 136.492188 175.78125 L 128.636719 175.78125 Z M 136.492188 167.921875 L 144.351562 167.921875 L 144.351562 175.78125 L 136.492188 175.78125 Z M 152.207031 167.921875 L 160.066406 167.921875 L 160.066406 175.78125 L 152.207031 175.78125 Z M 160.066406 167.921875 L 167.921875 167.921875 L 167.921875 175.78125 L 160.066406 175.78125 Z M 167.921875 167.921875 L 175.78125 167.921875 L 175.78125 175.78125 L 167.921875 175.78125 Z M 175.78125 167.921875 L 183.636719 167.921875 L 183.636719 175.78125 L 175.78125 175.78125 Z M 199.351562 167.921875 L 207.207031 167.921875 L 207.207031 175.78125 L 199.351562 175.78125 Z M 207.207031 167.921875 L 215.066406 167.921875 L 215.066406 175.78125 L 207.207031 175.78125 Z M 222.921875 167.921875 L 230.78125 167.921875 L 230.78125 175.78125 L 222.921875 175.78125 Z M 238.636719 167.921875 L 246.492188 167.921875 L 246.492188 175.78125 L 238.636719 175.78125 Z M 254.351562 167.921875 L 262.207031 167.921875 L 262.207031 175.78125 L 254.351562 175.78125 Z M 105.066406 175.78125 L 112.921875 175.78125 L 112.921875 183.636719 L 105.066406 183.636719 Z M 112.921875 175.78125 L 120.78125 175.78125 L 120.78125 183.636719 L 112.921875 183.636719 Z M 128.636719 175.78125 L 136.492188 175.78125 L 136.492188 183.636719 L 128.636719 183.636719 Z M 136.492188 175.78125 L 144.351562 175.78125 L 144.351562 183.636719 L 136.492188 183.636719 Z M 160.066406 175.78125 L 167.921875 175.78125 L 167.921875 183.636719 L 160.066406 183.636719 Z M 167.921875 175.78125 L 175.78125 175.78125 L 175.78125 183.636719 L 167.921875 183.636719 Z M 175.78125 175.78125 L 183.636719 175.78125 L 183.636719 183.636719 L 175.78125 183.636719 Z M 199.351562 175.78125 L 207.207031 175.78125 L 207.207031 183.636719 L 199.351562 183.636719 Z M 215.066406 175.78125 L 222.921875 175.78125 L 222.921875 183.636719 L 215.066406 183.636719 Z M 230.78125 175.78125 L 238.636719 175.78125 L 238.636719 183.636719 L 230.78125 183.636719 Z M 246.492188 175.78125 L 254.351562 175.78125 L 254.351562 183.636719 L 246.492188 183.636719 Z M 262.207031 175.78125 L 270.066406 175.78125 L 270.066406 183.636719 L 262.207031 183.636719 Z M 152.207031 183.636719 L 160.066406 183.636719 L 160.066406 191.492188 L 152.207031 191.492188 Z M 167.921875 183.636719 L 175.78125 183.636719 L 175.78125 191.492188 L 167.921875 191.492188 Z M 175.78125 183.636719 L 183.636719 183.636719 L 183.636719 191.492188 L 175.78125 191.492188 Z M 191.492188 183.636719 L 199.351562 183.636719 L 199.351562 191.492188 L 191.492188 191.492188 Z M 207.207031 183.636719 L 215.066406 183.636719 L 215.066406 191.492188 L 207.207031 191.492188 Z M 238.636719 183.636719 L 246.492188 183.636719 L 246.492188 191.492188 L 238.636719 191.492188 Z M 246.492188 183.636719 L 254.351562 183.636719 L 254.351562 191.492188 L 246.492188 191.492188 Z M 254.351562 183.636719 L 262.207031 183.636719 L 262.207031 191.492188 L 254.351562 191.492188 Z M 105.066406 191.492188 L 112.921875 191.492188 L 112.921875 199.351562 L 105.066406 199.351562 Z M 144.351562 191.492188 L 152.207031 191.492188 L 152.207031 199.351562 L 144.351562 199.351562 Z M 175.78125 191.492188 L 183.636719 191.492188 L 183.636719 199.351562 L 175.78125 199.351562 Z M 207.207031 191.492188 L 215.066406 191.492188 L 215.066406 199.351562 L 207.207031 199.351562 Z M 222.921875 191.492188 L 230.78125 191.492188 L 230.78125 199.351562 L 222.921875 199.351562 Z M 230.78125 191.492188 L 238.636719 191.492188 L 238.636719 199.351562 L 230.78125 199.351562 Z M 238.636719 191.492188 L 246.492188 191.492188 L 246.492188 199.351562 L 238.636719 199.351562 Z M 246.492188 191.492188 L 254.351562 191.492188 L 254.351562 199.351562 L 246.492188 199.351562 Z M 254.351562 191.492188 L 262.207031 191.492188 L 262.207031 199.351562 L 254.351562 199.351562 Z M 262.207031 191.492188 L 270.066406 191.492188 L 270.066406 199.351562 L 262.207031 199.351562 Z M 105.066406 199.351562 L 112.921875 199.351562 L 112.921875 207.207031 L 105.066406 207.207031 Z M 112.921875 199.351562 L 120.78125 199.351562 L 120.78125 207.207031 L 112.921875 207.207031 Z M 128.636719 199.351562 L 136.492188 199.351562 L 136.492188 207.207031 L 128.636719 207.207031 Z M 152.207031 199.351562 L 160.066406 199.351562 L 160.066406 207.207031 L 152.207031 207.207031 Z M 160.066406 199.351562 L 167.921875 199.351562 L 167.921875 207.207031 L 160.066406 207.207031 Z M 167.921875 199.351562 L 175.78125 199.351562 L 175.78125 207.207031 L 167.921875 207.207031 Z M 183.636719 199.351562 L 191.492188 199.351562 L 191.492188 207.207031 L 183.636719 207.207031 Z M 191.492188 199.351562 L 199.351562 199.351562 L 199.351562 207.207031 L 191.492188 207.207031 Z M 215.066406 199.351562 L 222.921875 199.351562 L 222.921875 207.207031 L 215.066406 207.207031 Z M 230.78125 199.351562 L 238.636719 199.351562 L 238.636719 207.207031 L 230.78125 207.207031 Z M 262.207031 199.351562 L 270.066406 199.351562 L 270.066406 207.207031 L 262.207031 207.207031 Z M 167.921875 207.207031 L 175.78125 207.207031 L 175.78125 215.066406 L 167.921875 215.066406 Z M 183.636719 207.207031 L 191.492188 207.207031 L 191.492188 215.066406 L 183.636719 215.066406 Z M 191.492188 207.207031 L 199.351562 207.207031 L 199.351562 215.066406 L 191.492188 215.066406 Z M 199.351562 207.207031 L 207.207031 207.207031 L 207.207031 215.066406 L 199.351562 215.066406 Z M 207.207031 207.207031 L 215.066406 207.207031 L 215.066406 215.066406 L 207.207031 215.066406 Z M 215.066406 207.207031 L 222.921875 207.207031 L 222.921875 215.066406 L 215.066406 215.066406 Z M 222.921875 207.207031 L 230.78125 207.207031 L 230.78125 215.066406 L 222.921875 215.066406 Z M 230.78125 207.207031 L 238.636719 207.207031 L 238.636719 215.066406 L 230.78125 215.066406 Z M 246.492188 207.207031 L 254.351562 207.207031 L 254.351562 215.066406 L 246.492188 215.066406 Z M 262.207031 207.207031 L 270.066406 207.207031 L 270.066406 215.066406 L 262.207031 215.066406 Z M 105.066406 215.066406 L 112.921875 215.066406 L 112.921875 222.921875 L 105.066406 222.921875 Z M 112.921875 215.066406 L 120.78125 215.066406 L 120.78125 222.921875 L 112.921875 222.921875 Z M 120.78125 215.066406 L 128.636719 215.066406 L 128.636719 222.921875 L 120.78125 222.921875 Z M 128.636719 215.066406 L 136.492188 215.066406 L 136.492188 222.921875 L 128.636719 222.921875 Z M 136.492188 215.066406 L 144.351562 215.066406 L 144.351562 222.921875 L 136.492188 222.921875 Z M 144.351562 215.066406 L 152.207031 215.066406 L 152.207031 222.921875 L 144.351562 222.921875 Z M 152.207031 215.066406 L 160.066406 215.066406 L 160.066406 222.921875 L 152.207031 222.921875 Z M 167.921875 215.066406 L 175.78125 215.066406 L 175.78125 222.921875 L 167.921875 222.921875 Z M 183.636719 215.066406 L 191.492188 215.066406 L 191.492188 222.921875 L 183.636719 222.921875 Z M 199.351562 215.066406 L 207.207031 215.066406 L 207.207031 222.921875 L 199.351562 222.921875 Z M 207.207031 215.066406 L 215.066406 215.066406 L 215.066406 222.921875 L 207.207031 222.921875 Z M 215.066406 215.066406 L 222.921875 215.066406 L 222.921875 222.921875 L 215.066406 222.921875 Z M 238.636719 215.066406 L 246.492188 215.066406 L 246.492188 222.921875 L 238.636719 222.921875 Z M 254.351562 215.066406 L 262.207031 215.066406 L 262.207031 222.921875 L 254.351562 222.921875 Z M 105.066406 222.921875 L 112.921875 222.921875 L 112.921875 230.78125 L 105.066406 230.78125 Z M 152.207031 222.921875 L 160.066406 222.921875 L 160.066406 230.78125 L 152.207031 230.78125 Z M 191.492188 222.921875 L 199.351562 222.921875 L 199.351562 230.78125 L 191.492188 230.78125 Z M 199.351562 222.921875 L 207.207031 222.921875 L 207.207031 230.78125 L 199.351562 230.78125 Z M 238.636719 222.921875 L 246.492188 222.921875 L 246.492188 230.78125 L 238.636719 230.78125 Z M 246.492188 222.921875 L 254.351562 222.921875 L 254.351562 230.78125 L 246.492188 230.78125 Z M 262.207031 222.921875 L 270.066406 222.921875 L 270.066406 230.78125 L 262.207031 230.78125 Z M 105.066406 230.78125 L 112.921875 230.78125 L 112.921875 238.636719 L 105.066406 238.636719 Z M 120.78125 230.78125 L 128.636719 230.78125 L 128.636719 238.636719 L 120.78125 238.636719 Z M 128.636719 230.78125 L 136.492188 230.78125 L 136.492188 238.636719 L 128.636719 238.636719 Z M 136.492188 230.78125 L 144.351562 230.78125 L 144.351562 238.636719 L 136.492188 238.636719 Z M 152.207031 230.78125 L 160.066406 230.78125 L 160.066406 238.636719 L 152.207031 238.636719 Z M 167.921875 230.78125 L 175.78125 230.78125 L 175.78125 238.636719 L 167.921875 238.636719 Z M 199.351562 230.78125 L 207.207031 230.78125 L 207.207031 238.636719 L 199.351562 238.636719 Z M 222.921875 230.78125 L 230.78125 230.78125 L 230.78125 238.636719 L 222.921875 238.636719 Z M 238.636719 230.78125 L 246.492188 230.78125 L 246.492188 238.636719 L 238.636719 238.636719 Z M 262.207031 230.78125 L 270.066406 230.78125 L 270.066406 238.636719 L 262.207031 238.636719 Z M 105.066406 238.636719 L 112.921875 238.636719 L 112.921875 246.492188 L 105.066406 246.492188 Z M 120.78125 238.636719 L 128.636719 238.636719 L 128.636719 246.492188 L 120.78125 246.492188 Z M 128.636719 238.636719 L 136.492188 238.636719 L 136.492188 246.492188 L 128.636719 246.492188 Z M 136.492188 238.636719 L 144.351562 238.636719 L 144.351562 246.492188 L 136.492188 246.492188 Z M 152.207031 238.636719 L 160.066406 238.636719 L 160.066406 246.492188 L 152.207031 246.492188 Z M 167.921875 238.636719 L 175.78125 238.636719 L 175.78125 246.492188 L 167.921875 246.492188 Z M 175.78125 238.636719 L 183.636719 238.636719 L 183.636719 246.492188 L 175.78125 246.492188 Z M 183.636719 238.636719 L 191.492188 238.636719 L 191.492188 246.492188 L 183.636719 246.492188 Z M 199.351562 238.636719 L 207.207031 238.636719 L 207.207031 246.492188 L 199.351562 246.492188 Z M 215.066406 238.636719 L 222.921875 238.636719 L 222.921875 246.492188 L 215.066406 246.492188 Z M 222.921875 238.636719 L 230.78125 238.636719 L 230.78125 246.492188 L 222.921875 246.492188 Z M 230.78125 238.636719 L 238.636719 238.636719 L 238.636719 246.492188 L 230.78125 246.492188 Z M 246.492188 238.636719 L 254.351562 238.636719 L 254.351562 246.492188 L 246.492188 246.492188 Z M 105.066406 246.492188 L 112.921875 246.492188 L 112.921875 254.351562 L 105.066406 254.351562 Z M 120.78125 246.492188 L 128.636719 246.492188 L 128.636719 254.351562 L 120.78125 254.351562 Z M 128.636719 246.492188 L 136.492188 246.492188 L 136.492188 254.351562 L 128.636719 254.351562 Z M 136.492188 246.492188 L 144.351562 246.492188 L 144.351562 254.351562 L 136.492188 254.351562 Z M 152.207031 246.492188 L 160.066406 246.492188 L 160.066406 254.351562 L 152.207031 254.351562 Z M 167.921875 246.492188 L 175.78125 246.492188 L 175.78125 254.351562 L 167.921875 254.351562 Z M 183.636719 246.492188 L 191.492188 246.492188 L 191.492188 254.351562 L 183.636719 254.351562 Z M 191.492188 246.492188 L 199.351562 246.492188 L 199.351562 254.351562 L 191.492188 254.351562 Z M 215.066406 246.492188 L 222.921875 246.492188 L 222.921875 254.351562 L 215.066406 254.351562 Z M 238.636719 246.492188 L 246.492188 246.492188 L 246.492188 254.351562 L 238.636719 254.351562 Z M 105.066406 254.351562 L 112.921875 254.351562 L 112.921875 262.207031 L 105.066406 262.207031 Z M 152.207031 254.351562 L 160.066406 254.351562 L 160.066406 262.207031 L 152.207031 262.207031 Z M 167.921875 254.351562 L 175.78125 254.351562 L 175.78125 262.207031 L 167.921875 262.207031 Z M 175.78125 254.351562 L 183.636719 254.351562 L 183.636719 262.207031 L 175.78125 262.207031 Z M 183.636719 254.351562 L 191.492188 254.351562 L 191.492188 262.207031 L 183.636719 262.207031 Z M 238.636719 254.351562 L 246.492188 254.351562 L 246.492188 262.207031 L 238.636719 262.207031 Z M 246.492188 254.351562 L 254.351562 254.351562 L 254.351562 262.207031 L 246.492188 262.207031 Z M 105.066406 262.207031 L 112.921875 262.207031 L 112.921875 270.066406 L 105.066406 270.066406 Z M 112.921875 262.207031 L 120.78125 262.207031 L 120.78125 270.066406 L 112.921875 270.066406 Z M 120.78125 262.207031 L 128.636719 262.207031 L 128.636719 270.066406 L 120.78125 270.066406 Z M 128.636719 262.207031 L 136.492188 262.207031 L 136.492188 270.066406 L 128.636719 270.066406 Z M 136.492188 262.207031 L 144.351562 262.207031 L 144.351562 270.066406 L 136.492188 270.066406 Z M 144.351562 262.207031 L 152.207031 262.207031 L 152.207031 270.066406 L 144.351562 270.066406 Z M 152.207031 262.207031 L 160.066406 262.207031 L 160.066406 270.066406 L 152.207031 270.066406 Z M 167.921875 262.207031 L 175.78125 262.207031 L 175.78125 270.066406 L 167.921875 270.066406 Z M 175.78125 262.207031 L 183.636719 262.207031 L 183.636719 270.066406 L 175.78125 270.066406 Z M 191.492188 262.207031 L 199.351562 262.207031 L 199.351562 270.066406 L 191.492188 270.066406 Z M 222.921875 262.207031 L 230.78125 262.207031 L 230.78125 270.066406 L 222.921875 270.066406 Z M 254.351562 262.207031 L 262.207031 262.207031 L 262.207031 270.066406 L 254.351562 270.066406 Z M 254.351562 262.207031"/></g></svg>