<svg xmlns="http://www.w3.org/2000/svg" width="375" viewBox="0 0 375 375" height="375" version="1.0"><defs><clipPath id="a"><path d="M 129.84375 114 L 227 114 L 227 248 L 129.84375 248 Z M 129.84375 114"/></clipPath><clipPath id="b"><path d="M 143 122 L 245.34375 122 L 245.34375 254 L 143 254 Z M 143 122"/></clipPath></defs><g clip-path="url(#a)"><path fill="#A66900" d="M 226.820312 124.222656 L 212.867188 116.183594 C 212.214844 115.890625 209.734375 115.222656 208.964844 115.066406 C 196.34375 112.507812 182.71875 119.160156 172.898438 126.550781 C 149.164062 144.398438 129.910156 179.242188 129.917969 209.097656 C 129.921875 219.34375 132.339844 230.882812 139.988281 238.261719 L 141.492188 239.601562 L 155.445312 247.644531 C 154.378906 246.695312 153.488281 245.917969 152.527344 244.828125 C 143.996094 235.191406 142.957031 220.085938 144.453125 207.902344 C 148.070312 178.457031 168.667969 144.386719 194.570312 129.464844 C 203.457031 124.347656 214.679688 120.667969 224.90625 123.59375 L 226.820312 124.222656" fill-rule="evenodd"/></g><g clip-path="url(#b)"><path fill="#FC0" d="M 143.867188 217.140625 C 143.867188 249.417969 166.566406 262.503906 194.566406 246.363281 C 222.570312 230.222656 245.265625 190.972656 245.269531 158.691406 C 245.269531 126.410156 222.570312 113.324219 194.570312 129.464844 C 166.566406 145.605469 143.871094 184.859375 143.867188 217.140625" fill-rule="evenodd"/></g><path fill="#FFA200" d="M 149.191406 214.070312 C 149.191406 242.960938 169.503906 254.671875 194.566406 240.226562 C 219.628906 225.78125 239.945312 190.652344 239.945312 161.761719 C 239.945312 132.871094 219.632812 121.15625 194.570312 135.605469 C 169.507812 150.050781 149.195312 185.179688 149.191406 214.070312" fill-rule="evenodd"/><path fill="#FFA200" d="M 237.371094 145.847656 L 233.714844 147.957031 L 233.714844 154.003906 L 238.871094 151.03125 C 239.574219 154.28125 239.945312 157.863281 239.945312 161.761719 C 239.945312 190.652344 219.628906 225.78125 194.566406 240.226562 C 169.503906 254.671875 149.191406 242.960938 149.191406 214.070312 C 149.195312 185.179688 169.507812 150.050781 194.570312 135.605469 C 214.339844 124.207031 231.152344 129.09375 237.371094 145.847656" fill-rule="evenodd"/><path fill="#FFA200" d="M 235.992188 142.652344 L 230.25 145.960938 L 230.25 159.992188 L 239.496094 154.664062 C 239.789062 156.898438 239.945312 159.261719 239.945312 161.761719 C 239.945312 190.652344 219.628906 225.78125 194.566406 240.226562 C 178.042969 249.753906 163.582031 247.902344 155.648438 237.253906 L 161.289062 234.003906 L 161.289062 227.464844 L 152.761719 232.382812 C 150.460938 227.445312 149.191406 221.296875 149.191406 214.070312 C 149.195312 185.179688 169.507812 150.050781 194.570312 135.605469 C 213.023438 124.96875 228.898438 128.511719 235.992188 142.652344" fill-rule="evenodd"/><path fill="#FFA200" d="M 165.691406 200.976562 L 182.066406 191.539062 L 182.066406 225.355469 C 185.925781 225.253906 190.179688 223.925781 194.566406 221.394531 C 200.007812 218.261719 205.277344 213.503906 209.894531 207.523438 L 217.328125 197.898438 L 217.328125 196.070312 L 219.367188 191.0625 C 219.515625 190.695312 219.660156 190.332031 219.800781 189.964844 L 209.476562 195.917969 L 209.476562 150.578125 C 205.039062 150.074219 199.914062 151.351562 194.570312 154.433594 C 191.632812 156.125 188.71875 158.304688 185.914062 160.929688 L 173.195312 172.828125 L 167.894531 190.023438 C 166.734375 193.789062 165.996094 197.46875 165.691406 200.976562" fill-rule="evenodd"/><path fill="#FFA200" d="M 169.839844 194.597656 L 185.527344 185.550781 L 185.527344 220.726562 C 188.378906 220.320312 191.433594 219.210938 194.566406 217.40625 C 199.359375 214.640625 203.996094 210.460938 208.0625 205.191406 L 213.867188 197.675781 L 213.867188 197.378906 L 206.015625 201.902344 L 206.015625 154.933594 C 202.519531 154.933594 198.617188 156.09375 194.570312 158.425781 C 191.984375 159.917969 189.414062 161.835938 186.945312 164.148438 L 175.746094 174.625 L 171.074219 189.777344 C 170.570312 191.402344 170.160156 193.011719 169.839844 194.597656" fill-rule="evenodd"/><path fill="#FFA200" d="M 174.800781 187.742188 L 188.992188 179.566406 L 188.992188 215.8125 C 190.789062 215.3125 192.660156 214.511719 194.566406 213.414062 C 197.328125 211.824219 200.019531 209.695312 202.550781 207.105469 L 202.550781 159.523438 C 200.046875 159.851562 197.347656 160.816406 194.570312 162.417969 C 192.332031 163.707031 190.113281 165.363281 187.976562 167.363281 L 178.292969 176.421875 L 174.800781 187.742188" fill-rule="evenodd"/><path fill="#FFA200" d="M 180.070312 180.714844 L 192.453125 173.578125 L 192.453125 210.503906 C 193.148438 210.191406 193.855469 209.832031 194.566406 209.421875 C 196.109375 208.535156 197.625 207.449219 199.089844 206.183594 L 199.089844 164.4375 C 197.632812 164.859375 196.117188 165.519531 194.570312 166.410156 C 192.679688 167.496094 190.808594 168.894531 189.003906 170.582031 L 180.839844 178.21875 L 180.070312 180.714844" fill-rule="evenodd"/><path fill="#FF6" d="M 238.074219 146.289062 L 234.699219 148.234375 L 234.699219 153.152344 L 239.117188 150.605469 C 239.351562 150.46875 239.652344 150.550781 239.789062 150.785156 C 239.8125 150.832031 239.832031 150.878906 239.84375 150.929688 C 240.199219 152.578125 240.472656 154.320312 240.65625 156.148438 C 240.835938 157.949219 240.929688 159.820312 240.929688 161.757812 L 240.925781 161.757812 C 240.925781 176.292969 235.824219 192.382812 227.570312 206.65625 C 219.320312 220.921875 207.910156 233.382812 195.304688 240.648438 C 187.941406 244.890625 180.976562 246.902344 174.792969 246.902344 C 170.308594 246.902344 166.238281 245.847656 162.726562 243.824219 C 159.214844 241.800781 156.265625 238.804688 154.023438 234.929688 C 150.933594 229.582031 149.191406 222.554688 149.191406 214.066406 C 149.191406 199.535156 154.296875 183.441406 162.550781 169.171875 C 170.800781 154.902344 182.207031 142.445312 194.816406 135.175781 L 194.8125 135.175781 C 197.589844 133.578125 200.304688 132.296875 202.941406 131.320312 C 210.191406 128.640625 216.859375 128.257812 222.527344 129.929688 C 228.214844 131.605469 232.878906 135.34375 236.089844 140.894531 L 236.09375 140.894531 C 236.941406 142.367188 237.6875 143.960938 238.324219 145.675781 C 238.414062 145.917969 238.300781 146.179688 238.074219 146.289062 Z M 233.960938 147.53125 L 237.253906 145.628906 C 236.671875 144.113281 235.996094 142.695312 235.242188 141.390625 L 235.242188 141.386719 C 232.160156 136.058594 227.691406 132.472656 222.25 130.871094 C 216.785156 129.257812 210.328125 129.636719 203.28125 132.242188 C 200.695312 133.199219 198.027344 134.457031 195.308594 136.027344 L 195.304688 136.027344 C 182.851562 143.203125 171.570312 155.535156 163.402344 169.664062 C 155.230469 183.792969 150.175781 199.710938 150.175781 214.066406 C 150.175781 222.375 151.867188 229.238281 154.875 234.441406 C 157.027344 238.164062 159.855469 241.035156 163.21875 242.972656 C 166.582031 244.910156 170.488281 245.921875 174.792969 245.921875 C 180.808594 245.921875 187.609375 243.953125 194.8125 239.800781 C 207.265625 232.621094 218.546875 220.292969 226.71875 206.160156 C 234.890625 192.03125 239.945312 176.113281 239.945312 161.757812 L 239.941406 161.757812 C 239.941406 159.832031 239.851562 157.996094 239.675781 156.246094 C 239.523438 154.703125 239.300781 153.21875 239.019531 151.792969 L 234.492188 154.402344 C 234.410156 154.460938 234.3125 154.496094 234.203125 154.496094 C 233.933594 154.496094 233.710938 154.273438 233.710938 154.003906 L 233.710938 147.953125 L 233.714844 147.953125 C 233.714844 147.785156 233.800781 147.621094 233.960938 147.53125" fill-rule="evenodd"/><path fill="#FF6" d="M 236.71875 143.078125 L 231.234375 146.238281 L 231.234375 159.136719 L 239.742188 154.234375 C 239.976562 154.101562 240.277344 154.179688 240.414062 154.414062 C 240.449219 154.480469 240.472656 154.550781 240.476562 154.621094 C 240.625 155.757812 240.738281 156.921875 240.816406 158.113281 C 240.890625 159.285156 240.925781 160.5 240.925781 161.757812 C 240.925781 176.292969 235.824219 192.382812 227.570312 206.65625 C 219.320312 220.921875 207.914062 233.378906 195.304688 240.648438 C 187.101562 245.378906 179.386719 247.332031 172.699219 246.824219 C 165.722656 246.292969 159.871094 243.082031 155.746094 237.546875 C 155.582031 237.328125 155.628906 237.019531 155.847656 236.859375 C 155.871094 236.84375 155.894531 236.828125 155.917969 236.816406 L 161.289062 233.71875 L 161.289062 228.3125 L 153.5 232.804688 C 153.261719 232.941406 152.960938 232.859375 152.824219 232.625 L 152.804688 232.585938 C 151.625 230.050781 150.710938 227.199219 150.097656 224.054688 C 149.503906 221.003906 149.191406 217.667969 149.191406 214.066406 C 149.191406 199.535156 154.296875 183.441406 162.550781 169.171875 C 170.800781 154.902344 182.207031 142.445312 194.816406 135.175781 C 195.847656 134.582031 196.875 134.03125 197.890625 133.523438 C 206.230469 129.351562 213.976562 128.101562 220.535156 129.433594 C 227.128906 130.769531 232.515625 134.707031 236.09375 140.894531 L 236.109375 140.921875 C 236.390625 141.414062 236.660156 141.914062 236.921875 142.429688 C 237.039062 142.667969 236.949219 142.953125 236.71875 143.078125 Z M 230.496094 145.53125 L 235.832031 142.457031 C 235.648438 142.101562 235.457031 141.753906 235.257812 141.414062 L 235.242188 141.386719 C 231.808594 135.449219 226.652344 131.675781 220.339844 130.394531 C 213.992188 129.105469 206.464844 130.332031 198.332031 134.398438 C 197.332031 134.898438 196.320312 135.441406 195.304688 136.027344 C 182.851562 143.203125 171.570312 155.535156 163.402344 169.664062 C 155.230469 183.792969 150.175781 199.710938 150.175781 214.066406 C 150.175781 217.597656 150.480469 220.871094 151.066406 223.871094 C 151.625 226.734375 152.433594 229.34375 153.476562 231.683594 L 161.535156 227.035156 C 161.609375 226.996094 161.691406 226.96875 161.78125 226.96875 C 162.054688 226.96875 162.273438 227.191406 162.273438 227.460938 L 162.273438 234 C 162.273438 234.171875 162.183594 234.335938 162.027344 234.425781 L 156.871094 237.398438 C 160.796875 242.429688 166.277344 245.347656 172.773438 245.84375 C 179.269531 246.339844 186.789062 244.425781 194.8125 239.800781 C 207.265625 232.621094 218.546875 220.292969 226.71875 206.160156 C 234.890625 192.03125 239.945312 176.113281 239.945312 161.757812 C 239.945312 160.542969 239.90625 159.347656 239.832031 158.171875 C 239.773438 157.242188 239.691406 156.339844 239.589844 155.457031 L 231.019531 160.398438 C 230.941406 160.449219 230.84375 160.484375 230.742188 160.484375 C 230.46875 160.484375 230.25 160.261719 230.25 159.988281 L 230.25 145.957031 C 230.25 145.789062 230.339844 145.625 230.496094 145.53125" fill-rule="evenodd"/><path fill="#FF6" d="M 235.730469 141.367188 C 236.675781 140.816406 236.996094 139.621094 236.453125 138.675781 C 235.90625 137.734375 234.703125 137.414062 233.757812 137.953125 C 232.960938 138.417969 232.609375 139.339844 232.84375 140.1875 L 227.035156 143.535156 C 226.886719 143.621094 226.792969 143.777344 226.785156 143.941406 L 226.785156 165.976562 C 226.785156 166.378906 227.242188 166.597656 227.554688 166.386719 L 238.933594 159.828125 C 239.546875 160.453125 240.527344 160.609375 241.328125 160.15625 C 242.269531 159.605469 242.589844 158.414062 242.050781 157.464844 C 241.5 156.523438 240.300781 156.203125 239.351562 156.742188 C 238.558594 157.207031 238.203125 158.128906 238.4375 158.976562 L 227.773438 165.125 L 227.773438 144.246094 L 233.335938 141.039062 C 233.953125 141.664062 234.933594 141.820312 235.730469 141.367188 Z M 152.941406 230.839844 C 152.007812 231.382812 150.78125 231.058594 150.246094 230.121094 C 149.699219 229.183594 150.027344 227.96875 150.96875 227.429688 C 151.753906 226.972656 152.75 227.132812 153.363281 227.753906 L 164.972656 221.0625 C 165.285156 220.851562 165.738281 221.070312 165.738281 221.472656 L 165.738281 236.015625 C 165.730469 236.183594 165.636719 236.339844 165.492188 236.421875 L 160.34375 239.390625 C 160.578125 240.234375 160.226562 241.15625 159.429688 241.621094 C 158.484375 242.164062 157.28125 241.84375 156.734375 240.902344 C 156.191406 239.953125 156.515625 238.761719 157.457031 238.210938 C 158.257812 237.753906 159.238281 237.910156 159.851562 238.535156 L 164.75 235.710938 L 164.75 222.328125 L 153.855469 228.605469 C 154.089844 229.449219 153.734375 230.386719 152.941406 230.839844" fill-rule="evenodd"/><path fill="#FF6" d="M 228.183594 140.054688 C 228.960938 140.816406 230.207031 140.808594 230.972656 140.035156 C 231.738281 139.253906 231.722656 138.019531 230.953125 137.25 C 230.273438 136.585938 229.238281 136.507812 228.476562 137.011719 C 224.820312 134.011719 220.5 132.449219 215.675781 132.164062 C 208.316406 131.773438 201.105469 134.425781 194.8125 138.039062 C 190.507812 140.519531 186.457031 143.578125 182.78125 146.929688 L 182.78125 145.070312 C 182.78125 144.636719 182.261719 144.417969 181.953125 144.710938 C 178.457031 147.90625 175.253906 151.355469 172.265625 155.027344 C 165.925781 162.855469 160.664062 171.597656 156.683594 180.847656 C 155.375 183.898438 154.210938 186.988281 153.199219 190.152344 C 153.175781 190.222656 153.171875 190.289062 153.175781 190.351562 L 153.175781 192.167969 C 153.175781 192.574219 153.632812 192.792969 153.941406 192.582031 L 154.84375 192.0625 C 152.886719 198.738281 151.683594 205.667969 151.675781 212.636719 C 151.675781 216.566406 152.066406 220.546875 153.046875 224.359375 C 153.140625 224.722656 153.542969 224.816406 153.800781 224.648438 L 168.214844 216.339844 L 168.214844 237.707031 L 164.417969 239.894531 C 164.273438 239.976562 164.179688 240.136719 164.175781 240.300781 C 164.167969 240.5 164.269531 240.660156 164.417969 240.746094 C 169.707031 243.804688 175.691406 244.269531 181.609375 243.132812 C 186.460938 242.191406 191.039062 240.242188 195.304688 237.785156 C 202.921875 233.398438 209.664062 227.265625 215.324219 220.582031 C 215.96875 219.824219 216.597656 219.054688 217.21875 218.277344 L 217.21875 220.191406 C 217.21875 220.628906 217.75 220.851562 218.054688 220.542969 L 218.09375 220.5 C 223.65625 213.59375 228.371094 205.957031 232.117188 197.921875 C 232.160156 197.835938 232.171875 197.746094 232.164062 197.664062 L 232.164062 192.679688 C 235.761719 183.800781 238.1875 174.195312 238.429688 164.59375 C 238.433594 164.335938 238.4375 164.082031 238.441406 163.824219 C 238.441406 163.589844 238.285156 163.390625 238.054688 163.339844 C 237.929688 163.3125 237.804688 163.335938 237.703125 163.394531 L 225.226562 170.585938 C 224.609375 169.957031 223.628906 169.804688 222.832031 170.257812 C 221.886719 170.808594 221.566406 172 222.109375 172.949219 C 222.65625 173.890625 223.859375 174.210938 224.804688 173.671875 C 225.601562 173.207031 225.953125 172.285156 225.71875 171.4375 L 237.4375 164.683594 C 237.191406 174.152344 234.761719 183.640625 231.21875 192.386719 C 231.191406 192.445312 231.175781 192.511719 231.175781 192.582031 L 231.175781 197.605469 C 227.675781 205.101562 223.308594 212.257812 218.203125 218.777344 L 218.203125 216.851562 C 218.203125 216.738281 218.164062 216.628906 218.089844 216.535156 C 217.886719 216.292969 217.511719 216.300781 217.320312 216.550781 C 211.480469 224.109375 204.417969 231.039062 196.257812 236.074219 C 195.777344 236.367188 195.296875 236.652344 194.8125 236.933594 C 191 239.125 186.957031 240.898438 182.664062 241.902344 C 176.890625 243.234375 170.957031 243.074219 165.671875 240.3125 L 168.921875 238.4375 C 168.96875 238.414062 169.011719 238.382812 169.054688 238.34375 C 169.148438 238.242188 169.199219 238.132812 169.199219 237.992188 L 169.199219 215.488281 C 169.199219 215.109375 168.792969 214.871094 168.460938 215.058594 L 153.847656 223.484375 C 153.003906 219.9375 152.660156 216.277344 152.660156 212.636719 C 152.671875 205.351562 154.007812 198.117188 156.140625 191.167969 C 156.15625 191.125 156.164062 191.078125 156.167969 191.035156 C 156.179688 190.644531 155.765625 190.394531 155.425781 190.589844 L 154.164062 191.316406 L 154.164062 190.378906 C 156.722656 182.40625 160.277344 174.773438 164.617188 167.617188 C 169.386719 159.78125 175.101562 152.488281 181.792969 146.199219 L 181.792969 148.058594 C 181.796875 148.082031 181.796875 148.109375 181.800781 148.132812 C 181.867188 148.527344 182.332031 148.6875 182.625 148.417969 C 186.503906 144.796875 190.707031 141.546875 195.308594 138.890625 C 200.863281 135.703125 207.113281 133.285156 213.589844 133.117188 C 218.910156 133.003906 223.777344 134.445312 227.816406 137.746094 C 227.425781 138.492188 227.554688 139.429688 228.183594 140.054688" fill-rule="evenodd"/><path fill="#FF6" d="M 174.140625 209.5 C 174.140625 208.414062 173.253906 207.527344 172.167969 207.527344 C 171.082031 207.527344 170.195312 208.414062 170.195312 209.5 C 170.195312 210.414062 170.828125 211.1875 171.675781 211.40625 L 171.675781 238.125 C 171.675781 238.371094 171.847656 238.550781 172.050781 238.601562 L 172.050781 238.605469 C 177.726562 239.996094 183.644531 238.960938 189.003906 236.855469 C 191.183594 235.996094 193.273438 234.960938 195.304688 233.796875 C 196.609375 233.042969 197.878906 232.238281 199.121094 231.386719 C 205.699219 226.867188 211.398438 221.109375 216.269531 214.820312 L 220.679688 209.109375 L 220.679688 215.644531 C 220.679688 216.082031 221.210938 216.300781 221.519531 215.996094 C 221.539062 215.972656 221.558594 215.953125 221.574219 215.929688 C 224.148438 212.359375 226.507812 208.617188 228.640625 204.761719 C 228.695312 204.667969 228.710938 204.566406 228.699219 204.472656 L 228.699219 193.550781 L 229.171875 192.386719 C 232.074219 185.25 234.128906 177.652344 234.777344 169.960938 C 234.796875 169.75 234.667969 169.539062 234.46875 169.460938 C 234.3125 169.402344 234.15625 169.425781 234.03125 169.5 L 220.847656 177.097656 L 220.847656 140.253906 L 222.089844 139.539062 C 222.238281 139.457031 222.332031 139.296875 222.335938 139.132812 C 222.34375 138.921875 222.226562 138.753906 222.0625 138.671875 C 216.714844 136.058594 210.804688 136.128906 205.152344 137.636719 C 201.515625 138.613281 198.070312 140.160156 194.8125 142.03125 C 190.527344 144.496094 186.589844 147.550781 182.980469 150.914062 L 179.320312 154.339844 L 179.320312 148.410156 C 179.320312 147.976562 178.785156 147.753906 178.480469 148.0625 L 178.472656 148.066406 C 175.1875 151.410156 172.160156 155 169.371094 158.765625 C 164.3125 165.617188 160.046875 173.039062 156.679688 180.859375 C 156.648438 180.925781 156.636719 180.996094 156.640625 181.066406 L 156.640625 186.183594 C 156.640625 186.585938 157.09375 186.804688 157.40625 186.59375 L 160.101562 185.039062 L 158.378906 190.621094 C 156.574219 196.492188 155.386719 202.582031 155.171875 208.726562 C 154.304688 208.933594 153.65625 209.714844 153.65625 210.640625 C 153.65625 211.726562 154.542969 212.609375 155.628906 212.609375 C 156.714844 212.609375 157.605469 211.726562 157.605469 210.640625 C 157.605469 209.738281 156.988281 208.972656 156.160156 208.742188 C 156.371094 202.695312 157.542969 196.691406 159.324219 190.914062 L 161.410156 184.140625 C 161.425781 184.097656 161.433594 184.050781 161.433594 184.007812 C 161.449219 183.617188 161.03125 183.367188 160.695312 183.558594 L 157.625 185.328125 L 157.625 181.15625 C 161.929688 171.179688 167.75 161.769531 174.816406 153.507812 C 175.957031 152.183594 177.125 150.890625 178.332031 149.628906 L 178.332031 155.476562 C 178.332031 155.503906 178.335938 155.527344 178.335938 155.554688 C 178.402344 155.945312 178.867188 156.105469 179.164062 155.835938 L 183.65625 151.632812 C 187.199219 148.316406 191.097656 145.316406 195.308594 142.882812 C 198.226562 141.203125 201.296875 139.796875 204.527344 138.835938 C 209.882812 137.253906 215.589844 136.941406 220.769531 139.164062 L 220.140625 139.523438 C 220.09375 139.546875 220.050781 139.578125 220.007812 139.621094 C 219.914062 139.71875 219.863281 139.832031 219.863281 139.972656 L 219.863281 177.953125 C 219.863281 178.328125 220.269531 178.566406 220.601562 178.378906 L 233.710938 170.824219 C 232.988281 178.089844 231 185.265625 228.257812 192.015625 L 227.753906 193.257812 C 227.730469 193.316406 227.714844 193.382812 227.714844 193.457031 L 227.714844 204.398438 C 225.859375 207.738281 223.847656 210.960938 221.667969 214.09375 L 221.667969 207.664062 C 221.667969 207.550781 221.628906 207.441406 221.550781 207.347656 C 221.351562 207.105469 220.976562 207.113281 220.78125 207.363281 L 215.488281 214.21875 C 210.082031 221.21875 203.503906 227.65625 195.925781 232.28125 C 195.554688 232.507812 195.1875 232.726562 194.8125 232.941406 C 188.453125 236.597656 180.769531 239.269531 173.363281 237.882812 C 173.128906 237.835938 172.894531 237.789062 172.664062 237.734375 L 172.664062 211.40625 C 173.511719 211.1875 174.140625 210.414062 174.140625 209.5" fill-rule="evenodd"/><path fill="#FF6" d="M 222.773438 210.367188 C 222.773438 211.449219 223.660156 212.335938 224.746094 212.335938 C 225.832031 212.335938 226.71875 211.449219 226.71875 210.367188 C 226.71875 209.453125 226.085938 208.679688 225.238281 208.460938 L 225.238281 194.421875 L 226.21875 192.007812 C 228.277344 186.9375 229.835938 181.71875 230.738281 176.320312 C 230.808594 175.851562 230.28125 175.605469 229.960938 175.835938 L 218.300781 182.558594 C 217.683594 181.933594 216.703125 181.777344 215.90625 182.234375 C 214.964844 182.785156 214.640625 183.976562 215.183594 184.925781 C 215.730469 185.867188 216.933594 186.183594 217.878906 185.644531 C 218.675781 185.179688 219.027344 184.257812 218.792969 183.414062 L 229.582031 177.191406 C 228.679688 182.140625 227.199219 186.980469 225.304688 191.636719 L 224.292969 194.128906 C 224.265625 194.1875 224.25 194.253906 224.25 194.328125 L 224.25 208.460938 C 223.402344 208.679688 222.773438 209.453125 222.773438 210.367188 Z M 212.484375 210.984375 C 213.152344 210.121094 214.386719 209.964844 215.253906 210.625 C 216.113281 211.300781 216.277344 212.519531 215.609375 213.390625 C 215.042969 214.121094 214.0625 214.34375 213.25 213.988281 C 208.238281 220.175781 202.214844 225.808594 195.320312 229.796875 L 195.304688 229.804688 C 189.441406 233.179688 182.394531 235.621094 175.550781 234.5 C 175.332031 234.460938 175.140625 234.277344 175.140625 234.015625 L 175.140625 204.363281 L 159.539062 213.355469 C 159.347656 213.464844 159.09375 213.449219 158.917969 213.253906 C 158.851562 213.175781 158.8125 213.078125 158.800781 212.976562 C 158.660156 211.546875 158.601562 210.082031 158.601562 208.644531 C 158.601562 202.449219 159.746094 196.285156 161.558594 190.375 L 165.371094 178.011719 L 160.867188 180.605469 C 160.554688 180.816406 160.101562 180.597656 160.101562 180.195312 L 160.101562 173.808594 C 160.09375 173.71875 160.109375 173.625 160.15625 173.527344 L 160.542969 172.792969 C 164.535156 165.285156 169.359375 158.183594 174.992188 151.804688 L 175.015625 151.777344 C 175.324219 151.472656 175.855469 151.691406 175.855469 152.128906 L 175.855469 162.898438 L 175.363281 162.898438 L 175.699219 163.257812 C 175.632812 163.316406 175.546875 163.367188 175.457031 163.378906 C 175.105469 163.449219 174.847656 163.152344 174.871094 162.855469 L 174.871094 153.445312 C 169.511719 159.683594 164.890625 166.59375 161.089844 173.875 L 161.089844 179.339844 L 165.964844 176.53125 C 166.300781 176.339844 166.714844 176.585938 166.703125 176.976562 C 166.703125 177.023438 166.695312 177.070312 166.679688 177.109375 L 162.5 190.664062 C 160.714844 196.445312 159.585938 202.585938 159.585938 208.644531 L 159.585938 208.652344 C 159.585938 209.8125 159.628906 210.964844 159.71875 212.117188 L 175.386719 203.085938 C 175.71875 202.894531 176.125 203.132812 176.125 203.511719 L 176.125 233.59375 C 182.609375 234.511719 189.265625 232.140625 194.8125 228.949219 C 201.601562 225.027344 207.542969 219.46875 212.476562 213.375 C 211.953125 212.683594 211.929688 211.710938 212.484375 210.984375" fill-rule="evenodd"/><path fill="#FF6" d="M 181.066406 197.523438 C 181.066406 196.441406 180.179688 195.554688 179.09375 195.554688 C 178.007812 195.554688 177.121094 196.441406 177.121094 197.523438 C 177.121094 198.4375 177.753906 199.210938 178.601562 199.429688 L 178.601562 229.769531 C 178.601562 230.058594 178.835938 230.25 179.082031 230.261719 C 184.765625 230.671875 190.445312 228.609375 195.304688 225.8125 L 195.320312 225.804688 C 202.058594 221.910156 207.867188 216.277344 212.605469 210.15625 L 221.671875 198.414062 C 221.742188 198.328125 221.777344 198.222656 221.777344 198.117188 L 221.777344 195.292969 L 223.265625 191.625 C 224.402344 188.828125 225.371094 185.976562 226.140625 183.058594 L 226.160156 182.988281 C 226.277344 182.527344 225.753906 182.214844 225.40625 182.457031 L 213.921875 189.074219 L 213.921875 146.402344 C 213.921875 146.148438 213.746094 145.96875 213.535156 145.921875 C 208.972656 144.945312 204.246094 145.820312 199.964844 147.507812 C 198.179688 148.214844 196.476562 149.058594 194.8125 150.015625 L 194.804688 150.019531 C 191.265625 152.066406 188.027344 154.558594 185.039062 157.351562 L 172.394531 169.179688 L 172.394531 156.273438 C 172.394531 155.835938 171.863281 155.617188 171.554688 155.921875 L 171.515625 155.96875 C 168.660156 159.566406 166.042969 163.359375 163.664062 167.289062 L 163.644531 167.34375 L 163.636719 167.335938 C 163.574219 167.4375 163.554688 167.542969 163.5625 167.640625 L 163.5625 172.300781 C 162.714844 172.519531 162.085938 173.292969 162.085938 174.207031 C 162.085938 175.292969 162.972656 176.175781 164.058594 176.175781 C 165.144531 176.175781 166.03125 175.292969 166.03125 174.207031 C 166.03125 173.292969 165.398438 172.519531 164.550781 172.300781 L 164.550781 167.726562 C 166.652344 164.261719 168.9375 160.917969 171.40625 157.707031 L 171.40625 170.277344 C 171.386719 170.570312 171.644531 170.871094 171.996094 170.800781 C 172.085938 170.785156 172.171875 170.738281 172.238281 170.675781 L 185.714844 158.070312 C 188.652344 155.324219 191.824219 152.882812 195.308594 150.867188 C 200.53125 147.863281 206.855469 145.664062 212.9375 146.804688 L 212.9375 189.925781 C 212.9375 190.304688 213.34375 190.542969 213.675781 190.351562 L 224.890625 183.890625 C 224.183594 186.386719 223.332031 188.851562 222.351562 191.253906 L 220.832031 195 C 220.804688 195.058594 220.789062 195.125 220.789062 195.199219 L 220.789062 197.949219 L 211.824219 209.554688 C 207.167969 215.578125 201.441406 221.132812 194.8125 224.960938 C 190.257812 227.582031 184.921875 229.566406 179.585938 229.304688 L 179.585938 199.429688 C 180.4375 199.210938 181.066406 198.4375 181.066406 197.523438" fill-rule="evenodd"/><path fill="#FF6" d="M 166.765625 200.074219 L 182.3125 191.113281 C 182.546875 190.976562 182.847656 191.058594 182.980469 191.292969 C 183.027344 191.371094 183.046875 191.453125 183.046875 191.539062 L 183.050781 191.539062 L 183.050781 224.839844 C 184.785156 224.746094 186.605469 224.402344 188.488281 223.804688 C 190.542969 223.15625 192.664062 222.207031 194.8125 220.96875 C 197.511719 219.414062 200.164062 217.457031 202.714844 215.148438 C 205.261719 212.84375 207.707031 210.1875 209.996094 207.222656 L 217.328125 197.726562 L 217.328125 196.070312 C 217.328125 196.003906 217.339844 195.941406 217.363281 195.882812 L 219.308594 191.097656 L 210.214844 196.339844 C 209.980469 196.476562 209.679688 196.394531 209.542969 196.160156 C 209.496094 196.082031 209.476562 195.996094 209.476562 195.914062 L 209.476562 151.023438 C 207.421875 150.84375 205.226562 151.054688 202.925781 151.648438 C 200.480469 152.28125 197.921875 153.351562 195.308594 154.855469 C 193.847656 155.699219 192.394531 156.660156 190.964844 157.734375 C 189.542969 158.800781 188.132812 159.988281 186.746094 161.285156 L 174.121094 173.09375 L 168.855469 190.167969 C 168.28125 192.03125 167.8125 193.871094 167.449219 195.675781 C 167.152344 197.160156 166.921875 198.625 166.765625 200.074219 Z M 182.0625 192.386719 L 166.464844 201.378906 C 166.375 201.441406 166.261719 201.476562 166.140625 201.464844 C 165.867188 201.441406 165.667969 201.203125 165.691406 200.933594 C 165.84375 199.167969 166.109375 197.347656 166.484375 195.484375 C 166.855469 193.640625 167.332031 191.765625 167.914062 189.878906 L 173.214844 172.695312 C 173.238281 172.613281 173.28125 172.53125 173.351562 172.46875 L 186.070312 160.570312 C 187.476562 159.253906 188.914062 158.042969 190.375 156.949219 C 191.84375 155.847656 193.328125 154.863281 194.8125 154.007812 L 194.816406 154.007812 C 197.511719 152.453125 200.148438 151.351562 202.679688 150.699219 C 205.253906 150.03125 207.714844 149.828125 209.996094 150.085938 C 210.257812 150.101562 210.460938 150.316406 210.460938 150.578125 L 210.460938 195.0625 L 220.042969 189.539062 C 220.167969 189.46875 220.324219 189.449219 220.46875 189.507812 C 220.722656 189.605469 220.847656 189.886719 220.75 190.140625 L 220.535156 190.691406 L 220.3125 191.242188 L 218.3125 196.167969 L 218.3125 197.875 C 218.316406 197.988281 218.28125 198.101562 218.210938 198.195312 L 210.773438 207.824219 C 208.453125 210.828125 205.964844 213.53125 203.371094 215.875 C 200.765625 218.234375 198.058594 220.234375 195.304688 221.820312 C 193.082031 223.097656 190.898438 224.074219 188.785156 224.746094 C 186.65625 225.417969 184.589844 225.785156 182.613281 225.84375 C 182.59375 225.84375 182.574219 225.84375 182.558594 225.84375 C 182.285156 225.84375 182.0625 225.625 182.0625 225.351562 L 182.0625 192.386719" fill-rule="evenodd"/><path fill="#FF6" d="M 171.042969 193.613281 L 185.773438 185.125 C 186.007812 184.988281 186.308594 185.070312 186.445312 185.304688 C 186.496094 185.390625 186.515625 185.484375 186.511719 185.578125 L 186.511719 220.148438 C 187.734375 219.9375 188.992188 219.59375 190.28125 219.121094 C 191.761719 218.578125 193.277344 217.863281 194.8125 216.976562 C 197.1875 215.609375 199.519531 213.890625 201.761719 211.859375 C 204 209.835938 206.152344 207.5 208.164062 204.890625 L 212.867188 198.800781 L 206.75 202.328125 C 206.515625 202.460938 206.214844 202.378906 206.078125 202.144531 C 206.035156 202.066406 206.015625 201.984375 206.015625 201.902344 L 206.011719 201.902344 L 206.011719 155.429688 C 204.445312 155.480469 202.800781 155.761719 201.09375 156.285156 C 199.222656 156.855469 197.28125 157.710938 195.304688 158.847656 C 194.023438 159.585938 192.75 160.433594 191.484375 161.378906 C 190.234375 162.320312 188.996094 163.359375 187.773438 164.503906 L 176.667969 174.894531 L 172.035156 189.917969 C 171.792969 190.707031 171.566406 191.507812 171.359375 192.320312 C 171.246094 192.757812 171.140625 193.191406 171.042969 193.613281 Z M 185.527344 186.402344 L 170.578125 195.019531 C 170.476562 195.074219 170.355469 195.097656 170.234375 195.074219 C 169.96875 195.023438 169.796875 194.761719 169.847656 194.496094 C 170.015625 193.671875 170.199219 192.867188 170.402344 192.074219 C 170.605469 191.28125 170.835938 190.464844 171.09375 189.628906 L 175.761719 174.492188 C 175.785156 174.410156 175.828125 174.332031 175.898438 174.265625 L 187.097656 163.789062 C 188.339844 162.625 189.609375 161.5625 190.894531 160.59375 C 192.1875 159.625 193.5 158.757812 194.816406 158 C 196.859375 156.820312 198.867188 155.9375 200.808594 155.34375 C 202.769531 154.746094 204.664062 154.445312 206.460938 154.441406 L 206.503906 154.441406 C 206.777344 154.441406 207 154.660156 207 154.933594 L 207 201.050781 L 214.070312 196.972656 C 214.152344 196.917969 214.25 196.882812 214.359375 196.882812 C 214.628906 196.882812 214.851562 197.105469 214.851562 197.375 L 214.851562 197.675781 L 214.847656 197.675781 C 214.847656 197.78125 214.816406 197.886719 214.746094 197.976562 L 208.941406 205.492188 C 206.898438 208.140625 204.703125 210.519531 202.421875 212.589844 C 200.121094 214.667969 197.734375 216.429688 195.304688 217.828125 C 193.71875 218.742188 192.152344 219.480469 190.621094 220.042969 C 189.074219 220.613281 187.554688 221.003906 186.085938 221.210938 C 186.066406 221.210938 186.042969 221.214844 186.019531 221.214844 C 185.746094 221.214844 185.527344 220.996094 185.527344 220.722656 L 185.527344 186.402344" fill-rule="evenodd"/><path fill="#FF6" d="M 176.132812 186.691406 L 189.234375 179.136719 C 189.46875 179 189.773438 179.082031 189.90625 179.316406 C 189.957031 179.402344 189.976562 179.496094 189.972656 179.589844 L 189.972656 215.152344 C 190.652344 214.941406 191.34375 214.683594 192.046875 214.378906 C 192.960938 213.984375 193.882812 213.519531 194.8125 212.984375 C 196.175781 212.199219 197.519531 211.285156 198.832031 210.246094 C 200.097656 209.246094 201.339844 208.128906 202.550781 206.902344 L 202.550781 160.09375 C 201.496094 160.269531 200.410156 160.558594 199.296875 160.960938 C 197.992188 161.433594 196.660156 162.058594 195.304688 162.839844 C 194.199219 163.476562 193.097656 164.207031 192.003906 165.027344 C 190.925781 165.835938 189.859375 166.734375 188.804688 167.71875 L 179.214844 176.691406 Z M 188.992188 180.414062 L 175.539062 188.167969 C 175.425781 188.230469 175.285156 188.253906 175.148438 188.210938 C 174.890625 188.132812 174.742188 187.855469 174.824219 187.597656 L 178.308594 176.292969 C 178.332031 176.207031 178.378906 176.128906 178.445312 176.0625 L 188.128906 167.003906 C 189.203125 166 190.300781 165.078125 191.417969 164.242188 C 192.535156 163.402344 193.671875 162.648438 194.816406 161.988281 C 196.222656 161.179688 197.609375 160.527344 198.960938 160.039062 C 200.324219 159.546875 201.652344 159.210938 202.9375 159.042969 C 202.972656 159.035156 203.007812 159.03125 203.042969 159.03125 C 203.316406 159.03125 203.535156 159.25 203.535156 159.523438 L 203.535156 207.101562 C 203.535156 207.226562 203.488281 207.347656 203.394531 207.445312 C 202.117188 208.75 200.796875 209.945312 199.441406 211.015625 C 198.085938 212.089844 196.699219 213.03125 195.304688 213.835938 C 194.335938 214.394531 193.375 214.878906 192.433594 215.285156 C 191.484375 215.691406 190.542969 216.027344 189.613281 216.285156 C 189.570312 216.296875 189.527344 216.300781 189.480469 216.300781 C 189.210938 216.300781 188.992188 216.082031 188.992188 215.8125 L 188.992188 180.414062" fill-rule="evenodd"/><path fill="#FF6" d="M 181.398438 179.660156 L 192.699219 173.148438 C 192.933594 173.015625 193.234375 173.09375 193.371094 173.328125 C 193.414062 173.40625 193.4375 173.492188 193.4375 173.574219 L 193.4375 209.730469 C 193.550781 209.675781 193.660156 209.617188 193.773438 209.5625 C 194.121094 209.382812 194.46875 209.195312 194.8125 208.992188 C 195.558594 208.566406 196.308594 208.082031 197.058594 207.542969 C 197.75 207.046875 198.425781 206.519531 199.085938 205.957031 L 199.085938 165.101562 C 198.578125 165.273438 198.0625 165.472656 197.539062 165.699219 C 196.804688 166.019531 196.0625 166.398438 195.308594 166.832031 L 195.28125 166.847656 C 194.359375 167.378906 193.4375 167.988281 192.527344 168.671875 C 191.621094 169.351562 190.71875 170.109375 189.832031 170.9375 L 181.761719 178.488281 Z M 192.449219 174.425781 L 180.808594 181.136719 C 180.695312 181.203125 180.554688 181.222656 180.417969 181.183594 C 180.15625 181.101562 180.011719 180.828125 180.089844 180.566406 L 180.855469 178.089844 C 180.878906 178.003906 180.925781 177.925781 180.992188 177.859375 L 189.160156 170.222656 C 190.066406 169.371094 190.996094 168.59375 191.9375 167.886719 C 192.875 167.183594 193.828125 166.550781 194.789062 165.996094 L 194.8125 165.980469 C 195.597656 165.53125 196.375 165.136719 197.144531 164.800781 C 197.90625 164.46875 198.660156 164.195312 199.402344 163.976562 C 199.457031 163.953125 199.515625 163.941406 199.582031 163.941406 C 199.851562 163.941406 200.074219 164.164062 200.074219 164.433594 L 200.074219 206.183594 C 200.074219 206.320312 200.015625 206.457031 199.902344 206.554688 C 199.152344 207.203125 198.394531 207.796875 197.632812 208.34375 C 196.878906 208.882812 196.097656 209.386719 195.304688 209.84375 C 194.941406 210.054688 194.578125 210.25 194.222656 210.433594 C 193.867188 210.613281 193.523438 210.78125 193.183594 210.933594 C 193.109375 210.972656 193.03125 210.996094 192.945312 210.996094 C 192.671875 210.996094 192.449219 210.773438 192.449219 210.503906 L 192.449219 174.425781" fill-rule="evenodd"/><path fill="#E07B07" d="M 184.976562 175.074219 L 178 171.050781 L 179.832031 169.996094 L 186.808594 174.015625 L 184.976562 175.074219" fill-rule="evenodd"/><path fill="#FC0" d="M 186.808594 174.015625 L 179.832031 169.996094 L 179.832031 161.503906 L 186.808594 165.523438 L 186.808594 174.015625" fill-rule="evenodd"/><path fill="#FC0" d="M 200.46875 166.140625 L 193.496094 162.121094 L 193.496094 153.628906 L 200.46875 157.648438 L 200.46875 166.140625" fill-rule="evenodd"/><path fill="#E07B07" d="M 195.945312 168.75 L 188.972656 164.730469 L 193.496094 162.121094 L 200.46875 166.140625 L 195.945312 168.75" fill-rule="evenodd"/><path fill="#E07B07" d="M 186.808594 165.523438 L 179.832031 161.503906 L 188.972656 156.238281 L 195.945312 160.257812 L 186.808594 165.523438" fill-rule="evenodd"/><path fill="#E07B07" d="M 200.46875 157.648438 L 193.496094 153.628906 L 202.632812 148.363281 L 209.605469 152.382812 L 200.46875 157.648438" fill-rule="evenodd"/><path fill="#E07B07" d="M 209.605469 160.898438 L 202.632812 156.878906 C 204.78125 155.683594 207.390625 154.269531 209.652344 153.324219 L 216.628906 157.34375 C 214.367188 158.292969 211.753906 159.707031 209.605469 160.898438" fill-rule="evenodd"/><path fill="#E07B07" d="M 216.628906 157.34375 L 209.652344 153.324219 C 212.039062 152.367188 215.269531 151.554688 217.710938 152.789062 L 224.6875 156.808594 C 222.007812 155.636719 219.238281 156.300781 216.628906 157.34375" fill-rule="evenodd"/><path fill="#E07B07" d="M 220.574219 179.210938 L 213.601562 175.1875 C 215.816406 174.558594 218.621094 174.09375 220.761719 175.242188 L 227.734375 179.265625 C 225.476562 178.136719 222.914062 178.542969 220.574219 179.210938" fill-rule="evenodd"/><path fill="#FC0" d="M 200.46875 227.429688 L 193.496094 223.410156 L 193.496094 214.871094 L 200.46875 218.890625 L 200.46875 227.429688" fill-rule="evenodd"/><path fill="#FC0" d="M 186.808594 235.304688 L 179.832031 231.28125 L 179.832031 222.746094 L 186.808594 226.765625 L 186.808594 235.304688" fill-rule="evenodd"/><path fill="#FC0" d="M 178.980469 231.277344 L 172.003906 227.257812 L 172.003906 218.472656 L 178.980469 222.492188 L 178.980469 231.277344" fill-rule="evenodd"/><path fill="#E07B07" d="M 178.980469 222.492188 L 172.003906 218.472656 L 178 215.015625 L 184.976562 219.035156 L 178.980469 222.492188" fill-rule="evenodd"/><path fill="#FC0" d="M 184.976562 219.035156 L 178 215.015625 L 178 179.839844 L 184.976562 183.859375 L 184.976562 219.035156" fill-rule="evenodd"/><path fill="#FC0" d="M 178.980469 187.316406 L 172.003906 183.292969 L 172.003906 174.507812 L 178.980469 178.53125 L 178.980469 187.316406" fill-rule="evenodd"/><path fill="#E07B07" d="M 178.980469 178.53125 L 172.003906 174.507812 L 178 171.050781 L 184.976562 175.074219 L 178.980469 178.53125" fill-rule="evenodd"/><path fill="#E07B07" d="M 196.085938 189.59375 L 189.109375 185.570312 C 193.65625 182.953125 198.871094 180.042969 203.265625 177.304688 C 206.898438 175.042969 210.660156 171.410156 210.476562 166.777344 C 210.429688 165.59375 210.140625 164.476562 209.03125 163.90625 L 216.492188 168.234375 C 218.035156 169.554688 217.445312 172.78125 216.773438 174.386719 C 215.441406 177.59375 212.742188 179.792969 209.871094 181.554688 C 205.484375 184.257812 200.585938 187 196.085938 189.59375" fill-rule="evenodd"/><path fill="#E07B07" d="M 196.085938 212.503906 L 189.109375 208.484375 C 193.621094 205.882812 198.453125 203.171875 202.972656 200.457031 C 204.152344 199.746094 205.886719 198.691406 206.972656 197.867188 L 213.949219 201.886719 C 212.21875 203.203125 208.273438 205.476562 206.351562 206.585938 L 196.085938 212.503906" fill-rule="evenodd"/><path fill="#E07B07" d="M 213.949219 201.886719 L 206.972656 197.867188 C 208.640625 196.59375 209.898438 195.230469 210.996094 193.4375 L 217.96875 197.457031 C 216.875 199.25 215.617188 200.613281 213.949219 201.886719" fill-rule="evenodd"/><path fill="#E07B07" d="M 217.96875 197.457031 L 210.996094 193.4375 C 212.203125 191.386719 213.003906 188.546875 212.324219 186.246094 C 212.097656 185.476562 211.734375 184.925781 211.0625 184.488281 L 218.347656 188.726562 C 220.230469 190.28125 219.539062 194.234375 218.574219 196.316406 L 217.96875 197.457031" fill-rule="evenodd"/><path fill="#FF6" d="M 184.976562 175.074219 L 186.808594 174.015625 L 186.808594 165.523438 L 195.945312 160.257812 L 195.945312 168.75 L 200.46875 166.140625 L 200.46875 157.648438 L 209.605469 152.382812 L 209.605469 160.898438 C 212.625 159.21875 214.964844 158.035156 216.628906 157.34375 C 220.933594 155.566406 224.347656 155.835938 226.578125 158.179688 C 227.699219 159.359375 228.261719 161.101562 228.261719 163.371094 C 228.261719 168.347656 225.300781 174.421875 220.574219 179.210938 C 223.90625 178.234375 226.460938 178.359375 228.261719 179.578125 C 231.652344 181.894531 231.683594 187.742188 229.207031 194.015625 C 226.773438 200.171875 222.625 205.179688 217.011719 209 C 215.757812 209.847656 213.289062 211.367188 209.605469 213.554688 L 209.605469 222.164062 L 200.46875 227.429688 L 200.46875 218.890625 L 195.945312 221.5 L 195.945312 230.035156 L 186.808594 235.304688 L 186.808594 226.765625 L 178.980469 231.277344 L 178.980469 222.492188 L 184.976562 219.035156 L 184.976562 183.859375 L 178.980469 187.316406 L 178.980469 178.53125 Z M 198.207031 176.230469 L 196.085938 177.457031 L 196.085938 189.59375 C 199.773438 187.464844 209.207031 182.089844 211.367188 180.597656 C 214.980469 178.105469 217.460938 174.675781 217.460938 171.109375 C 217.460938 167.730469 215.441406 166.863281 211.890625 168.507812 C 210.15625 169.316406 202.378906 173.808594 198.207031 176.210938 Z M 196.085938 198.359375 L 196.085938 212.503906 L 206.351562 206.585938 C 210.335938 204.292969 212.875 202.714844 213.949219 201.886719 C 215.59375 200.644531 216.9375 199.171875 217.96875 197.457031 C 219.003906 195.734375 219.527344 193.945312 219.527344 192.066406 C 219.527344 188.9375 217.933594 187.550781 214.867188 188.292969 C 213.359375 188.660156 210.078125 190.292969 205.035156 193.199219 L 196.085938 198.359375" fill-rule="evenodd"/></svg>