<svg xmlns="http://www.w3.org/2000/svg" width="375" viewBox="0 0 375 375" height="375" version="1.0"><defs><clipPath id="a"><path d="M 128 58.695312 L 247 58.695312 L 247 178 L 128 178 Z M 128 58.695312"/></clipPath><clipPath id="b"><path d="M 73.53125 184 L 301.53125 184 L 301.53125 286.695312 L 73.53125 286.695312 Z M 73.53125 184"/></clipPath></defs><path fill="#FFA100" d="M 187.449219 13.449219 C 91.355469 13.449219 13.449219 91.351562 13.449219 187.449219 C 13.449219 283.546875 91.355469 361.449219 187.449219 361.449219 C 283.546875 361.449219 361.449219 283.546875 361.449219 187.449219 C 361.449219 91.351562 283.546875 13.449219 187.449219 13.449219"/><g clip-path="url(#a)"><path d="M 187.53125 177.253906 C 220.21875 177.253906 246.8125 150.660156 246.8125 117.976562 C 246.8125 85.289062 220.21875 58.695312 187.53125 58.695312 C 154.847656 58.695312 128.253906 85.289062 128.253906 117.976562 C 128.253906 150.660156 154.847656 177.253906 187.53125 177.253906 Z M 187.53125 67.816406 C 215.1875 67.816406 237.691406 90.320312 237.691406 117.976562 C 237.691406 145.632812 215.1875 168.136719 187.53125 168.136719 C 159.875 168.136719 137.371094 145.632812 137.371094 117.976562 C 137.371094 90.320312 159.875 67.816406 187.53125 67.816406 Z M 187.53125 67.816406"/></g><g clip-path="url(#b)"><path d="M 247.21875 185.003906 C 245.578125 183.992188 243.476562 184.121094 241.960938 185.339844 C 226.375 197.949219 207.550781 204.617188 187.53125 204.617188 C 167.515625 204.617188 148.695312 197.949219 133.109375 185.339844 C 131.609375 184.121094 129.496094 183.984375 127.851562 185.003906 C 93.839844 205.945312 73.53125 242.257812 73.53125 282.136719 C 73.53125 284.65625 75.574219 286.695312 78.09375 286.695312 L 296.972656 286.695312 C 299.496094 286.695312 301.53125 284.65625 301.53125 282.136719 C 301.53125 242.257812 281.226562 205.945312 247.21875 185.003906 Z M 82.75 277.574219 C 84.183594 243.734375 101.554688 213.125 129.972656 194.460938 C 146.511719 206.914062 166.820312 213.734375 187.53125 213.734375 C 208.25 213.734375 228.558594 206.914062 245.09375 194.460938 C 273.511719 213.125 290.878906 243.734375 292.316406 277.574219 Z M 82.75 277.574219"/></g></svg>