<svg xmlns="http://www.w3.org/2000/svg" width="375" viewBox="0 0 375 375" height="375" version="1.0"><defs><clipPath id="a"><path d="M 58.515625 163.578125 L 109 163.578125 L 109 211.578125 L 58.515625 211.578125 Z M 58.515625 163.578125"/></clipPath><clipPath id="b"><path d="M 110 163.578125 L 161 163.578125 L 161 211.578125 L 110 211.578125 Z M 110 163.578125"/></clipPath><clipPath id="c"><path d="M 163 163.578125 L 213 163.578125 L 213 211.578125 L 163 211.578125 Z M 163 163.578125"/></clipPath><clipPath id="d"><path d="M 214 163.578125 L 265 163.578125 L 265 211.578125 L 214 211.578125 Z M 214 163.578125"/></clipPath><clipPath id="e"><path d="M 267 163.578125 L 316.515625 163.578125 L 316.515625 211.578125 L 267 211.578125 Z M 267 163.578125"/></clipPath></defs><g clip-path="url(#a)"><path fill="#FFA100" d="M 105.273438 179.296875 L 92.148438 177.382812 L 86.277344 165.453125 C 85.746094 164.367188 84.636719 163.695312 83.382812 163.695312 C 82.125 163.695312 81.015625 164.367188 80.492188 165.445312 L 74.613281 177.382812 L 61.496094 179.292969 C 60.273438 179.472656 59.273438 180.316406 58.878906 181.515625 C 58.515625 182.6875 58.847656 183.988281 59.707031 184.8125 L 69.203125 194.101562 L 66.964844 207.210938 C 66.753906 208.414062 67.257812 209.660156 68.25 210.386719 C 68.804688 210.792969 69.460938 211.007812 70.144531 211.007812 C 70.664062 211.007812 71.179688 210.878906 71.648438 210.632812 L 83.382812 204.4375 L 95.144531 210.644531 C 96.195312 211.1875 97.492188 211.117188 98.539062 210.378906 C 99.523438 209.648438 100.015625 208.402344 99.800781 207.222656 L 97.5625 194.105469 L 107.03125 184.839844 C 107.921875 184 108.257812 182.695312 107.871094 181.476562 C 107.472656 180.304688 106.480469 179.472656 105.273438 179.296875 Z M 64.148438 183.210938 L 77.4375 181.269531 L 83.386719 169.1875 L 89.332031 181.269531 L 102.621094 183.210938 L 93.003906 192.613281 L 95.273438 205.898438 L 83.386719 199.628906 L 71.5 205.902344 L 73.765625 192.617188 Z M 64.148438 183.210938"/></g><g clip-path="url(#b)"><path fill="#FFA100" d="M 157.464844 179.296875 L 144.34375 177.382812 L 138.472656 165.453125 C 137.945312 164.367188 136.832031 163.695312 135.578125 163.695312 C 134.320312 163.695312 133.210938 164.367188 132.6875 165.445312 L 126.8125 177.382812 L 113.691406 179.296875 C 112.472656 179.472656 111.476562 180.3125 111.082031 181.496094 C 110.703125 182.667969 111.027344 183.976562 111.898438 184.8125 L 121.398438 194.101562 L 119.152344 207.242188 C 118.957031 208.453125 119.445312 209.648438 120.453125 210.398438 C 121.007812 210.792969 121.660156 211.007812 122.339844 211.007812 C 122.863281 211.007812 123.382812 210.875 123.835938 210.632812 L 135.574219 204.4375 L 147.328125 210.640625 C 148.382812 211.191406 149.703125 211.105469 150.726562 210.378906 C 151.710938 209.652344 152.207031 208.40625 151.996094 207.222656 L 149.753906 194.105469 L 159.238281 184.824219 C 160.125 183.976562 160.453125 182.667969 160.070312 181.496094 C 159.691406 180.335938 158.667969 179.472656 157.464844 179.296875 Z M 116.34375 183.210938 L 129.632812 181.269531 L 135.578125 169.183594 L 141.523438 181.269531 L 154.8125 183.210938 L 145.195312 192.617188 L 147.460938 205.902344 L 135.574219 199.628906 L 123.683594 205.902344 L 125.957031 192.617188 Z M 116.34375 183.210938"/></g><g clip-path="url(#c)"><path fill="#FFA100" d="M 210.199219 179.296875 L 197.078125 177.382812 L 191.207031 165.453125 C 190.679688 164.371094 189.570312 163.695312 188.3125 163.695312 C 187.054688 163.695312 185.945312 164.367188 185.417969 165.445312 L 179.546875 177.382812 L 166.425781 179.296875 C 165.21875 179.472656 164.199219 180.335938 163.820312 181.492188 C 163.433594 182.675781 163.761719 183.988281 164.636719 184.8125 L 174.132812 194.101562 L 171.886719 207.226562 C 171.683594 208.4375 172.171875 209.648438 173.171875 210.386719 C 173.730469 210.792969 174.386719 211.007812 175.070312 211.007812 C 175.59375 211.007812 176.113281 210.875 176.570312 210.632812 L 188.3125 204.4375 L 200.050781 210.632812 C 201.097656 211.191406 202.453125 211.105469 203.46875 210.375 C 204.445312 209.644531 204.9375 208.398438 204.730469 207.222656 L 202.488281 194.105469 L 211.972656 184.824219 C 212.859375 183.976562 213.183594 182.671875 212.800781 181.492188 C 212.414062 180.316406 211.417969 179.472656 210.199219 179.296875 Z M 169.078125 183.210938 L 182.367188 181.269531 L 188.3125 169.183594 L 194.257812 181.269531 L 207.550781 183.210938 L 197.929688 192.617188 L 200.199219 205.898438 L 188.3125 199.628906 L 176.421875 205.902344 L 178.695312 192.617188 Z M 169.078125 183.210938"/></g><g clip-path="url(#d)"><path fill="#FFA100" d="M 261.34375 179.296875 L 248.222656 177.382812 L 242.347656 165.441406 C 241.816406 164.363281 240.707031 163.695312 239.457031 163.695312 C 238.203125 163.695312 237.09375 164.367188 236.566406 165.445312 L 230.695312 177.382812 L 217.578125 179.292969 C 216.351562 179.472656 215.355469 180.316406 214.96875 181.492188 C 214.585938 182.667969 214.90625 183.976562 215.777344 184.8125 L 225.277344 194.101562 L 223.03125 207.226562 C 222.828125 208.445312 223.320312 209.65625 224.320312 210.386719 C 224.871094 210.792969 225.527344 211.007812 226.214844 211.007812 C 226.734375 211.007812 227.253906 210.875 227.714844 210.632812 L 239.457031 204.4375 L 251.21875 210.648438 C 252.277344 211.1875 253.585938 211.105469 254.601562 210.378906 C 255.59375 209.644531 256.078125 208.4375 255.875 207.222656 L 253.636719 194.109375 L 263.132812 184.816406 C 264.007812 183.964844 264.324219 182.660156 263.949219 181.515625 C 263.578125 180.339844 262.550781 179.472656 261.34375 179.296875 Z M 220.214844 183.210938 L 233.507812 181.269531 L 239.453125 169.183594 L 245.402344 181.269531 L 258.691406 183.210938 L 249.074219 192.613281 L 251.339844 205.902344 L 239.453125 199.628906 L 227.566406 205.902344 L 229.839844 192.617188 Z M 220.214844 183.210938"/></g><g clip-path="url(#e)"><path fill="#FFA100" d="M 316.152344 181.492188 C 315.769531 180.332031 314.75 179.472656 313.546875 179.296875 L 300.421875 177.382812 L 294.550781 165.453125 C 294.023438 164.367188 292.914062 163.695312 291.660156 163.695312 C 290.40625 163.695312 289.300781 164.363281 288.765625 165.445312 L 282.894531 177.382812 L 269.769531 179.292969 C 268.554688 179.472656 267.554688 180.3125 267.164062 181.492188 C 266.78125 182.667969 267.105469 183.976562 267.976562 184.8125 L 277.476562 194.101562 L 275.234375 207.226562 C 275.03125 208.445312 275.519531 209.65625 276.523438 210.390625 C 277.078125 210.792969 277.734375 211.007812 278.414062 211.007812 C 278.9375 211.007812 279.457031 210.875 279.914062 210.632812 L 291.652344 204.4375 L 303.414062 210.644531 C 304.46875 211.1875 305.773438 211.113281 306.804688 210.378906 C 307.785156 209.65625 308.28125 208.410156 308.074219 207.222656 L 305.835938 194.105469 L 315.300781 184.839844 C 316.195312 184 316.527344 182.695312 316.152344 181.492188 Z M 272.417969 183.210938 L 285.710938 181.269531 L 291.65625 169.1875 L 297.601562 181.269531 L 310.890625 183.210938 L 301.277344 192.617188 L 303.542969 205.898438 L 291.65625 199.628906 L 279.765625 205.898438 L 282.035156 192.617188 Z M 272.417969 183.210938"/></g></svg>