<svg xmlns="http://www.w3.org/2000/svg" width="375" viewBox="0 0 375 375" height="375" version="1.0"><path fill="#FAC250" d="M 246.636719 161.183594 C 246.636719 161.183594 223.1875 130.226562 210.792969 118.769531 C 206.277344 114.597656 196.082031 109.511719 186.585938 109.511719 L 111.570312 109.511719 C 101.351562 109.511719 89.695312 136.460938 76.789062 151.171875 C 73.695312 154.695312 71.769531 170.003906 71.769531 170.003906 L 68.433594 182.074219 L 68.433594 190.976562 C 68.433594 190.976562 68.71875 201.777344 66.589844 205.648438 C 64.460938 209.515625 64.578125 231.007812 68.433594 231.007812 L 296.371094 231.007812 C 310.777344 231.007812 310.804688 221.351562 307.9375 209.730469 C 304.203125 194.605469 292.003906 179.238281 284.039062 175.777344 C 271.941406 170.523438 246.636719 161.183594 246.636719 161.183594"/><path fill="#040505" d="M 246.636719 161.183594 L 247.738281 160.355469 C 247.730469 160.351562 241.863281 152.597656 234.433594 143.40625 C 230.726562 138.8125 226.621094 133.851562 222.664062 129.320312 C 218.703125 124.789062 214.890625 120.679688 211.722656 117.753906 C 209.296875 115.519531 205.523438 113.15625 201.089844 111.308594 C 196.65625 109.460938 191.585938 108.132812 186.585938 108.132812 L 111.570312 108.132812 C 109.984375 108.132812 108.449219 108.652344 106.980469 109.503906 C 104.410156 111.003906 101.960938 113.5 99.457031 116.605469 C 95.710938 121.257812 91.882812 127.292969 87.929688 133.371094 C 83.976562 139.4375 79.898438 145.535156 75.75 150.261719 C 75.230469 150.859375 74.816406 151.585938 74.433594 152.417969 C 73.765625 153.867188 73.203125 155.644531 72.707031 157.535156 C 71.234375 163.191406 70.40625 169.804688 70.402344 169.832031 L 71.769531 170.003906 L 70.4375 169.640625 L 67.101562 181.703125 C 67.066406 181.828125 67.054688 181.945312 67.054688 182.074219 L 67.054688 191.089844 C 67.058594 191.253906 67.0625 191.667969 67.0625 192.261719 C 67.0625 193.714844 67.019531 196.269531 66.773438 198.792969 C 66.648438 200.054688 66.472656 201.304688 66.238281 202.390625 C 66.003906 203.488281 65.699219 204.414062 65.378906 204.984375 C 65.054688 205.585938 64.847656 206.261719 64.65625 207.074219 C 64.375 208.28125 64.171875 209.773438 64.035156 211.441406 C 63.898438 213.109375 63.828125 214.945312 63.824219 216.820312 C 63.828125 220.316406 64.070312 223.925781 64.621094 226.75 C 64.902344 228.171875 65.246094 229.394531 65.75 230.386719 C 66.011719 230.882812 66.308594 231.332031 66.734375 231.71875 C 66.949219 231.902344 67.199219 232.070312 67.488281 232.195312 C 67.773438 232.316406 68.101562 232.386719 68.433594 232.386719 L 296.371094 232.386719 C 298.96875 232.386719 301.171875 232.089844 303.039062 231.496094 C 304.433594 231.046875 305.644531 230.433594 306.660156 229.664062 C 308.191406 228.503906 309.253906 226.980469 309.902344 225.277344 C 310.550781 223.566406 310.804688 221.675781 310.804688 219.675781 C 310.804688 216.511719 310.171875 213.027344 309.273438 209.398438 C 307.351562 201.605469 303.289062 193.855469 298.6875 187.566406 C 296.390625 184.417969 293.949219 181.640625 291.550781 179.40625 C 289.148438 177.171875 286.804688 175.480469 284.589844 174.515625 C 278.5 171.867188 269.140625 168.21875 261.292969 165.21875 C 253.453125 162.226562 247.121094 159.894531 247.113281 159.894531 L 246.636719 161.183594 L 247.742188 160.355469 L 246.636719 161.183594 L 246.160156 162.480469 C 246.160156 162.480469 246.554688 162.625 247.273438 162.886719 C 249.777344 163.820312 256.195312 166.210938 263.3125 168.941406 C 270.425781 171.679688 278.238281 174.757812 283.492188 177.046875 C 285.257812 177.8125 287.425781 179.328125 289.667969 181.425781 C 293.039062 184.5625 296.613281 188.972656 299.660156 193.972656 C 302.707031 198.972656 305.246094 204.566406 306.597656 210.0625 C 307.46875 213.578125 308.054688 216.875 308.046875 219.675781 C 308.046875 221.242188 307.867188 222.648438 307.472656 223.847656 C 307.183594 224.75 306.785156 225.539062 306.253906 226.222656 C 305.445312 227.25 304.347656 228.070312 302.75 228.675781 C 301.15625 229.277344 299.054688 229.628906 296.371094 229.628906 L 68.433594 229.628906 L 68.433594 229.957031 L 68.5625 229.65625 L 68.433594 229.628906 L 68.433594 229.957031 L 68.5625 229.65625 L 68.511719 229.78125 L 68.585938 229.664062 L 68.5625 229.65625 L 68.511719 229.78125 L 68.585938 229.664062 L 68.519531 229.605469 C 68.445312 229.523438 68.320312 229.351562 68.1875 229.089844 C 67.960938 228.632812 67.71875 227.929688 67.515625 227.074219 C 67.207031 225.792969 66.972656 224.160156 66.816406 222.386719 C 66.660156 220.613281 66.585938 218.703125 66.585938 216.820312 C 66.585938 214.414062 66.710938 212.070312 66.9375 210.164062 C 67.050781 209.214844 67.191406 208.363281 67.347656 207.695312 C 67.496094 207.027344 67.683594 206.523438 67.796875 206.316406 L 67.800781 206.308594 C 68.320312 205.359375 68.664062 204.21875 68.933594 202.980469 C 69.335938 201.125 69.554688 199.019531 69.679688 197.089844 C 69.800781 195.152344 69.824219 193.390625 69.824219 192.261719 C 69.824219 191.449219 69.8125 190.949219 69.8125 190.9375 L 68.433594 190.976562 L 69.8125 190.976562 L 69.8125 182.261719 L 73.101562 170.378906 L 73.140625 170.179688 C 73.140625 170.179688 73.144531 170.128906 73.164062 170.019531 C 73.269531 169.191406 73.789062 165.378906 74.640625 161.398438 C 75.058594 159.40625 75.566406 157.371094 76.128906 155.679688 C 76.410156 154.832031 76.703125 154.066406 77 153.445312 C 77.292969 152.824219 77.59375 152.34375 77.828125 152.082031 C 81.125 148.320312 84.300781 143.839844 87.382812 139.21875 C 92 132.292969 96.414062 125.074219 100.574219 119.652344 C 102.652344 116.941406 104.664062 114.6875 106.542969 113.167969 C 107.480469 112.402344 108.382812 111.824219 109.226562 111.445312 C 110.066406 111.074219 110.839844 110.894531 111.570312 110.894531 L 186.585938 110.894531 C 191.089844 110.886719 195.863281 112.105469 200.027344 113.84375 C 204.195312 115.582031 207.765625 117.851562 209.855469 119.785156 C 212.890625 122.582031 216.664062 126.644531 220.589844 131.136719 C 226.472656 137.878906 232.71875 145.605469 237.484375 151.640625 C 239.863281 154.660156 241.878906 157.253906 243.300781 159.09375 C 244.011719 160.019531 244.570312 160.75 244.953125 161.246094 C 245.335938 161.75 245.539062 162.019531 245.539062 162.019531 C 245.699219 162.226562 245.914062 162.390625 246.160156 162.480469 L 246.636719 161.183594"/><path fill="#F69110" d="M 65.769531 208.550781 C 64.789062 221.089844 65.207031 231.070312 68.433594 231.484375 L 296.371094 231.484375 C 305.554688 231.484375 312.769531 228.722656 307.632812 208.550781 L 65.769531 208.550781"/><path fill="#040505" d="M 65.769531 208.550781 L 64.394531 208.441406 C 64.09375 212.28125 63.921875 215.894531 63.921875 219.089844 C 63.925781 222.746094 64.140625 225.835938 64.683594 228.1875 C 64.957031 229.359375 65.308594 230.359375 65.835938 231.1875 C 66.105469 231.601562 66.425781 231.972656 66.835938 232.277344 C 67.234375 232.574219 67.730469 232.785156 68.253906 232.847656 L 68.433594 232.863281 L 296.371094 232.863281 C 298.191406 232.863281 299.96875 232.757812 301.644531 232.429688 C 302.90625 232.171875 304.113281 231.792969 305.226562 231.207031 C 306.886719 230.332031 308.328125 228.980469 309.273438 227.089844 C 310.234375 225.207031 310.722656 222.839844 310.722656 219.898438 C 310.722656 216.757812 310.171875 212.929688 308.964844 208.207031 C 308.8125 207.597656 308.261719 207.171875 307.632812 207.171875 L 65.769531 207.171875 C 65.054688 207.171875 64.453125 207.722656 64.398438 208.441406 L 65.773438 208.550781 L 65.773438 209.929688 L 307.632812 209.929688 L 307.632812 208.550781 L 306.296875 208.890625 C 307.460938 213.460938 307.964844 217.082031 307.964844 219.898438 C 307.964844 222.25 307.613281 224.027344 307.042969 225.367188 C 306.613281 226.367188 306.070312 227.125 305.414062 227.730469 C 304.433594 228.640625 303.171875 229.234375 301.632812 229.605469 C 300.097656 229.972656 298.304688 230.105469 296.371094 230.105469 L 68.433594 230.105469 L 68.4375 231.484375 L 68.613281 230.117188 C 68.574219 230.109375 68.550781 230.105469 68.472656 230.054688 C 68.347656 229.964844 68.089844 229.664062 67.851562 229.097656 C 67.488281 228.253906 67.175781 226.898438 66.976562 225.191406 C 66.777344 223.476562 66.683594 221.414062 66.683594 219.089844 C 66.683594 215.992188 66.851562 212.449219 67.152344 208.65625 L 65.773438 208.550781 L 65.773438 209.929688 L 65.773438 208.550781"/><path fill="#D3D2D2" d="M 177.621094 183.164062 C 177.621094 184.476562 176.46875 185.535156 175.046875 185.535156 L 161.777344 185.535156 C 160.355469 185.535156 159.210938 184.476562 159.210938 183.164062 C 159.210938 181.847656 160.355469 180.785156 161.777344 180.785156 L 175.046875 180.785156 C 176.46875 180.785156 177.621094 181.847656 177.621094 183.164062"/><path fill="#040505" d="M 177.621094 183.164062 L 176.242188 183.164062 C 176.242188 183.40625 176.136719 183.625 175.929688 183.828125 C 175.722656 184.019531 175.414062 184.15625 175.046875 184.15625 L 161.777344 184.15625 C 161.414062 184.15625 161.109375 184.019531 160.894531 183.828125 C 160.6875 183.625 160.589844 183.40625 160.589844 183.164062 C 160.589844 182.917969 160.6875 182.6875 160.894531 182.496094 C 161.109375 182.300781 161.414062 182.164062 161.777344 182.164062 L 175.046875 182.164062 C 175.414062 182.164062 175.722656 182.300781 175.929688 182.496094 C 176.136719 182.6875 176.242188 182.917969 176.242188 183.164062 L 179 183.164062 C 179 182.09375 178.523438 181.128906 177.800781 180.46875 C 177.082031 179.796875 176.101562 179.40625 175.046875 179.40625 L 161.777344 179.40625 C 160.722656 179.40625 159.742188 179.796875 159.027344 180.46875 C 158.308594 181.128906 157.824219 182.09375 157.832031 183.164062 C 157.824219 184.226562 158.308594 185.191406 159.027344 185.855469 C 159.742188 186.523438 160.722656 186.917969 161.777344 186.917969 L 175.046875 186.917969 C 176.101562 186.917969 177.082031 186.515625 177.800781 185.855469 C 178.523438 185.191406 179 184.226562 179 183.164062 L 177.621094 183.164062"/><path fill="#3D4D57" d="M 168.03125 118.402344 L 194.425781 118.402344 C 197.199219 118.402344 204.378906 121.902344 207.261719 124.714844 C 211.65625 129.019531 229.871094 155.695312 235.539062 160.496094 C 238.601562 163.082031 231.429688 172.902344 225.289062 172.902344 L 174.351562 172.902344 C 163.875 172.902344 161.054688 168.886719 161.054688 161.910156 L 161.054688 124.804688 C 161.054688 121.019531 165.414062 118.402344 168.03125 118.402344"/><path fill="#040505" d="M 168.03125 118.402344 L 168.03125 119.785156 L 194.425781 119.785156 C 194.628906 119.785156 194.957031 119.816406 195.363281 119.90625 C 196.070312 120.058594 196.984375 120.355469 197.984375 120.753906 C 199.476562 121.347656 201.136719 122.167969 202.640625 123.058594 C 204.144531 123.941406 205.484375 124.902344 206.296875 125.699219 C 206.765625 126.164062 207.515625 127.023438 208.425781 128.15625 C 211.640625 132.128906 216.917969 139.390625 222 146.164062 C 224.539062 149.554688 227.042969 152.824219 229.222656 155.535156 C 230.316406 156.886719 231.324219 158.09375 232.234375 159.109375 C 233.144531 160.128906 233.945312 160.941406 234.648438 161.542969 C 234.726562 161.613281 234.765625 161.667969 234.808594 161.777344 C 234.855469 161.882812 234.890625 162.046875 234.890625 162.273438 C 234.898438 162.859375 234.621094 163.832031 234.0625 164.875 C 233.222656 166.441406 231.785156 168.171875 230.160156 169.445312 C 229.351562 170.089844 228.496094 170.621094 227.664062 170.976562 C 226.828125 171.335938 226.015625 171.523438 225.289062 171.523438 L 174.351562 171.523438 C 171.820312 171.523438 169.796875 171.273438 168.226562 170.832031 C 167.039062 170.507812 166.117188 170.066406 165.386719 169.558594 C 164.296875 168.777344 163.597656 167.839844 163.121094 166.585938 C 162.652344 165.335938 162.433594 163.769531 162.433594 161.910156 L 162.433594 124.804688 C 162.433594 124.128906 162.625 123.5 162.972656 122.902344 C 163.488281 121.996094 164.378906 121.183594 165.355469 120.632812 C 165.847656 120.347656 166.351562 120.136719 166.820312 119.988281 C 167.28125 119.84375 167.714844 119.78125 168.03125 119.78125 L 168.03125 117.023438 C 167.148438 117.03125 166.238281 117.230469 165.335938 117.589844 C 163.976562 118.121094 162.621094 118.996094 161.542969 120.195312 C 161.003906 120.804688 160.542969 121.488281 160.207031 122.257812 C 159.875 123.03125 159.675781 123.894531 159.675781 124.804688 L 159.675781 161.910156 C 159.675781 163.75 159.859375 165.441406 160.34375 166.984375 C 160.707031 168.144531 161.246094 169.210938 162.003906 170.148438 C 163.144531 171.550781 164.75 172.605469 166.785156 173.28125 C 168.828125 173.957031 171.300781 174.28125 174.351562 174.28125 L 225.289062 174.28125 C 226.882812 174.273438 228.421875 173.757812 229.835938 172.976562 C 231.960938 171.796875 233.84375 170.011719 235.253906 168.109375 C 235.960938 167.15625 236.546875 166.175781 236.964844 165.199219 C 237.378906 164.21875 237.640625 163.253906 237.648438 162.273438 C 237.648438 161.765625 237.574219 161.253906 237.375 160.757812 C 237.179688 160.265625 236.863281 159.796875 236.433594 159.441406 C 235.820312 158.921875 234.9375 158.011719 233.910156 156.847656 C 232.117188 154.792969 229.847656 151.929688 227.414062 148.75 C 223.757812 143.96875 219.71875 138.460938 216.226562 133.785156 C 214.476562 131.453125 212.867188 129.320312 211.511719 127.589844 C 210.828125 126.726562 210.207031 125.957031 209.660156 125.3125 C 209.109375 124.660156 208.640625 124.136719 208.226562 123.726562 C 207.398438 122.929688 206.351562 122.140625 205.179688 121.382812 C 203.414062 120.246094 201.378906 119.183594 199.476562 118.390625 C 198.53125 117.988281 197.613281 117.660156 196.765625 117.417969 C 195.917969 117.183594 195.15625 117.03125 194.425781 117.023438 L 168.03125 117.023438 L 168.03125 118.402344"/><path fill="#3D4D57" d="M 140.300781 118.75 L 113.039062 118.75 C 106.625 118.75 98.039062 138.375 89.882812 148.425781 C 83.945312 155.742188 89.738281 168.261719 95.753906 168.261719 C 108.582031 168.261719 117.976562 169.804688 133.957031 170.460938 C 144.210938 170.875 147.136719 168.445312 147.136719 161.605469 L 147.136719 125.019531 C 147.136719 121.308594 142.867188 118.75 140.300781 118.75"/><path fill="#040505" d="M 140.300781 118.75 L 140.300781 117.371094 L 113.039062 117.371094 C 111.878906 117.375 110.796875 117.804688 109.789062 118.453125 C 108.03125 119.597656 106.375 121.429688 104.660156 123.6875 C 102.101562 127.074219 99.460938 131.417969 96.785156 135.742188 C 94.117188 140.066406 91.410156 144.363281 88.8125 147.554688 C 86.824219 150.003906 86.011719 152.964844 86.015625 155.832031 C 86.023438 159.253906 87.128906 162.585938 88.839844 165.148438 C 89.703125 166.433594 90.71875 167.53125 91.875 168.328125 C 93.03125 169.128906 94.351562 169.640625 95.753906 169.640625 C 102.109375 169.640625 107.621094 170.019531 113.5625 170.488281 C 119.507812 170.957031 125.878906 171.507812 133.902344 171.832031 C 134.652344 171.867188 135.371094 171.882812 136.054688 171.882812 C 138.265625 171.882812 140.121094 171.714844 141.714844 171.351562 C 142.902344 171.066406 143.949219 170.667969 144.847656 170.101562 C 146.199219 169.265625 147.183594 168.039062 147.742188 166.589844 C 148.308594 165.144531 148.515625 163.488281 148.515625 161.605469 L 148.515625 125.019531 C 148.515625 123.824219 148.164062 122.722656 147.625 121.785156 C 146.804688 120.375 145.570312 119.308594 144.273438 118.5625 C 143.625 118.183594 142.949219 117.894531 142.28125 117.6875 C 141.617188 117.488281 140.949219 117.371094 140.300781 117.371094 L 140.300781 120.128906 C 140.707031 120.128906 141.316406 120.246094 141.949219 120.492188 C 142.902344 120.859375 143.910156 121.519531 144.617188 122.320312 C 144.976562 122.726562 145.261719 123.15625 145.460938 123.609375 C 145.652344 124.058594 145.757812 124.519531 145.757812 125.019531 L 145.757812 161.605469 C 145.757812 163.101562 145.605469 164.316406 145.292969 165.246094 C 145.066406 165.941406 144.757812 166.488281 144.355469 166.949219 C 143.757812 167.625 142.902344 168.15625 141.550781 168.542969 C 140.203125 168.921875 138.382812 169.121094 136.054688 169.121094 C 135.410156 169.121094 134.734375 169.109375 134.011719 169.082031 C 126.050781 168.757812 119.734375 168.207031 113.785156 167.738281 C 107.824219 167.273438 102.222656 166.882812 95.753906 166.882812 C 95.035156 166.882812 94.253906 166.617188 93.445312 166.058594 C 92.234375 165.226562 91.03125 163.734375 90.171875 161.910156 C 89.304688 160.085938 88.773438 157.9375 88.773438 155.832031 C 88.777344 153.46875 89.425781 151.175781 90.957031 149.292969 C 93.054688 146.703125 95.144531 143.554688 97.207031 140.289062 C 100.300781 135.382812 103.34375 130.191406 106.164062 126.292969 C 107.570312 124.347656 108.921875 122.734375 110.136719 121.660156 C 110.742188 121.121094 111.308594 120.722656 111.804688 120.472656 C 112.292969 120.222656 112.707031 120.128906 113.039062 120.128906 L 140.300781 120.128906 L 140.300781 118.75"/><path fill="#C5C4C5" d="M 241.765625 261.457031 C 225.746094 261.457031 212.71875 248.414062 212.71875 232.398438 C 212.71875 216.378906 225.746094 203.34375 241.765625 203.34375 C 257.789062 203.34375 270.824219 216.378906 270.824219 232.398438 C 270.824219 248.414062 257.789062 261.457031 241.765625 261.457031"/><path fill="#040505" d="M 241.765625 261.457031 L 241.765625 260.078125 C 234.136719 260.070312 227.226562 256.972656 222.214844 251.960938 C 217.199219 246.9375 214.097656 240.027344 214.097656 232.398438 C 214.097656 224.765625 217.199219 217.855469 222.214844 212.839844 C 227.226562 207.828125 234.136719 204.730469 241.765625 204.722656 C 249.402344 204.730469 256.3125 207.828125 261.324219 212.839844 C 266.339844 217.855469 269.441406 224.765625 269.441406 232.398438 C 269.441406 240.027344 266.339844 246.9375 261.324219 251.960938 C 256.3125 256.972656 249.402344 260.070312 241.765625 260.078125 L 241.765625 262.835938 C 258.554688 262.828125 272.203125 249.179688 272.203125 232.398438 C 272.203125 215.613281 258.554688 201.972656 241.765625 201.964844 C 224.988281 201.972656 211.335938 215.613281 211.335938 232.398438 C 211.335938 249.179688 224.980469 262.828125 241.765625 262.835938 L 241.765625 261.457031"/><path fill="#28242C" d="M 241.765625 214.449219 C 231.871094 214.449219 223.8125 222.496094 223.8125 232.398438 C 223.8125 242.296875 231.871094 250.351562 241.765625 250.351562 C 251.671875 250.351562 259.71875 242.296875 259.71875 232.398438 C 259.71875 222.496094 251.671875 214.449219 241.765625 214.449219 Z M 241.765625 265.117188 C 223.722656 265.117188 209.046875 250.441406 209.046875 232.398438 C 209.046875 214.351562 223.722656 199.675781 241.765625 199.675781 C 259.816406 199.675781 274.492188 214.351562 274.492188 232.398438 C 274.492188 250.441406 259.816406 265.117188 241.765625 265.117188"/><path fill="#040505" d="M 241.765625 214.449219 L 241.765625 213.070312 C 231.105469 213.070312 222.441406 221.738281 222.433594 232.398438 C 222.441406 243.0625 231.105469 251.726562 241.765625 251.730469 C 252.429688 251.726562 261.097656 243.0625 261.097656 232.398438 C 261.097656 221.738281 252.4375 213.070312 241.765625 213.070312 L 241.765625 215.828125 C 246.339844 215.828125 250.476562 217.683594 253.484375 220.683594 C 256.484375 223.691406 258.339844 227.828125 258.339844 232.398438 C 258.339844 236.972656 256.484375 241.105469 253.484375 244.109375 C 250.476562 247.109375 246.339844 248.972656 241.765625 248.972656 C 237.199219 248.972656 233.0625 247.109375 230.054688 244.109375 C 227.046875 241.105469 225.195312 236.972656 225.195312 232.398438 C 225.195312 227.828125 227.046875 223.691406 230.054688 220.683594 C 233.0625 217.683594 237.199219 215.828125 241.765625 215.828125 Z M 241.765625 265.117188 L 241.765625 263.738281 C 233.125 263.738281 225.296875 260.230469 219.613281 254.550781 C 213.9375 248.871094 210.425781 241.042969 210.425781 232.398438 C 210.425781 223.75 213.9375 215.929688 219.613281 210.246094 C 225.296875 204.566406 233.125 201.054688 241.765625 201.054688 C 250.414062 201.054688 258.242188 204.566406 263.925781 210.246094 C 269.601562 215.929688 273.113281 223.75 273.113281 232.398438 C 273.113281 241.042969 269.601562 248.871094 263.925781 254.550781 C 258.242188 260.230469 250.414062 263.738281 241.765625 263.738281 L 241.765625 266.496094 C 260.574219 266.496094 275.871094 251.207031 275.871094 232.398438 C 275.871094 213.59375 260.574219 198.296875 241.765625 198.296875 C 222.964844 198.296875 207.667969 213.59375 207.667969 232.398438 C 207.667969 251.207031 222.964844 266.496094 241.765625 266.496094 L 241.765625 265.117188"/><path fill="#C5C4C5" d="M 120.238281 261.457031 C 104.21875 261.457031 91.1875 248.414062 91.1875 232.398438 C 91.1875 216.378906 104.21875 203.34375 120.238281 203.34375 C 136.261719 203.34375 149.289062 216.378906 149.289062 232.398438 C 149.289062 248.414062 136.261719 261.457031 120.238281 261.457031"/><path fill="#040505" d="M 120.238281 261.457031 L 120.238281 260.078125 C 112.605469 260.070312 105.695312 256.972656 100.675781 251.960938 C 95.664062 246.9375 92.566406 240.027344 92.566406 232.398438 C 92.566406 224.765625 95.664062 217.855469 100.675781 212.839844 C 105.695312 207.828125 112.605469 204.730469 120.238281 204.722656 C 127.867188 204.730469 134.777344 207.828125 139.796875 212.839844 C 144.8125 217.855469 147.910156 224.765625 147.910156 232.398438 C 147.910156 240.027344 144.8125 246.9375 139.796875 251.960938 C 134.777344 256.972656 127.867188 260.070312 120.238281 260.078125 L 120.238281 262.835938 C 137.023438 262.828125 150.667969 249.179688 150.667969 232.398438 C 150.667969 215.613281 137.019531 201.972656 120.238281 201.964844 C 103.453125 201.972656 89.808594 215.613281 89.804688 232.398438 C 89.808594 249.179688 103.453125 262.828125 120.238281 262.835938 L 120.238281 261.457031"/><path fill="#28242C" d="M 120.238281 214.449219 C 110.335938 214.449219 102.28125 222.496094 102.28125 232.398438 C 102.28125 242.296875 110.335938 250.351562 120.238281 250.351562 C 130.136719 250.351562 138.191406 242.296875 138.191406 232.398438 C 138.191406 222.496094 130.136719 214.449219 120.238281 214.449219 Z M 120.238281 265.117188 C 102.195312 265.117188 87.511719 250.441406 87.511719 232.398438 C 87.511719 214.351562 102.195312 199.675781 120.238281 199.675781 C 138.28125 199.675781 152.957031 214.351562 152.957031 232.398438 C 152.957031 250.441406 138.28125 265.117188 120.238281 265.117188"/><path fill="#040505" d="M 120.238281 214.449219 L 120.238281 213.070312 C 109.574219 213.070312 100.90625 221.738281 100.902344 232.398438 C 100.90625 243.0625 109.574219 251.726562 120.238281 251.730469 C 130.902344 251.726562 139.5625 243.0625 139.570312 232.398438 C 139.5625 221.738281 130.902344 213.070312 120.238281 213.070312 L 120.238281 215.828125 C 124.804688 215.828125 128.941406 217.683594 131.949219 220.683594 C 134.957031 223.691406 136.804688 227.828125 136.8125 232.398438 C 136.804688 236.972656 134.957031 241.105469 131.949219 244.109375 C 128.941406 247.109375 124.804688 248.972656 120.238281 248.972656 C 115.667969 248.972656 111.527344 247.109375 108.523438 244.109375 C 105.519531 241.105469 103.664062 236.972656 103.664062 232.398438 C 103.664062 227.828125 105.519531 223.691406 108.523438 220.683594 C 111.527344 217.683594 115.667969 215.828125 120.238281 215.828125 Z M 120.238281 265.117188 L 120.238281 263.738281 C 111.589844 263.738281 103.765625 260.230469 98.082031 254.550781 C 92.402344 248.871094 88.890625 241.042969 88.890625 232.398438 C 88.890625 223.75 92.402344 215.929688 98.082031 210.246094 C 103.765625 204.566406 111.589844 201.054688 120.238281 201.054688 C 128.878906 201.054688 136.707031 204.566406 142.390625 210.246094 C 148.066406 215.929688 151.578125 223.75 151.578125 232.398438 C 151.578125 241.042969 148.066406 248.871094 142.390625 254.550781 C 136.707031 260.230469 128.878906 263.738281 120.238281 263.738281 L 120.238281 266.496094 C 139.046875 266.496094 154.335938 251.207031 154.335938 232.398438 C 154.335938 213.59375 139.046875 198.296875 120.238281 198.296875 C 101.429688 198.296875 86.136719 213.59375 86.132812 232.398438 C 86.136719 251.207031 101.429688 266.496094 120.238281 266.496094 L 120.238281 265.117188"/><path fill="#F04523" d="M 75.03125 203.28125 L 66.589844 205.648438 C 66.589844 205.648438 66.960938 195.289062 68.976562 186.019531 C 71.179688 184.269531 72.042969 185.710938 74.386719 188.890625 C 76.730469 192.0625 75.03125 203.28125 75.03125 203.28125"/><path fill="#040505" d="M 75.03125 203.28125 L 74.65625 201.957031 L 66.21875 204.324219 L 66.589844 205.648438 L 67.96875 205.695312 C 67.96875 205.695312 67.96875 205.660156 67.972656 205.585938 C 68.015625 204.453125 68.464844 194.847656 70.324219 186.308594 L 68.976562 186.019531 L 69.832031 187.09375 C 70.09375 186.886719 70.300781 186.765625 70.4375 186.703125 C 70.574219 186.640625 70.625 186.640625 70.640625 186.640625 C 70.660156 186.648438 70.667969 186.632812 70.785156 186.703125 C 70.949219 186.792969 71.292969 187.101562 71.714844 187.625 C 72.136719 188.144531 72.652344 188.855469 73.277344 189.703125 C 73.402344 189.875 73.550781 190.15625 73.675781 190.535156 C 73.871094 191.101562 74.023438 191.859375 74.113281 192.714844 C 74.207031 193.570312 74.246094 194.523438 74.246094 195.488281 C 74.246094 197.351562 74.101562 199.261719 73.953125 200.695312 C 73.882812 201.414062 73.808594 202.011719 73.753906 202.433594 C 73.726562 202.640625 73.703125 202.804688 73.691406 202.917969 L 73.671875 203.039062 L 73.667969 203.082031 L 75.03125 203.28125 L 74.65625 201.957031 L 75.03125 203.28125 L 76.394531 203.488281 C 76.398438 203.453125 77 199.488281 77.003906 195.488281 C 77.003906 194.101562 76.933594 192.714844 76.722656 191.449219 C 76.621094 190.8125 76.480469 190.210938 76.289062 189.640625 C 76.09375 189.074219 75.847656 188.542969 75.496094 188.066406 C 74.671875 186.949219 74.027344 186.035156 73.339844 185.296875 C 72.996094 184.921875 72.632812 184.59375 72.191406 184.328125 C 71.757812 184.066406 71.210938 183.882812 70.640625 183.882812 C 70.167969 183.882812 69.714844 184.003906 69.300781 184.191406 C 68.882812 184.378906 68.503906 184.632812 68.117188 184.9375 C 67.867188 185.136719 67.695312 185.414062 67.625 185.722656 C 65.578125 195.15625 65.214844 205.558594 65.210938 205.597656 C 65.195312 206.039062 65.394531 206.460938 65.734375 206.730469 C 66.078125 207 66.539062 207.097656 66.960938 206.980469 L 75.402344 204.613281 C 75.925781 204.46875 76.3125 204.027344 76.394531 203.488281 L 75.03125 203.28125"/><path fill="#F04523" d="M 307.148438 206.917969 C 307.148438 206.917969 293.03125 208.234375 290.859375 206.234375 C 288.679688 204.21875 283.71875 200.289062 283.960938 195.453125 C 286.167969 193.703125 296.386719 188.441406 299.394531 191 C 303.265625 194.28125 307.148438 206.917969 307.148438 206.917969"/><path fill="#040505" d="M 307.148438 206.917969 L 307.015625 205.542969 C 307.015625 205.542969 306.953125 205.550781 306.824219 205.558594 C 305.914062 205.640625 301.96875 205.964844 298.242188 205.964844 C 296.636719 205.964844 295.066406 205.902344 293.84375 205.746094 C 293.238281 205.667969 292.710938 205.558594 292.339844 205.449219 C 292.152344 205.394531 292.007812 205.335938 291.914062 205.289062 L 291.808594 205.226562 L 291.789062 205.214844 C 291.230469 204.703125 290.546875 204.109375 289.824219 203.425781 C 288.738281 202.40625 287.582031 201.191406 286.726562 199.882812 C 285.871094 198.566406 285.328125 197.183594 285.328125 195.792969 C 285.328125 195.703125 285.332031 195.613281 285.332031 195.539062 L 283.960938 195.453125 L 284.816406 196.539062 C 285.152344 196.261719 285.898438 195.777344 286.835938 195.253906 C 288.242188 194.46875 290.121094 193.550781 291.988281 192.855469 C 292.917969 192.507812 293.851562 192.214844 294.710938 192.007812 C 295.574219 191.800781 296.375 191.6875 297.015625 191.6875 C 297.410156 191.6875 297.742188 191.730469 297.988281 191.804688 C 298.242188 191.875 298.394531 191.964844 298.507812 192.046875 C 299.238281 192.660156 300.167969 193.964844 301.03125 195.539062 C 302.332031 197.902344 303.546875 200.867188 304.417969 203.226562 C 304.859375 204.40625 305.210938 205.433594 305.449219 206.164062 C 305.574219 206.53125 305.671875 206.820312 305.734375 207.019531 C 305.769531 207.117188 305.789062 207.199219 305.804688 207.246094 L 305.832031 207.324219 L 307.148438 206.917969 L 307.015625 205.542969 L 307.148438 206.917969 L 308.464844 206.511719 C 308.457031 206.480469 307.480469 203.304688 305.996094 199.667969 C 305.257812 197.855469 304.394531 195.921875 303.445312 194.207031 C 302.492188 192.488281 301.484375 190.976562 300.292969 189.949219 C 299.824219 189.550781 299.285156 189.296875 298.726562 189.144531 C 298.175781 188.992188 297.601562 188.9375 297.015625 188.929688 C 295.761719 188.9375 294.421875 189.199219 293.0625 189.59375 C 291.023438 190.183594 288.925781 191.082031 287.148438 191.972656 C 286.257812 192.417969 285.445312 192.859375 284.761719 193.269531 C 284.070312 193.683594 283.519531 194.046875 283.097656 194.378906 C 282.796875 194.621094 282.609375 194.980469 282.582031 195.371094 C 282.574219 195.523438 282.566406 195.660156 282.566406 195.792969 C 282.566406 197.199219 282.925781 198.515625 283.476562 199.695312 C 284.296875 201.480469 285.527344 202.984375 286.738281 204.253906 C 287.945312 205.515625 289.160156 206.539062 289.917969 207.246094 C 290.417969 207.6875 290.960938 207.902344 291.546875 208.089844 C 292.421875 208.351562 293.449219 208.496094 294.59375 208.59375 C 295.734375 208.6875 296.980469 208.722656 298.242188 208.722656 C 302.671875 208.722656 307.25 208.289062 307.277344 208.289062 C 307.6875 208.246094 308.066406 208.027344 308.292969 207.683594 C 308.519531 207.335938 308.589844 206.902344 308.464844 206.511719 L 307.148438 206.917969"/><path fill="#FABA09" d="M 295.546875 198.785156 C 295.546875 201.054688 293.710938 202.890625 291.445312 202.890625 C 289.179688 202.890625 287.339844 201.054688 287.339844 198.785156 C 287.339844 196.523438 289.179688 194.683594 291.445312 194.683594 C 293.710938 194.683594 295.546875 196.523438 295.546875 198.785156"/><path fill="#040505" d="M 295.546875 198.785156 L 294.167969 198.785156 C 294.167969 199.539062 293.863281 200.214844 293.375 200.710938 C 292.878906 201.207031 292.203125 201.507812 291.445312 201.507812 C 290.683594 201.507812 290.015625 201.207031 289.519531 200.710938 C 289.023438 200.214844 288.71875 199.539062 288.71875 198.785156 C 288.71875 198.027344 289.023438 197.359375 289.519531 196.863281 C 290.015625 196.363281 290.683594 196.0625 291.445312 196.0625 C 292.203125 196.0625 292.878906 196.363281 293.375 196.863281 C 293.863281 197.359375 294.167969 198.027344 294.167969 198.785156 L 296.925781 198.785156 C 296.925781 195.757812 294.472656 193.300781 291.445312 193.300781 C 288.414062 193.300781 285.960938 195.757812 285.960938 198.785156 C 285.960938 201.8125 288.414062 204.269531 291.445312 204.269531 C 294.476562 204.269531 296.925781 201.8125 296.925781 198.785156 L 295.546875 198.785156"/></svg>