<svg xmlns="http://www.w3.org/2000/svg" width="375" viewBox="0 0 375 375" height="375" version="1.0"><defs><clipPath id="a"><path d="M 71.339844 104.589844 L 303.839844 104.589844 L 303.839844 270.339844 L 71.339844 270.339844 Z M 71.339844 104.589844"/></clipPath></defs><g clip-path="url(#a)"><path fill="#FFF" d="M 96.320312 104.589844 C 82.574219 104.589844 71.429688 115.703125 71.429688 129.453125 C 71.738281 167.152344 71.429688 207.058594 71.429688 245.476562 C 71.429688 258.710938 81.734375 269.417969 94.765625 270.210938 L 279.894531 270.339844 C 293.167969 269.804688 303.75 258.882812 303.75 245.476562 L 303.75 125.179688 C 301.734375 113.460938 291.546875 104.589844 279.246094 104.589844 C 218.304688 104.617188 157.289062 104.589844 96.320312 104.589844 Z M 95.933594 117.667969 L 280.023438 117.667969 L 190.957031 206.632812 C 189.332031 208.253906 186.75 208.253906 185.125 206.632812 L 95.929688 117.667969 Z M 291.304688 124.015625 L 291.304688 244.570312 C 291.304688 251.753906 288.714844 255.8125 283.527344 257.261719 L 220.777344 194.460938 Z M 85.304688 124.53125 L 154.664062 193.8125 L 91.269531 257.132812 C 86.929688 255.667969 85.417969 252.179688 85.304688 247.417969 Z M 163.480469 202.484375 L 185.128906 224.238281 C 186.753906 225.863281 189.339844 225.863281 190.964844 224.238281 L 211.964844 203.261719 L 266.675781 257.910156 L 107.992188 257.910156 Z M 163.480469 202.484375"/></g></svg>