<svg xmlns="http://www.w3.org/2000/svg" width="375" viewBox="0 0 375 375" height="375" version="1.0"><defs><clipPath id="a"><path d="M 77.695312 66.5 L 296 66.5 L 296 308.75 L 77.695312 308.75 Z M 77.695312 66.5"/></clipPath><clipPath id="b"><path d="M 223.621094 160.171875 L 297.332031 160.171875 L 297.332031 212.390625 L 223.621094 212.390625 Z M 223.621094 160.171875"/></clipPath></defs><g clip-path="url(#a)"><path fill="#FFF" d="M 261.097656 261.945312 L 251.808594 261.945312 L 251.808594 242.921875 C 251.8125 242.921875 251.816406 242.917969 251.820312 242.917969 C 255.011719 242.609375 258.117188 241.980469 261.097656 241.074219 Z M 242.402344 280.644531 L 233.117188 280.644531 L 233.117188 241.074219 C 236.09375 241.980469 239.195312 242.609375 242.386719 242.917969 C 242.394531 242.917969 242.398438 242.921875 242.402344 242.921875 Z M 223.710938 299.34375 L 87.199219 299.34375 L 87.199219 113.308594 L 223.710938 113.308594 L 223.710938 152.96875 C 209.867188 160.703125 200.222656 175.082031 199.101562 191.765625 C 199.101562 191.773438 199.101562 191.777344 199.101562 191.785156 C 199.070312 192.257812 199.042969 192.734375 199.027344 193.210938 C 199.023438 193.308594 199.019531 193.40625 199.015625 193.503906 C 199 194.007812 198.992188 194.507812 198.992188 195.015625 C 198.992188 195.519531 199 196.027344 199.015625 196.527344 C 199.019531 196.625 199.023438 196.722656 199.027344 196.824219 C 199.046875 197.300781 199.070312 197.773438 199.101562 198.246094 C 199.101562 198.253906 199.101562 198.261719 199.101562 198.269531 C 200.222656 214.949219 209.867188 229.328125 223.710938 237.066406 Z M 105.890625 94.609375 L 242.402344 94.609375 L 242.402344 147.109375 C 242.398438 147.109375 242.394531 147.113281 242.386719 147.113281 C 239.195312 147.425781 236.09375 148.050781 233.117188 148.960938 L 233.117188 108.605469 C 233.117188 106.007812 231.011719 103.902344 228.414062 103.902344 L 105.890625 103.902344 Z M 124.582031 75.910156 L 261.097656 75.910156 L 261.097656 148.945312 C 258.074219 148.027344 254.972656 147.414062 251.808594 147.109375 L 251.808594 89.90625 C 251.808594 87.308594 249.703125 85.203125 247.105469 85.203125 L 124.582031 85.203125 Z M 290.519531 190.3125 C 287.921875 190.3125 285.816406 192.417969 285.816406 195.015625 C 285.816406 210.238281 276.992188 223.429688 264.191406 229.753906 C 264.046875 229.808594 263.90625 229.859375 263.765625 229.925781 C 260.476562 231.5 257.066406 232.59375 253.570312 233.195312 C 253.542969 233.199219 253.515625 233.203125 253.488281 233.207031 C 252.878906 233.3125 252.265625 233.394531 251.648438 233.46875 C 251.539062 233.480469 251.429688 233.5 251.316406 233.507812 C 250.761719 233.574219 250.203125 233.613281 249.644531 233.648438 C 249.496094 233.660156 249.347656 233.675781 249.195312 233.6875 C 248.5 233.722656 247.804688 233.742188 247.105469 233.742188 C 246.40625 233.742188 245.707031 233.722656 245.015625 233.6875 C 244.863281 233.675781 244.710938 233.660156 244.558594 233.648438 C 244.003906 233.613281 243.449219 233.574219 242.894531 233.511719 C 242.78125 233.5 242.667969 233.480469 242.550781 233.46875 C 241.941406 233.394531 241.332031 233.3125 240.726562 233.207031 C 240.695312 233.203125 240.660156 233.195312 240.628906 233.191406 C 237.136719 232.589844 233.726562 231.5 230.441406 229.929688 C 218.066406 224 209.742188 211.847656 208.546875 198.363281 C 208.519531 198.03125 208.492188 197.703125 208.472656 197.375 C 208.457031 197.160156 208.449219 196.949219 208.4375 196.738281 C 208.414062 196.164062 208.394531 195.59375 208.394531 195.015625 C 208.394531 194.4375 208.414062 193.867188 208.4375 193.296875 C 208.449219 193.082031 208.457031 192.871094 208.472656 192.660156 C 208.492188 192.328125 208.519531 192 208.546875 191.667969 C 209.742188 178.183594 218.066406 166.03125 230.441406 160.105469 C 233.726562 158.53125 237.136719 157.441406 240.628906 156.839844 C 240.660156 156.835938 240.695312 156.828125 240.726562 156.824219 C 241.332031 156.722656 241.941406 156.640625 242.550781 156.566406 C 242.667969 156.554688 242.78125 156.535156 242.894531 156.519531 C 243.449219 156.460938 244.007812 156.417969 244.566406 156.382812 C 244.714844 156.371094 244.863281 156.355469 245.015625 156.347656 C 245.707031 156.308594 246.40625 156.289062 247.105469 156.289062 C 252.871094 156.289062 258.476562 157.574219 263.769531 160.105469 C 264.410156 160.410156 265.105469 160.566406 265.796875 160.566406 C 266.671875 160.566406 267.539062 160.320312 268.304688 159.839844 C 268.878906 159.480469 269.347656 159 269.710938 158.453125 C 269.769531 158.367188 269.828125 158.277344 269.882812 158.183594 C 269.902344 158.144531 269.925781 158.105469 269.945312 158.066406 C 269.984375 157.992188 270.027344 157.925781 270.0625 157.847656 C 270.445312 157.050781 270.578125 156.199219 270.5 155.375 L 270.5 71.207031 C 270.5 68.605469 268.394531 66.5 265.796875 66.5 L 119.882812 66.5 C 117.285156 66.5 115.179688 68.605469 115.179688 71.207031 L 115.179688 85.203125 L 101.1875 85.203125 C 98.59375 85.203125 96.488281 87.308594 96.488281 89.90625 L 96.488281 103.902344 L 82.496094 103.902344 C 79.898438 103.902344 77.796875 106.007812 77.796875 108.605469 L 77.796875 304.046875 C 77.796875 306.648438 79.898438 308.75 82.496094 308.75 L 228.414062 308.75 C 231.011719 308.75 233.117188 306.648438 233.117188 304.046875 L 233.117188 290.054688 L 247.105469 290.054688 C 249.703125 290.054688 251.808594 287.945312 251.808594 285.347656 L 251.808594 271.351562 L 265.796875 271.351562 C 268.394531 271.351562 270.5 269.246094 270.5 266.648438 L 270.5 237.066406 C 285.234375 228.828125 295.222656 213.066406 295.222656 195.015625 C 295.222656 192.417969 293.117188 190.3125 290.519531 190.3125"/></g><path fill="#FFF" d="M 192.839844 146.882812 L 110.910156 146.882812 C 108.3125 146.882812 106.210938 148.988281 106.210938 151.585938 C 106.210938 154.183594 108.3125 156.289062 110.910156 156.289062 L 192.839844 156.289062 C 195.4375 156.289062 197.539062 154.183594 197.539062 151.585938 C 197.539062 148.988281 195.4375 146.882812 192.839844 146.882812"/><path fill="#FFF" d="M 110.910156 185.242188 L 185.527344 185.242188 C 188.125 185.242188 190.230469 183.136719 190.230469 180.539062 C 190.230469 177.941406 188.125 175.835938 185.527344 175.835938 L 110.910156 175.835938 C 108.3125 175.835938 106.210938 177.941406 106.210938 180.539062 C 106.210938 183.136719 108.3125 185.242188 110.910156 185.242188"/><path fill="#FFF" d="M 110.910156 214.195312 L 185.527344 214.195312 C 188.125 214.195312 190.230469 212.089844 190.230469 209.492188 C 190.230469 206.894531 188.125 204.789062 185.527344 204.789062 L 110.910156 204.789062 C 108.3125 204.789062 106.210938 206.894531 106.210938 209.492188 C 106.210938 212.089844 108.3125 214.195312 110.910156 214.195312"/><path fill="#FFF" d="M 192.839844 233.746094 L 110.910156 233.746094 C 108.3125 233.746094 106.210938 235.851562 106.210938 238.449219 C 106.210938 241.046875 108.3125 243.152344 110.910156 243.152344 L 192.839844 243.152344 C 195.4375 243.152344 197.539062 241.046875 197.539062 238.449219 C 197.539062 235.851562 195.4375 233.746094 192.839844 233.746094"/><path fill="#FFF" d="M 192.839844 262.699219 L 110.910156 262.699219 C 108.3125 262.699219 106.210938 264.804688 106.210938 267.402344 C 106.210938 270.003906 108.3125 272.105469 110.910156 272.105469 L 192.839844 272.105469 C 195.4375 272.105469 197.539062 270.003906 197.539062 267.402344 C 197.539062 264.804688 195.4375 262.699219 192.839844 262.699219"/><g clip-path="url(#b)"><path fill="#FFF" d="M 296.074219 162.109375 C 294.308594 160.207031 291.339844 160.09375 289.429688 161.859375 L 247.785156 200.488281 L 232.214844 179.125 C 230.6875 177.027344 227.746094 176.5625 225.644531 178.097656 C 223.542969 179.628906 223.085938 182.566406 224.617188 184.667969 L 243.304688 210.304688 C 244.097656 211.390625 245.316406 212.085938 246.652344 212.214844 C 246.804688 212.226562 246.953125 212.238281 247.105469 212.238281 C 248.285156 212.238281 249.429688 211.792969 250.300781 210.984375 L 295.824219 168.753906 C 297.730469 166.988281 297.839844 164.015625 296.074219 162.109375"/></g></svg>