<svg xmlns="http://www.w3.org/2000/svg" width="375" viewBox="0 0 375 375" height="375" version="1.0"><defs><clipPath id="a"><path d="M 58.363281 53.234375 L 316.363281 53.234375 L 316.363281 321.734375 L 58.363281 321.734375 Z M 58.363281 53.234375"/></clipPath></defs><g clip-path="url(#a)"><path fill="#0E0E0E" d="M 306.484375 53.980469 L 294.898438 61.914062 C 234.308594 103.382812 172.265625 189.234375 141.3125 259.03125 C 136.53125 252.335938 135.085938 250.117188 130.453125 242.671875 C 111.53125 217.097656 87.539062 195.152344 76.152344 187.042969 L 58.363281 194.484375 L 58.925781 195.539062 C 71.207031 208.992188 92.761719 238.839844 125.242188 304.621094 C 127.234375 307.460938 129.359375 310.25 131.777344 312.851562 C 138.132812 319.664062 144.648438 321.097656 149 321.097656 C 149.003906 321.097656 149.003906 321.097656 149.003906 321.097656 C 161.40625 321.097656 168.71875 311.300781 173.75 299.832031 C 206.285156 179.023438 283.160156 95.851562 316.40625 67.367188 Z M 306.484375 53.980469"/></g></svg>