<svg xmlns="http://www.w3.org/2000/svg" width="375" viewBox="0 0 375 375" height="375" version="1.0"><defs><clipPath id="a"><path d="M 128 73.53125 L 247 73.53125 L 247 193 L 128 193 Z M 128 73.53125"/></clipPath><clipPath id="b"><path d="M 73.53125 199 L 301.53125 199 L 301.53125 301.53125 L 73.53125 301.53125 Z M 73.53125 199"/></clipPath></defs><g clip-path="url(#a)"><path fill="#FEFCFC" d="M 187.53125 192.09375 C 220.21875 192.09375 246.8125 165.5 246.8125 132.8125 C 246.8125 100.125 220.21875 73.53125 187.53125 73.53125 C 154.847656 73.53125 128.253906 100.125 128.253906 132.8125 C 128.253906 165.5 154.847656 192.09375 187.53125 192.09375 Z M 187.53125 82.652344 C 215.1875 82.652344 237.691406 105.15625 237.691406 132.8125 C 237.691406 160.46875 215.1875 182.972656 187.53125 182.972656 C 159.875 182.972656 137.371094 160.46875 137.371094 132.8125 C 137.371094 105.15625 159.875 82.652344 187.53125 82.652344 Z M 187.53125 82.652344"/></g><g clip-path="url(#b)"><path fill="#FEFCFC" d="M 247.21875 199.839844 C 245.578125 198.828125 243.476562 198.960938 241.960938 200.175781 C 226.375 212.785156 207.550781 219.453125 187.53125 219.453125 C 167.515625 219.453125 148.695312 212.785156 133.109375 200.175781 C 131.609375 198.960938 129.496094 198.824219 127.851562 199.839844 C 93.839844 220.785156 73.53125 257.09375 73.53125 296.972656 C 73.53125 299.496094 75.574219 301.53125 78.09375 301.53125 L 296.972656 301.53125 C 299.496094 301.53125 301.53125 299.496094 301.53125 296.972656 C 301.53125 257.09375 281.226562 220.785156 247.21875 199.839844 Z M 82.75 292.414062 C 84.183594 258.574219 101.554688 227.960938 129.972656 209.296875 C 146.511719 221.75 166.820312 228.574219 187.53125 228.574219 C 208.25 228.574219 228.558594 221.75 245.09375 209.296875 C 273.511719 227.960938 290.878906 258.574219 292.316406 292.414062 Z M 82.75 292.414062"/></g></svg>