<svg xmlns="http://www.w3.org/2000/svg" width="375" viewBox="0 0 375 375" height="375" version="1.0"><defs><clipPath id="a"><path d="M 70.777344 134 L 304 134 L 304 299.238281 L 70.777344 299.238281 Z M 70.777344 134"/></clipPath><clipPath id="b"><path d="M 70.777344 105 L 164 105 L 164 174 L 70.777344 174 Z M 70.777344 105"/></clipPath></defs><g clip-path="url(#a)"><path fill="#FEFCFC" d="M 269.941406 299.695312 L 104.859375 299.695312 C 86.121094 299.695312 70.875 284.4375 70.875 265.683594 L 70.875 168.507812 C 70.875 149.753906 86.121094 134.5 104.859375 134.5 L 269.941406 134.5 C 288.683594 134.5 303.929688 149.753906 303.929688 168.507812 L 303.929688 265.683594 C 303.929688 284.4375 288.683594 299.695312 269.941406 299.695312 Z M 104.859375 144.214844 C 91.46875 144.214844 80.585938 155.117188 80.585938 168.507812 L 80.585938 265.683594 C 80.585938 279.074219 91.46875 289.976562 104.859375 289.976562 L 269.941406 289.976562 C 283.332031 289.976562 294.21875 279.074219 294.21875 265.683594 L 294.21875 168.507812 C 294.21875 155.117188 283.332031 144.214844 269.941406 144.214844 Z M 104.859375 144.214844"/></g><path fill="#FEFCFC" d="M 260.230469 231.671875 C 252.199219 231.671875 245.664062 225.132812 245.664062 217.097656 C 245.664062 209.058594 252.199219 202.519531 260.230469 202.519531 C 268.261719 202.519531 274.796875 209.058594 274.796875 217.097656 C 274.796875 225.132812 268.261719 231.671875 260.230469 231.671875 Z M 260.230469 212.238281 C 257.558594 212.238281 255.375 214.414062 255.375 217.097656 C 255.375 219.777344 257.558594 221.953125 260.230469 221.953125 C 262.902344 221.953125 265.085938 219.777344 265.085938 217.097656 C 265.085938 214.414062 262.902344 212.238281 260.230469 212.238281 Z M 260.230469 212.238281"/><path fill="#FEFCFC" d="M 299.074219 251.105469 L 260.230469 251.105469 C 241.488281 251.105469 226.242188 235.851562 226.242188 217.097656 C 226.242188 198.339844 241.488281 183.085938 260.230469 183.085938 L 299.074219 183.085938 C 301.753906 183.085938 303.929688 185.261719 303.929688 187.945312 L 303.929688 246.25 C 303.929688 248.929688 301.753906 251.105469 299.074219 251.105469 Z M 260.230469 192.800781 C 246.839844 192.800781 235.953125 203.707031 235.953125 217.097656 C 235.953125 230.488281 246.839844 241.390625 260.230469 241.390625 L 294.21875 241.390625 L 294.21875 192.800781 Z M 260.230469 192.800781"/><path fill="#FEFCFC" d="M 265.085938 144.214844 C 263.308594 144.214844 261.601562 143.234375 260.746094 141.535156 L 240.1875 100.390625 C 237.226562 94.460938 232.117188 90.089844 225.808594 88.097656 C 219.515625 86.097656 212.804688 86.726562 206.976562 89.875 L 107.164062 143.632812 C 104.8125 144.90625 101.859375 144.019531 100.589844 141.660156 C 99.316406 139.296875 100.199219 136.34375 102.558594 135.082031 L 202.355469 81.304688 C 210.53125 76.914062 219.894531 76.039062 228.730469 78.828125 C 237.566406 81.625 244.722656 87.738281 248.871094 96.035156 L 269.425781 137.179688 C 270.621094 139.582031 269.648438 142.496094 267.25 143.699219 C 266.550781 144.050781 265.816406 144.214844 265.085938 144.214844 Z M 265.085938 144.214844"/><path fill="#FEFCFC" d="M 173.523438 144.214844 C 171.796875 144.214844 170.125 143.292969 169.253906 141.660156 C 167.980469 139.296875 168.863281 136.355469 171.222656 135.082031 L 243.363281 96.210938 C 245.714844 94.949219 248.664062 95.824219 249.949219 98.195312 C 251.21875 100.554688 250.335938 103.5 247.976562 104.773438 L 175.835938 143.640625 C 175.097656 144.03125 174.300781 144.214844 173.523438 144.214844 Z M 173.523438 144.214844"/><g clip-path="url(#b)"><path fill="#FEFCFC" d="M 75.730469 173.367188 C 73.050781 173.367188 70.875 171.191406 70.875 168.507812 L 70.875 158.792969 C 70.875 129.320312 94.839844 105.347656 124.28125 105.347656 L 158.269531 105.347656 C 160.949219 105.347656 163.125 107.523438 163.125 110.203125 C 163.125 112.886719 160.949219 115.0625 158.269531 115.0625 L 124.28125 115.0625 C 100.191406 115.0625 80.585938 134.683594 80.585938 158.792969 L 80.585938 168.507812 C 80.585938 171.191406 78.410156 173.367188 75.730469 173.367188 Z M 75.730469 173.367188"/></g><path fill="#FEFCFC" d="M 299.074219 173.367188 C 296.394531 173.367188 294.21875 171.191406 294.21875 168.507812 L 294.21875 158.792969 C 294.21875 134.683594 274.613281 115.0625 250.519531 115.0625 C 247.839844 115.0625 245.664062 112.886719 245.664062 110.203125 C 245.664062 107.523438 247.839844 105.347656 250.519531 105.347656 C 279.960938 105.347656 303.929688 129.320312 303.929688 158.792969 L 303.929688 168.507812 C 303.929688 171.191406 301.753906 173.367188 299.074219 173.367188 Z M 299.074219 173.367188"/></svg>