<svg xmlns="http://www.w3.org/2000/svg" width="375" viewBox="0 0 375 375" height="375" version="1.0"><defs><clipPath id="a"><path d="M 77.132812 155 L 176 155 L 176 208 L 77.132812 208 Z M 77.132812 155"/></clipPath><clipPath id="b"><path d="M 80.070312 220.285156 L 204 220.285156 L 204 297.542969 L 80.070312 297.542969 Z M 80.070312 220.285156"/></clipPath><clipPath id="c"><path d="M 149 77.132812 L 297.632812 77.132812 L 297.632812 223 L 149 223 Z M 149 77.132812"/></clipPath></defs><g clip-path="url(#a)"><path fill="#FEFCFC" d="M 175.132812 181.363281 C 175.132812 167.234375 163.664062 155.652344 149.675781 155.652344 L 144.460938 155.652344 C 141.945312 166.707031 138.382812 177.0625 134.039062 186.714844 C 132.648438 180.664062 130.824219 174.78125 127.957031 169.515625 C 130.910156 168.816406 133.082031 166.621094 133.082031 163.988281 C 133.082031 160.832031 129.953125 158.285156 126.132812 158.285156 C 122.308594 158.285156 119.183594 160.832031 119.183594 163.988281 C 119.183594 166.621094 121.355469 168.816406 124.308594 169.515625 C 121.441406 174.78125 119.617188 180.664062 118.3125 186.714844 C 113.882812 177.0625 110.320312 166.707031 107.800781 155.652344 L 102.675781 155.652344 C 88.601562 155.652344 77.132812 167.234375 77.132812 181.363281 L 77.132812 207.164062 L 175.132812 207.164062 L 175.132812 181.363281"/></g><g clip-path="url(#b)"><path fill="#FEFCFC" d="M 202.066406 286.664062 L 201.804688 286.664062 L 201.71875 286.75 L 201.371094 286.75 L 201.28125 286.839844 L 200.933594 286.839844 L 200.847656 286.925781 L 200.414062 286.925781 L 200.414062 287.011719 L 199.890625 287.011719 L 199.890625 287.101562 L 199.371094 287.101562 L 199.371094 287.1875 L 198.9375 287.1875 L 198.847656 287.277344 L 198.417969 287.277344 L 198.328125 287.367188 L 197.808594 287.367188 L 197.722656 287.453125 L 197.285156 287.453125 L 197.199219 287.539062 L 196.679688 287.539062 L 196.589844 287.628906 L 196.070312 287.628906 L 195.984375 287.714844 L 195.375 287.714844 L 195.289062 287.804688 L 194.679688 287.804688 L 194.59375 287.890625 L 193.984375 287.890625 L 193.898438 287.980469 L 193.203125 287.980469 L 193.117188 288.066406 L 192.332031 288.066406 L 192.246094 288.152344 L 191.378906 288.152344 L 191.378906 288.242188 L 190.335938 288.242188 L 190.25 288.332031 L 189.121094 288.332031 L 189.03125 288.417969 L 187.640625 288.417969 L 187.554688 288.507812 L 185.558594 288.507812 L 185.472656 288.59375 L 179.386719 288.59375 L 178.953125 288.507812 L 177.21875 288.507812 L 176.78125 288.417969 L 175.914062 288.417969 L 175.480469 288.332031 L 174.609375 288.332031 L 174.175781 288.242188 L 173.828125 288.242188 L 173.394531 288.152344 L 172.523438 288.152344 L 172.089844 288.066406 L 171.65625 288.066406 L 171.222656 287.980469 L 170.789062 287.890625 L 170.441406 287.890625 L 170.003906 287.804688 L 169.570312 287.804688 L 168.703125 287.628906 L 168.355469 287.628906 L 167.921875 287.539062 L 167.488281 287.453125 L 167.050781 287.453125 L 166.617188 287.367188 L 166.269531 287.277344 L 165.835938 287.1875 L 165.402344 287.1875 L 164.96875 287.101562 L 164.621094 287.011719 L 164.183594 286.925781 L 163.75 286.839844 L 163.316406 286.75 L 162.96875 286.664062 L 162.535156 286.574219 L 162.101562 286.574219 L 161.753906 286.488281 L 160.882812 286.3125 L 160.449219 286.226562 L 160.101562 286.046875 L 159.667969 285.960938 L 159.234375 285.871094 L 158.886719 285.785156 L 158.449219 285.695312 L 158.105469 285.609375 L 157.234375 285.433594 L 156.886719 285.257812 L 156.453125 285.171875 L 156.019531 285.082031 L 155.671875 284.996094 L 155.238281 284.820312 L 154.886719 284.730469 L 154.453125 284.644531 L 154.109375 284.46875 L 153.671875 284.382812 L 153.324219 284.292969 L 152.890625 284.117188 L 152.457031 284.03125 L 152.109375 283.941406 L 151.675781 283.765625 L 151.328125 283.679688 L 150.890625 283.503906 L 150.546875 283.414062 L 150.109375 283.242188 L 149.761719 283.152344 L 149.417969 282.976562 L 148.980469 282.890625 L 148.632812 282.714844 L 148.199219 282.539062 L 147.851562 282.449219 L 147.417969 282.277344 L 147.070312 282.101562 L 146.722656 282.011719 L 146.289062 281.835938 L 145.941406 281.660156 L 145.503906 281.574219 L 145.15625 281.398438 L 144.8125 281.222656 L 144.375 281.046875 L 144.027344 280.960938 L 143.683594 280.78125 L 143.246094 280.609375 L 142.550781 280.257812 L 142.117188 280.082031 L 141.769531 279.996094 L 141.421875 279.816406 L 141.074219 279.640625 L 140.640625 279.46875 L 139.597656 278.941406 L 139.164062 278.765625 L 137.773438 278.0625 L 137.339844 277.886719 L 136.992188 277.625 L 135.601562 276.921875 L 135.167969 276.746094 L 134.820312 276.484375 L 133.777344 275.957031 L 133.429688 275.695312 L 132.386719 275.167969 L 132.039062 274.90625 L 131.34375 274.550781 L 130.996094 274.289062 L 130.648438 274.113281 L 130.300781 273.851562 L 129.953125 273.675781 L 129.609375 273.410156 L 129.257812 273.238281 L 128.914062 273.0625 L 128.566406 272.796875 L 128.214844 272.625 L 127.871094 272.359375 L 127.519531 272.097656 L 127.261719 271.921875 L 126.914062 271.660156 L 126.566406 271.484375 L 126.21875 271.21875 L 125.871094 271.042969 L 125.523438 270.78125 L 125.261719 270.515625 L 124.917969 270.339844 L 124.566406 270.078125 L 124.21875 269.816406 L 123.875 269.640625 L 123.613281 269.375 L 123.265625 269.113281 L 122.917969 268.847656 L 122.570312 268.675781 L 122.308594 268.410156 L 121.960938 268.148438 L 121.613281 267.882812 L 121.355469 267.621094 L 121.007812 267.445312 L 120.660156 267.183594 L 120.398438 266.917969 L 119.703125 266.394531 L 119.441406 266.128906 L 119.09375 265.867188 L 118.832031 265.601562 L 118.488281 265.339844 L 118.136719 265.164062 L 117.878906 264.898438 L 117.53125 264.636719 L 117.269531 264.375 L 116.921875 264.113281 L 116.660156 263.847656 L 116.316406 263.585938 L 116.054688 263.234375 L 115.707031 262.972656 L 115.445312 262.707031 L 115.183594 262.445312 L 114.835938 262.179688 L 114.578125 261.917969 L 114.230469 261.652344 L 113.707031 261.128906 L 113.359375 260.777344 L 113.101562 260.511719 L 112.753906 260.25 L 112.492188 259.988281 L 112.230469 259.636719 L 111.96875 259.371094 L 111.625 259.109375 L 111.363281 258.847656 L 111.101562 258.496094 L 110.753906 258.230469 L 110.492188 257.96875 L 110.234375 257.707031 L 109.972656 257.355469 L 109.710938 257.089844 L 109.363281 256.742188 L 109.101562 256.476562 L 108.84375 256.214844 L 108.582031 255.863281 L 108.320312 255.601562 L 108.0625 255.246094 L 107.539062 254.722656 L 107.277344 254.371094 L 106.933594 254.105469 L 106.671875 253.757812 L 106.410156 253.496094 L 106.148438 253.140625 L 105.886719 252.878906 L 105.628906 252.527344 L 105.367188 252.265625 L 105.109375 251.914062 L 104.84375 251.5625 L 104.671875 251.296875 L 104.410156 250.949219 L 104.152344 250.6875 L 103.628906 249.984375 L 103.371094 249.71875 L 103.109375 249.371094 L 102.847656 249.019531 L 102.675781 248.753906 L 102.414062 248.40625 L 102.152344 248.050781 L 101.890625 247.789062 L 101.632812 247.4375 L 101.457031 247.085938 L 101.195312 246.734375 L 100.9375 246.472656 L 100.761719 246.125 L 100.503906 245.769531 L 100.242188 245.421875 L 100.066406 245.15625 L 99.546875 244.457031 L 99.375 244.105469 L 98.851562 243.402344 L 98.679688 243.140625 L 98.417969 242.785156 L 98.242188 242.4375 L 97.984375 242.085938 L 97.808594 241.734375 L 97.550781 241.382812 L 97.375 241.035156 L 97.113281 240.679688 L 96.941406 240.332031 L 96.679688 239.980469 L 96.332031 239.277344 L 96.070312 238.925781 L 95.898438 238.574219 L 95.8125 238.488281 L 101.890625 234.976562 L 80.519531 220.765625 L 82.171875 246.5625 L 88.253906 242.964844 L 88.253906 243.140625 L 88.511719 243.488281 L 88.773438 243.839844 L 88.945312 244.28125 L 89.207031 244.628906 L 89.382812 244.980469 L 89.640625 245.421875 L 89.902344 245.769531 L 90.078125 246.125 L 90.335938 246.5625 L 90.597656 246.910156 L 90.859375 247.265625 L 91.03125 247.613281 L 91.292969 248.050781 L 91.554688 248.40625 L 92.074219 249.105469 L 92.25 249.457031 L 92.507812 249.808594 L 92.769531 250.246094 L 93.03125 250.597656 L 93.550781 251.296875 L 93.8125 251.652344 L 94.074219 252 L 94.332031 252.351562 L 95.117188 253.40625 L 95.636719 254.105469 L 96.160156 254.808594 L 96.417969 255.160156 L 96.941406 255.863281 L 97.289062 256.214844 L 97.808594 256.914062 L 98.070312 257.265625 L 98.328125 257.617188 L 98.589844 257.96875 L 98.9375 258.320312 L 99.199219 258.582031 L 99.71875 259.285156 L 100.066406 259.636719 L 100.328125 259.988281 L 100.589844 260.25 L 100.9375 260.601562 L 101.195312 260.953125 L 101.457031 261.304688 L 101.804688 261.566406 L 102.066406 261.917969 L 102.414062 262.269531 L 102.675781 262.53125 L 103.019531 262.882812 L 103.28125 263.234375 L 103.542969 263.496094 L 103.890625 263.847656 L 104.152344 264.199219 L 104.5 264.460938 L 104.84375 264.8125 L 105.109375 265.078125 L 105.453125 265.425781 L 105.714844 265.777344 L 106.0625 266.039062 L 106.324219 266.394531 L 106.671875 266.65625 L 107.019531 267.007812 L 107.277344 267.269531 L 107.625 267.535156 L 107.972656 267.882812 L 108.234375 268.148438 L 108.582031 268.5 L 108.929688 268.761719 L 109.191406 269.113281 L 109.539062 269.375 L 109.886719 269.640625 L 110.234375 269.988281 L 110.492188 270.253906 L 110.839844 270.515625 L 111.1875 270.78125 L 111.535156 271.128906 L 112.230469 271.660156 L 112.492188 272.007812 L 112.839844 272.269531 L 113.1875 272.535156 L 113.535156 272.796875 L 113.882812 273.0625 L 114.230469 273.324219 L 114.578125 273.675781 L 114.925781 273.9375 L 115.269531 274.203125 L 115.621094 274.464844 L 115.964844 274.730469 L 116.316406 274.992188 L 116.660156 275.253906 L 117.007812 275.519531 L 117.359375 275.78125 L 117.703125 276.046875 L 118.398438 276.570312 L 118.746094 276.835938 L 119.441406 277.359375 L 119.789062 277.625 L 120.222656 277.886719 L 120.570312 278.152344 L 120.917969 278.328125 L 121.265625 278.589844 L 121.613281 278.855469 L 121.960938 279.117188 L 122.394531 279.378906 L 122.742188 279.554688 L 123.089844 279.816406 L 123.4375 280.082031 L 123.875 280.34375 L 124.21875 280.519531 L 124.566406 280.78125 L 124.917969 281.046875 L 125.351562 281.222656 L 125.695312 281.484375 L 126.046875 281.746094 L 126.480469 281.921875 L 126.828125 282.1875 L 127.175781 282.363281 L 127.609375 282.625 L 127.957031 282.890625 L 128.390625 283.066406 L 128.738281 283.328125 L 129.085938 283.503906 L 129.519531 283.765625 L 129.867188 283.941406 L 130.300781 284.117188 L 130.648438 284.382812 L 131.082031 284.558594 L 131.433594 284.820312 L 131.867188 284.996094 L 132.210938 285.171875 L 132.648438 285.433594 L 132.996094 285.609375 L 133.429688 285.785156 L 133.777344 286.046875 L 134.210938 286.226562 L 134.558594 286.398438 L 135.429688 286.75 L 135.773438 287.011719 L 136.210938 287.1875 L 136.558594 287.367188 L 136.992188 287.539062 L 137.425781 287.714844 L 137.773438 287.890625 L 138.640625 288.242188 L 138.992188 288.417969 L 139.425781 288.59375 L 139.859375 288.855469 L 140.207031 288.945312 L 140.640625 289.117188 L 141.507812 289.472656 L 141.859375 289.648438 L 142.292969 289.820312 L 143.160156 290.171875 L 143.507812 290.347656 L 143.941406 290.523438 L 144.375 290.613281 L 144.8125 290.789062 L 145.246094 290.960938 L 145.59375 291.136719 L 146.027344 291.226562 L 146.894531 291.578125 L 147.328125 291.664062 L 147.765625 291.839844 L 148.199219 292.015625 L 148.632812 292.101562 L 148.980469 292.277344 L 149.417969 292.367188 L 149.851562 292.542969 L 150.285156 292.628906 L 150.71875 292.804688 L 151.152344 292.894531 L 151.585938 293.066406 L 152.019531 293.15625 L 152.457031 293.332031 L 152.890625 293.417969 L 153.324219 293.597656 L 153.757812 293.683594 L 154.195312 293.769531 L 154.628906 293.945312 L 155.933594 294.210938 L 156.367188 294.382812 L 158.105469 294.738281 L 158.539062 294.910156 L 159.058594 295 L 160.796875 295.351562 L 161.230469 295.4375 L 162.101562 295.613281 L 162.621094 295.703125 L 163.492188 295.878906 L 164.359375 296.050781 L 164.792969 296.050781 L 165.316406 296.140625 L 166.617188 296.402344 L 167.050781 296.402344 L 167.574219 296.488281 L 168.007812 296.578125 L 168.441406 296.578125 L 168.875 296.664062 L 169.398438 296.753906 L 169.832031 296.753906 L 170.699219 296.929688 L 171.222656 296.929688 L 171.65625 297.015625 L 172.089844 297.015625 L 172.613281 297.105469 L 173.046875 297.105469 L 173.480469 297.195312 L 174.4375 297.195312 L 174.871094 297.28125 L 175.828125 297.28125 L 176.261719 297.367188 L 177.652344 297.367188 L 178.171875 297.457031 L 180.519531 297.457031 L 180.953125 297.542969 L 183.734375 297.542969 L 183.820312 297.457031 L 186.945312 297.457031 L 187.035156 297.367188 L 188.683594 297.367188 L 188.769531 297.28125 L 190.074219 297.28125 L 190.164062 297.195312 L 191.203125 297.195312 L 191.292969 297.105469 L 192.246094 297.105469 L 192.246094 297.015625 L 193.117188 297.015625 L 193.203125 296.929688 L 193.984375 296.929688 L 194.070312 296.84375 L 194.765625 296.84375 L 194.941406 296.753906 L 195.550781 296.753906 L 195.636719 296.664062 L 196.242188 296.664062 L 196.328125 296.578125 L 196.9375 296.578125 L 197.023438 296.488281 L 197.546875 296.488281 L 197.632812 296.402344 L 198.152344 296.402344 L 198.242188 296.316406 L 198.761719 296.316406 L 198.847656 296.226562 L 199.285156 296.226562 L 199.371094 296.140625 L 199.804688 296.140625 L 199.890625 296.050781 L 200.414062 296.050781 L 200.5 295.964844 L 200.847656 295.964844 L 200.933594 295.878906 L 201.371094 295.878906 L 201.457031 295.789062 L 201.890625 295.789062 L 201.976562 295.703125 L 202.324219 295.703125 L 202.414062 295.613281 L 202.757812 295.613281 L 202.847656 295.523438 L 203.28125 295.523438 L 203.367188 295.4375 L 203.714844 295.4375 L 203.714844 295.351562 L 203.886719 295.351562 L 202.152344 286.664062 L 202.066406 286.664062"/></g><path fill="#FEFCFC" d="M 126.132812 156.003906 C 142.726562 156.003906 156.105469 142.402344 156.105469 125.730469 C 156.105469 108.96875 142.726562 95.457031 126.132812 95.457031 C 109.625 95.457031 96.160156 108.96875 96.160156 125.730469 C 96.160156 142.402344 109.625 156.003906 126.132812 156.003906"/><g clip-path="url(#c)"><path fill="#FEFCFC" d="M 290.683594 200.40625 L 290.683594 200.140625 L 290.769531 200.140625 L 290.769531 199.351562 L 290.855469 199.351562 L 290.855469 198.5625 L 290.941406 198.472656 L 290.941406 197.597656 L 291.027344 197.597656 L 291.027344 196.632812 L 291.117188 196.632812 L 291.117188 195.492188 L 291.203125 195.492188 L 291.203125 194.175781 L 291.289062 194.175781 L 291.289062 192.59375 L 291.375 192.507812 L 291.375 190.140625 L 291.460938 190.050781 L 291.460938 185.222656 L 291.375 184.523438 L 291.375 182.414062 L 291.289062 181.625 L 291.289062 180.925781 L 291.203125 180.222656 L 291.203125 179.519531 L 291.117188 178.90625 L 291.117188 178.203125 L 291.027344 177.503906 L 290.855469 176.097656 L 290.855469 175.398438 L 290.683594 173.992188 L 290.59375 173.292969 L 290.507812 172.589844 L 290.421875 171.972656 L 290.332031 171.273438 L 290.160156 170.570312 L 290.074219 169.867188 L 289.988281 169.167969 L 289.898438 168.550781 L 289.726562 167.847656 L 289.636719 167.148438 L 289.464844 166.445312 L 289.378906 165.832031 L 289.203125 165.128906 L 289.117188 164.425781 L 288.945312 163.816406 L 288.769531 163.109375 L 288.683594 162.496094 L 288.335938 161.09375 L 288.164062 160.476562 L 287.988281 159.777344 L 287.816406 159.164062 L 287.640625 158.460938 L 287.46875 157.847656 L 287.292969 157.144531 L 287.121094 156.53125 L 286.945312 155.914062 L 286.769531 155.214844 L 286.511719 154.601562 L 286.335938 153.898438 L 286.164062 153.285156 L 285.902344 152.667969 L 285.730469 151.964844 L 285.46875 151.351562 L 285.296875 150.738281 L 285.035156 150.125 L 284.859375 149.421875 L 284.597656 148.808594 L 284.339844 148.195312 L 284.167969 147.578125 L 283.902344 146.964844 L 283.644531 146.351562 L 283.382812 145.648438 L 282.601562 143.808594 L 282.339844 143.191406 L 281.558594 141.347656 L 281.296875 140.734375 L 280.949219 140.207031 L 280.429688 138.980469 L 280.082031 138.367188 L 279.820312 137.75 L 279.5625 137.136719 L 279.210938 136.609375 L 278.867188 135.996094 L 278.605469 135.382812 L 278.257812 134.855469 L 277.996094 134.242188 L 277.648438 133.628906 L 277.300781 133.101562 L 277.042969 132.488281 L 276.695312 131.960938 L 276.347656 131.347656 L 276 130.730469 L 275.652344 130.207031 L 275.304688 129.679688 L 274.957031 129.066406 L 274.609375 128.539062 L 274.261719 127.925781 L 273.566406 126.871094 L 273.21875 126.257812 L 272.785156 125.730469 L 272.4375 125.203125 L 272.089844 124.679688 L 271.742188 124.0625 L 271.308594 123.535156 L 270.960938 123.011719 L 270.523438 122.480469 L 270.179688 121.957031 L 269.742188 121.429688 L 269.394531 120.902344 L 268.960938 120.375 L 268.613281 119.851562 L 267.746094 118.796875 L 267.398438 118.269531 L 266.527344 117.21875 L 266.09375 116.78125 L 265.746094 116.253906 L 264.878906 115.199219 L 264.445312 114.761719 L 263.574219 113.707031 L 263.140625 113.269531 L 262.707031 112.742188 L 262.269531 112.304688 L 261.75 111.777344 L 261.316406 111.339844 L 260.882812 110.8125 L 260.445312 110.375 L 259.925781 109.9375 L 259.492188 109.410156 L 259.058594 108.96875 L 258.535156 108.53125 L 258.101562 108.003906 L 257.667969 107.566406 L 257.144531 107.128906 L 256.710938 106.691406 L 256.191406 106.25 L 255.753906 105.8125 L 255.234375 105.371094 L 254.710938 104.933594 L 254.277344 104.492188 L 253.238281 103.617188 L 252.800781 103.179688 L 252.28125 102.738281 L 251.238281 101.863281 L 250.714844 101.511719 L 250.195312 101.074219 L 249.761719 100.632812 L 249.242188 100.28125 L 248.71875 99.84375 L 248.195312 99.492188 L 247.675781 99.054688 L 247.152344 98.617188 L 246.546875 98.265625 L 246.023438 97.914062 L 245.503906 97.476562 L 244.984375 97.121094 L 244.460938 96.773438 L 243.941406 96.335938 L 243.332031 95.980469 L 242.289062 95.28125 L 241.683594 94.839844 L 241.160156 94.492188 L 240.636719 94.140625 L 240.03125 93.789062 L 239.507812 93.4375 L 238.902344 93.085938 L 238.378906 92.734375 L 237.769531 92.472656 L 237.25 92.121094 L 236.640625 91.769531 L 236.121094 91.421875 L 235.511719 91.070312 L 234.992188 90.804688 L 234.382812 90.453125 L 233.773438 90.105469 L 233.167969 89.839844 L 232.644531 89.488281 L 232.039062 89.226562 L 231.429688 88.875 L 230.820312 88.609375 L 230.300781 88.347656 L 229.691406 87.996094 L 229.082031 87.734375 L 228.476562 87.46875 L 227.867188 87.207031 L 227.257812 86.859375 L 226.652344 86.59375 L 226.042969 86.332031 L 224.828125 85.804688 L 224.21875 85.539062 L 223.609375 85.277344 L 223.003906 85.015625 L 222.394531 84.839844 L 221.785156 84.574219 L 221.089844 84.3125 L 220.484375 84.046875 L 219.875 83.875 L 219.265625 83.609375 L 218.65625 83.433594 L 217.960938 83.171875 L 217.355469 82.996094 L 216.746094 82.734375 L 216.050781 82.558594 L 215.445312 82.292969 L 214.835938 82.117188 L 214.140625 81.941406 L 213.53125 81.679688 L 212.835938 81.503906 L 212.230469 81.328125 L 211.621094 81.152344 L 210.925781 80.976562 L 210.316406 80.800781 L 209.625 80.628906 L 209.015625 80.453125 L 207.625 80.097656 L 207.015625 80.011719 L 206.320312 79.835938 L 205.710938 79.660156 L 205.019531 79.574219 L 204.324219 79.398438 L 203.714844 79.222656 L 202.324219 79.046875 L 201.71875 78.871094 L 201.019531 78.785156 L 200.328125 78.609375 L 199.632812 78.519531 L 198.9375 78.433594 L 198.328125 78.347656 L 195.550781 77.992188 L 194.851562 77.90625 L 194.246094 77.820312 L 192.160156 77.554688 L 191.464844 77.554688 L 190.769531 77.46875 L 190.074219 77.46875 L 189.378906 77.378906 L 188.683594 77.378906 L 187.992188 77.292969 L 187.296875 77.292969 L 186.601562 77.207031 L 178.085938 77.207031 L 178 77.292969 L 176.261719 77.292969 L 176.085938 77.378906 L 174.957031 77.378906 L 174.785156 77.46875 L 173.742188 77.46875 L 173.652344 77.554688 L 172.699219 77.554688 L 172.613281 77.644531 L 171.828125 77.644531 L 171.65625 77.730469 L 170.875 77.730469 L 170.789062 77.820312 L 170.09375 77.820312 L 170.003906 77.90625 L 169.3125 77.90625 L 169.222656 77.992188 L 168.703125 77.992188 L 168.527344 78.082031 L 167.921875 78.082031 L 167.746094 78.171875 L 167.398438 78.171875 L 167.226562 78.257812 L 166.703125 78.257812 L 166.617188 78.347656 L 166.097656 78.347656 L 165.921875 78.433594 L 165.574219 78.433594 L 165.488281 78.519531 L 164.96875 78.519531 L 164.792969 78.609375 L 164.445312 78.609375 L 164.269531 78.695312 L 163.925781 78.695312 L 163.75 78.785156 L 163.402344 78.785156 L 163.316406 78.871094 L 163.054688 78.871094 L 162.882812 78.960938 L 162.535156 78.960938 L 162.359375 79.046875 L 162.011719 79.046875 L 161.839844 79.132812 L 161.578125 79.132812 L 161.492188 79.222656 L 161.144531 79.222656 L 160.972656 79.3125 L 160.710938 79.3125 L 160.625 79.398438 L 160.273438 79.398438 L 160.101562 79.488281 L 159.839844 79.488281 L 159.753906 79.574219 L 159.492188 79.574219 L 159.320312 79.660156 L 159.058594 79.660156 L 158.972656 79.75 L 158.625 79.75 L 158.449219 79.835938 L 158.191406 79.835938 L 158.105469 79.925781 L 157.84375 79.925781 L 157.753906 80.011719 L 157.496094 80.011719 L 157.320312 80.097656 L 157.0625 80.097656 L 156.972656 80.1875 L 156.710938 80.1875 L 156.625 80.277344 L 156.453125 80.277344 L 156.367188 80.363281 L 156.105469 80.363281 L 155.933594 80.453125 L 155.757812 80.453125 L 155.582031 80.539062 L 155.324219 80.539062 L 155.238281 80.628906 L 154.976562 80.628906 L 154.886719 80.714844 L 154.714844 80.714844 L 154.628906 80.800781 L 154.367188 80.800781 L 154.195312 80.890625 L 154.019531 80.890625 L 153.847656 80.976562 L 153.757812 80.976562 L 153.585938 81.066406 L 153.324219 81.066406 L 153.238281 81.152344 L 153.152344 81.152344 L 152.976562 81.242188 L 152.71875 81.242188 L 152.628906 81.328125 L 152.542969 81.328125 L 152.371094 81.417969 L 152.109375 81.417969 L 152.019531 81.503906 L 151.933594 81.503906 L 151.761719 81.59375 L 151.5 81.59375 L 151.414062 81.679688 L 151.242188 81.679688 L 151.152344 81.769531 L 151.066406 81.769531 L 150.890625 81.855469 L 150.632812 81.855469 L 150.546875 81.941406 L 150.457031 81.941406 L 150.285156 82.03125 L 150.195312 82.03125 L 150.023438 82.117188 L 149.851562 82.117188 L 149.675781 82.207031 L 149.589844 82.207031 L 152.195312 90.71875 L 152.371094 90.71875 L 152.457031 90.628906 L 152.628906 90.628906 L 152.804688 90.542969 L 152.890625 90.542969 L 152.976562 90.453125 L 153.238281 90.453125 L 153.324219 90.367188 L 153.414062 90.367188 L 153.585938 90.277344 L 153.757812 90.277344 L 153.933594 90.191406 L 154.019531 90.191406 L 154.109375 90.105469 L 154.367188 90.105469 L 154.453125 90.015625 L 154.714844 90.015625 L 154.800781 89.929688 L 154.886719 89.929688 L 155.0625 89.839844 L 155.238281 89.839844 L 155.324219 89.753906 L 155.582031 89.753906 L 155.671875 89.664062 L 155.933594 89.664062 L 156.019531 89.578125 L 156.277344 89.578125 L 156.367188 89.488281 L 156.539062 89.488281 L 156.625 89.402344 L 156.800781 89.402344 L 156.972656 89.3125 L 157.148438 89.3125 L 157.320312 89.226562 L 157.496094 89.226562 L 157.667969 89.136719 L 157.84375 89.136719 L 158.015625 89.050781 L 158.191406 89.050781 L 158.363281 88.964844 L 158.625 88.964844 L 158.800781 88.875 L 158.972656 88.875 L 159.144531 88.789062 L 159.320312 88.789062 L 159.492188 88.699219 L 159.667969 88.699219 L 159.839844 88.609375 L 160.015625 88.609375 L 160.1875 88.523438 L 160.535156 88.523438 L 160.625 88.4375 L 160.882812 88.4375 L 160.972656 88.347656 L 161.316406 88.347656 L 161.402344 88.261719 L 161.667969 88.261719 L 161.753906 88.171875 L 162.101562 88.171875 L 162.273438 88.085938 L 162.621094 88.085938 L 162.707031 87.996094 L 162.96875 87.996094 L 163.054688 87.910156 L 163.402344 87.910156 L 163.492188 87.824219 L 163.835938 87.824219 L 164.011719 87.734375 L 164.359375 87.734375 L 164.445312 87.644531 L 164.792969 87.644531 L 164.96875 87.558594 L 165.402344 87.558594 L 165.488281 87.46875 L 165.835938 87.46875 L 166.007812 87.382812 L 166.445312 87.382812 L 166.53125 87.296875 L 166.878906 87.296875 L 167.050781 87.207031 L 167.488281 87.207031 L 167.660156 87.121094 L 168.09375 87.121094 L 168.183594 87.03125 L 168.789062 87.03125 L 168.960938 86.945312 L 169.398438 86.945312 L 169.570312 86.859375 L 170.09375 86.859375 L 170.265625 86.769531 L 170.875 86.769531 L 170.960938 86.683594 L 171.65625 86.683594 L 171.828125 86.59375 L 172.523438 86.59375 L 172.613281 86.503906 L 173.480469 86.503906 L 173.566406 86.417969 L 174.523438 86.417969 L 174.695312 86.332031 L 175.742188 86.332031 L 175.914062 86.242188 L 177.21875 86.242188 L 177.390625 86.15625 L 179.5625 86.15625 L 179.648438 86.066406 L 184.949219 86.066406 L 185.644531 86.15625 L 186.859375 86.15625 L 187.554688 86.242188 L 188.859375 86.242188 L 189.46875 86.332031 L 190.074219 86.332031 L 190.769531 86.417969 L 191.378906 86.503906 L 191.988281 86.503906 L 192.59375 86.59375 L 193.289062 86.683594 L 193.898438 86.769531 L 194.503906 86.769531 L 195.113281 86.859375 L 195.808594 86.945312 L 196.417969 87.03125 L 198.242188 87.296875 L 198.847656 87.46875 L 199.542969 87.558594 L 200.761719 87.734375 L 201.371094 87.910156 L 201.976562 87.996094 L 202.585938 88.171875 L 203.800781 88.347656 L 205.019531 88.699219 L 205.625 88.789062 L 206.234375 88.964844 L 206.84375 89.136719 L 207.449219 89.226562 L 208.667969 89.578125 L 209.1875 89.753906 L 209.796875 89.929688 L 210.402344 90.105469 L 211.011719 90.277344 L 212.230469 90.628906 L 212.75 90.804688 L 213.96875 91.15625 L 214.488281 91.421875 L 215.09375 91.59375 L 215.703125 91.769531 L 216.226562 92.035156 L 216.832031 92.210938 L 217.441406 92.472656 L 217.960938 92.648438 L 218.570312 92.910156 L 219.09375 93.085938 L 219.699219 93.351562 L 220.308594 93.527344 L 220.828125 93.789062 L 221.4375 94.054688 L 221.960938 94.230469 L 222.480469 94.492188 L 223.089844 94.753906 L 223.609375 95.015625 L 224.21875 95.28125 L 224.742188 95.542969 L 225.261719 95.808594 L 225.871094 96.070312 L 226.390625 96.335938 L 226.914062 96.597656 L 227.433594 96.859375 L 228.042969 97.121094 L 228.5625 97.386719 L 229.082031 97.738281 L 229.605469 98 L 230.125 98.265625 L 230.648438 98.617188 L 231.253906 98.878906 L 231.777344 99.140625 L 232.300781 99.492188 L 232.820312 99.757812 L 233.339844 100.105469 L 233.863281 100.457031 L 234.382812 100.722656 L 234.902344 101.074219 L 235.425781 101.335938 L 235.859375 101.6875 L 236.382812 102.039062 L 236.902344 102.386719 L 237.425781 102.652344 L 237.945312 103.003906 L 238.46875 103.351562 L 238.902344 103.707031 L 239.421875 104.054688 L 239.945312 104.40625 L 240.378906 104.757812 L 240.902344 105.109375 L 241.421875 105.460938 L 241.855469 105.8125 L 242.375 106.164062 L 242.8125 106.511719 L 243.332031 106.953125 L 243.765625 107.300781 L 244.289062 107.652344 L 244.722656 108.003906 L 245.242188 108.441406 L 245.679688 108.796875 L 246.113281 109.234375 L 246.632812 109.582031 L 247.066406 109.9375 L 247.503906 110.375 L 248.023438 110.722656 L 248.457031 111.164062 L 248.890625 111.601562 L 249.328125 111.953125 L 249.761719 112.390625 L 250.195312 112.832031 L 250.628906 113.183594 L 251.152344 113.621094 L 251.585938 114.058594 L 252.019531 114.5 L 252.453125 114.847656 L 252.800781 115.289062 L 253.238281 115.726562 L 253.667969 116.164062 L 254.105469 116.605469 L 254.972656 117.480469 L 255.320312 117.921875 L 256.625 119.234375 L 256.972656 119.675781 L 257.40625 120.113281 L 257.753906 120.640625 L 258.1875 121.078125 L 258.535156 121.519531 L 258.972656 121.957031 L 259.316406 122.480469 L 259.753906 122.921875 L 260.097656 123.359375 L 260.535156 123.886719 L 260.882812 124.324219 L 261.230469 124.851562 L 261.664062 125.292969 L 262.011719 125.820312 L 262.359375 126.257812 L 262.707031 126.785156 L 263.054688 127.222656 L 263.402344 127.746094 L 263.75 128.1875 L 264.445312 129.242188 L 264.792969 129.679688 L 265.136719 130.207031 L 265.488281 130.730469 L 265.832031 131.257812 L 266.183594 131.695312 L 266.527344 132.222656 L 266.875 132.75 L 267.136719 133.277344 L 267.484375 133.804688 L 267.832031 134.328125 L 268.09375 134.855469 L 268.441406 135.382812 L 268.699219 135.910156 L 269.050781 136.4375 L 269.308594 136.960938 L 269.65625 137.488281 L 269.917969 138.015625 L 270.265625 138.542969 L 270.523438 139.066406 L 270.785156 139.59375 L 271.132812 140.121094 L 271.394531 140.734375 L 271.652344 141.261719 L 271.917969 141.789062 L 272.175781 142.3125 L 272.523438 142.84375 L 272.785156 143.453125 L 273.046875 143.980469 L 273.304688 144.507812 L 273.566406 145.121094 L 273.742188 145.648438 L 274 146.261719 L 274.261719 146.789062 L 274.519531 147.316406 L 274.78125 147.929688 L 274.957031 148.457031 L 275.21875 149.070312 L 275.476562 149.597656 L 275.652344 150.210938 L 275.914062 150.738281 L 276.085938 151.351562 L 276.347656 151.964844 L 276.519531 152.492188 L 276.78125 153.105469 L 276.953125 153.722656 L 277.128906 154.25 L 277.386719 154.863281 L 277.5625 155.476562 L 277.738281 156.003906 L 278.082031 157.230469 L 278.34375 157.847656 L 278.519531 158.371094 L 278.867188 159.601562 L 278.953125 160.214844 L 279.125 160.832031 L 279.300781 161.441406 L 279.472656 162.058594 L 279.648438 162.671875 L 279.734375 163.199219 L 279.90625 163.816406 L 280.082031 164.425781 L 280.167969 165.042969 L 280.34375 165.65625 L 280.429688 166.269531 L 280.601562 166.886719 L 280.691406 167.5 L 280.863281 168.199219 L 280.949219 168.816406 L 281.039062 169.429688 L 281.210938 170.042969 L 281.296875 170.65625 L 281.386719 171.273438 L 281.558594 172.5 L 281.644531 173.203125 L 281.734375 173.816406 L 281.90625 175.046875 L 281.992188 175.660156 L 282.078125 176.363281 L 282.078125 176.976562 L 282.167969 177.589844 L 282.253906 178.292969 L 282.253906 178.90625 L 282.339844 179.519531 L 282.429688 180.222656 L 282.429688 181.449219 L 282.515625 182.152344 L 282.515625 182.769531 L 282.601562 183.382812 L 282.601562 191.191406 L 282.515625 191.28125 L 282.515625 193.121094 L 282.429688 193.121094 L 282.429688 194.527344 L 282.339844 194.527344 L 282.339844 195.667969 L 282.253906 195.753906 L 282.253906 196.71875 L 282.167969 196.71875 L 282.167969 197.597656 L 282.078125 197.597656 L 282.078125 198.386719 L 281.992188 198.472656 L 281.992188 199.175781 L 281.90625 199.265625 L 274.957031 198.472656 L 283.558594 222.78125 L 297.632812 201.195312 L 290.683594 200.40625"/></g><path fill="#FEFCFC" d="M 233.515625 223.746094 C 250.109375 223.746094 263.488281 210.144531 263.488281 193.472656 C 263.488281 176.800781 250.109375 163.199219 233.515625 163.199219 C 217.007812 163.199219 203.628906 176.800781 203.628906 193.472656 C 203.628906 210.144531 217.007812 223.746094 233.515625 223.746094"/><path fill="#FEFCFC" d="M 257.058594 223.394531 L 251.847656 223.394531 C 249.414062 234.453125 245.765625 244.804688 241.421875 254.457031 C 240.03125 248.40625 238.207031 242.613281 235.425781 237.257812 C 238.292969 236.558594 240.464844 234.363281 240.464844 231.730469 C 240.464844 228.574219 237.425781 226.027344 233.515625 226.027344 C 229.691406 226.027344 226.566406 228.574219 226.566406 231.730469 C 226.566406 234.363281 228.738281 236.558594 231.691406 237.257812 C 228.824219 242.613281 227 248.40625 225.695312 254.457031 C 221.265625 244.804688 217.703125 234.453125 215.183594 223.394531 L 210.058594 223.394531 C 195.984375 223.394531 184.515625 234.976562 184.515625 249.191406 L 184.515625 274.90625 L 282.515625 274.90625 L 282.515625 249.191406 C 282.515625 234.976562 271.046875 223.394531 257.058594 223.394531"/></svg>