<svg xmlns="http://www.w3.org/2000/svg" width="375" viewBox="0 0 375 375" height="375" version="1.0"><defs><clipPath id="a"><path d="M 70.074219 81.816406 L 304.824219 81.816406 L 304.824219 293.316406 L 70.074219 293.316406 Z M 70.074219 81.816406"/></clipPath></defs><g clip-path="url(#a)"><path fill="#FFF" d="M 304.824219 175.816406 L 304.824219 155.253906 L 269.609375 155.253906 L 269.609375 81.816406 L 241.734375 81.816406 L 241.734375 155.253906 L 181.953125 155.253906 L 133.480469 81.816406 L 105.285156 81.816406 L 105.285156 155.253906 L 70.074219 155.253906 L 70.074219 175.816406 L 105.285156 175.816406 L 105.285156 202.253906 L 70.074219 202.253906 L 70.074219 222.816406 L 105.285156 222.816406 L 105.285156 293.316406 L 133.160156 293.316406 L 133.160156 222.816406 L 194.523438 222.816406 L 241.125 293.316406 L 269.609375 293.316406 L 269.609375 222.816406 L 304.824219 222.816406 L 304.824219 202.253906 L 269.609375 202.253906 L 269.609375 175.816406 Z M 241.734375 175.816406 L 241.734375 202.253906 L 212.402344 202.253906 L 195.253906 175.816406 Z M 133.160156 129.308594 L 150.109375 155.253906 L 133.160156 155.253906 Z M 133.160156 175.816406 L 163.480469 175.816406 L 180.792969 202.253906 L 133.160156 202.253906 Z M 225.921875 222.816406 L 241.734375 222.816406 L 241.734375 247.007812 Z M 225.921875 222.816406"/></g></svg>