<svg xmlns="http://www.w3.org/2000/svg" width="375" viewBox="0 0 375 375" height="375" version="1.0"><defs><clipPath id="a"><path d="M 96.007812 72.527344 L 278.714844 72.527344 L 278.714844 270 L 96.007812 270 Z M 96.007812 72.527344"/></clipPath><clipPath id="b"><path d="M 161 277 L 213 277 L 213 302.773438 L 161 302.773438 Z M 161 277"/></clipPath><clipPath id="c"><path d="M 213 83 L 278.714844 83 L 278.714844 150 L 213 150 Z M 213 83"/></clipPath></defs><g clip-path="url(#a)"><path fill="#FEFCFC" d="M 276.089844 250.394531 L 254.789062 232.730469 C 251.007812 229.601562 248.824219 224.941406 248.824219 220.035156 L 248.824219 157.015625 C 247.871094 157.074219 246.933594 157.117188 245.96875 157.117188 C 223.667969 157.117188 205.585938 138.984375 205.585938 116.601562 C 205.585938 108.945312 207.695312 101.785156 211.375 95.6875 C 208.941406 94.644531 206.4375 93.746094 203.84375 93.027344 C 204.078125 91.910156 204.195312 90.75 204.195312 89.558594 C 204.195312 80.152344 196.605469 72.527344 187.230469 72.527344 C 177.851562 72.527344 170.246094 80.152344 170.246094 89.558594 C 170.246094 90.75 170.363281 91.910156 170.597656 93.027344 C 144.652344 100.300781 125.617188 124.183594 125.617188 152.53125 L 125.617188 220.035156 C 125.617188 224.941406 123.433594 229.601562 119.65625 232.730469 L 98.351562 250.394531 C 96.871094 251.628906 96.007812 253.46875 96.007812 255.390625 L 96.007812 263.285156 C 96.007812 266.871094 98.894531 269.765625 102.46875 269.765625 L 271.972656 269.765625 C 275.550781 269.765625 278.4375 266.871094 278.4375 263.285156 L 278.4375 255.390625 C 278.4375 253.46875 277.570312 251.628906 276.089844 250.394531"/></g><g clip-path="url(#b)"><path fill="#FEFCFC" d="M 187.230469 302.773438 C 201.25 302.773438 212.632812 291.367188 212.632812 277.289062 L 161.824219 277.289062 C 161.824219 291.367188 173.191406 302.773438 187.230469 302.773438"/></g><g clip-path="url(#c)"><path fill="#FEFCFC" d="M 233.71875 103.976562 L 242.496094 97.214844 C 243.59375 96.394531 244.53125 95.761719 245.996094 95.761719 L 250.390625 95.761719 C 251.269531 95.761719 251.859375 96.335938 251.859375 97.214844 L 251.859375 135.382812 C 251.859375 136.265625 251.269531 136.851562 250.390625 136.851562 L 244.824219 136.851562 C 243.960938 136.851562 243.375 136.265625 243.375 135.382812 L 243.375 105.445312 L 243.082031 105.445312 L 237.21875 109.253906 C 236.632812 109.605469 235.8125 109.488281 235.460938 108.957031 L 233.425781 105.738281 C 233.015625 105.09375 233.191406 104.386719 233.71875 103.976562 Z M 213.234375 116.601562 C 213.234375 134.734375 227.886719 149.433594 245.96875 149.433594 C 264.046875 149.433594 278.714844 134.734375 278.714844 116.601562 C 278.714844 98.464844 264.046875 83.769531 245.96875 83.769531 C 227.886719 83.769531 213.234375 98.464844 213.234375 116.601562"/></g><path fill="#FF1616" d="M 245.804688 83.558594 C 227.371094 83.558594 212.429688 98.503906 212.429688 116.933594 C 212.429688 135.367188 227.371094 150.308594 245.804688 150.308594 C 264.238281 150.308594 279.179688 135.367188 279.179688 116.933594 C 279.179688 98.503906 264.238281 83.558594 245.804688 83.558594"/><g fill="#FFF"><g><g><path d="M 15.390625 0 L 3 0 L 3 -3.671875 L 7.15625 -3.671875 L 7.15625 -18.359375 C 6.96875 -17.703125 6.644531 -17.125 6.1875 -16.625 C 5.738281 -16.125 5.191406 -15.707031 4.546875 -15.375 C 3.910156 -15.039062 3.203125 -14.785156 2.421875 -14.609375 C 1.640625 -14.429688 0.832031 -14.34375 0 -14.34375 L 0 -18.4375 C 0.894531 -18.4375 1.765625 -18.582031 2.609375 -18.875 C 3.460938 -19.175781 4.222656 -19.628906 4.890625 -20.234375 C 5.566406 -20.835938 6.113281 -21.597656 6.53125 -22.515625 C 6.945312 -23.429688 7.15625 -24.53125 7.15625 -25.8125 L 11.25 -25.8125 L 11.25 -3.671875 L 15.390625 -3.671875 Z M 15.390625 0" transform="translate(238.1 129.3)"/></g></g></g></svg>