<svg xmlns="http://www.w3.org/2000/svg" width="375" viewBox="0 0 375 375" height="375" version="1.0"><defs><clipPath id="a"><path d="M 64.4375 109.1875 L 310.4375 109.1875 L 310.4375 265.9375 L 64.4375 265.9375 Z M 64.4375 109.1875"/></clipPath></defs><g clip-path="url(#a)"><path fill="#FEFCFC" d="M 232.164062 176.363281 C 250.667969 176.363281 265.597656 161.304688 265.597656 142.777344 C 265.597656 124.246094 250.667969 109.1875 232.164062 109.1875 C 213.65625 109.1875 198.617188 124.246094 198.617188 142.777344 C 198.617188 161.304688 213.65625 176.363281 232.164062 176.363281 Z M 142.707031 176.363281 C 161.214844 176.363281 176.140625 161.304688 176.140625 142.777344 C 176.140625 124.246094 161.214844 109.1875 142.707031 109.1875 C 124.203125 109.1875 109.164062 124.246094 109.164062 142.777344 C 109.164062 161.304688 124.203125 176.363281 142.707031 176.363281 Z M 142.707031 198.757812 C 116.597656 198.757812 64.4375 211.855469 64.4375 237.945312 L 64.4375 265.9375 L 220.980469 265.9375 L 220.980469 237.945312 C 220.980469 211.855469 168.816406 198.757812 142.707031 198.757812 Z M 232.164062 198.757812 C 228.921875 198.757812 225.285156 198.980469 221.371094 199.375 C 234.34375 208.722656 243.34375 221.316406 243.34375 237.945312 L 243.34375 265.9375 L 310.4375 265.9375 L 310.4375 237.945312 C 310.4375 211.855469 258.273438 198.757812 232.164062 198.757812 Z M 232.164062 198.757812"/></g></svg>