<svg xmlns="http://www.w3.org/2000/svg" width="375" viewBox="0 0 375 375" height="375" version="1.0"><defs><clipPath id="a"><path d="M 61.921875 138 L 313.171875 138 L 313.171875 275.253906 L 61.921875 275.253906 Z M 61.921875 138"/></clipPath><clipPath id="b"><path d="M 183 99.125 L 192 99.125 L 192 128 L 183 128 Z M 183 99.125"/></clipPath></defs><g clip-path="url(#a)"><path fill="#020202" d="M 229.144531 153.246094 C 234.632812 155.007812 240.03125 157.132812 245.25 159.566406 C 268.292969 170.328125 288.65625 186.09375 304.894531 205.699219 C 305.585938 206.523438 305.585938 207.707031 304.894531 208.535156 C 288.65625 228.140625 268.292969 243.882812 245.25 254.667969 C 240.03125 257.101562 234.632812 259.222656 229.144531 260.988281 C 258.878906 237.988281 264.320312 195.203125 241.347656 165.460938 C 237.824219 160.882812 233.71875 156.773438 229.144531 153.246094 Z M 145.925781 153.246094 C 116.191406 176.265625 110.75 219.027344 133.722656 248.773438 C 137.246094 253.351562 141.351562 257.457031 145.925781 260.988281 C 140.414062 259.222656 135.015625 257.101562 129.796875 254.667969 C 106.753906 243.882812 86.414062 228.140625 70.175781 208.535156 C 69.484375 207.707031 69.484375 206.523438 70.175781 205.699219 C 86.414062 186.09375 106.753906 170.351562 129.796875 159.566406 C 135.015625 157.132812 140.414062 155.007812 145.925781 153.269531 Z M 186.519531 146.03125 C 219.824219 145.476562 247.214844 172.046875 247.792969 205.363281 C 247.792969 205.945312 247.792969 206.546875 247.792969 207.128906 C 248.21875 240.441406 221.605469 267.820312 188.328125 268.265625 C 155.023438 268.691406 127.679688 242.027344 127.253906 208.710938 C 127.253906 208.175781 127.253906 207.640625 127.253906 207.128906 C 126.832031 173.878906 153.328125 146.570312 186.519531 146.03125 Z M 192.878906 139.066406 C 170.015625 138.21875 147.261719 142.839844 126.539062 152.53125 C 102.472656 163.808594 81.171875 180.265625 64.21875 200.742188 C 61.164062 204.449219 61.164062 209.808594 64.21875 213.492188 C 81.171875 233.96875 102.472656 250.425781 126.539062 261.703125 C 165.195312 279.789062 209.894531 279.789062 248.574219 261.703125 C 272.621094 250.425781 293.921875 233.96875 310.875 213.492188 C 313.929688 209.808594 313.929688 204.449219 310.875 200.742188 C 293.921875 180.265625 272.621094 163.808594 248.574219 152.53125 C 231.085938 144.359375 212.148438 139.78125 192.878906 139.066406"/></g><path fill="#020202" d="M 210.386719 207.128906 C 210.632812 194.488281 200.640625 184.039062 188.015625 183.769531 C 175.390625 183.503906 164.949219 193.527344 164.683594 206.167969 C 164.683594 206.480469 164.683594 206.792969 164.683594 207.128906 C 164.414062 219.742188 174.429688 230.214844 187.054688 230.460938 C 199.679688 230.730469 210.121094 220.703125 210.386719 208.066406 C 210.386719 207.753906 210.386719 207.441406 210.386719 207.128906"/><path fill="#020202" d="M 106.824219 127.8125 L 122.28125 140.71875 C 123.953125 142.058594 126.382812 141.789062 127.722656 140.117188 C 129.015625 138.507812 128.816406 136.140625 127.230469 134.757812 L 111.773438 121.851562 C 110.101562 120.511719 107.671875 120.777344 106.332031 122.453125 C 105.015625 124.082031 105.238281 126.449219 106.824219 127.8125"/><path fill="#020202" d="M 263.273438 121.851562 L 247.792969 134.757812 C 246.164062 136.140625 245.941406 138.597656 247.304688 140.226562 C 248.707031 141.878906 251.140625 142.101562 252.789062 140.71875 L 268.246094 127.8125 C 269.855469 126.40625 270.054688 123.949219 268.628906 122.339844 C 267.265625 120.753906 264.925781 120.554688 263.273438 121.851562"/><g clip-path="url(#b)"><path fill="#020202" d="M 183.664062 103.605469 L 183.664062 123.746094 C 183.730469 125.890625 185.539062 127.566406 187.679688 127.476562 C 189.710938 127.386719 191.316406 125.78125 191.40625 123.746094 L 191.40625 103.605469 C 191.316406 101.460938 189.53125 99.789062 187.367188 99.878906 C 185.359375 99.964844 183.730469 101.574219 183.664062 103.605469"/></g></svg>