<svg xmlns="http://www.w3.org/2000/svg" width="375" viewBox="0 0 375 375" height="375" version="1.0"><defs><clipPath id="a"><path d="M 44.011719 114.320312 L 331.261719 114.320312 L 331.261719 239 L 44.011719 239 Z M 44.011719 114.320312"/></clipPath><clipPath id="b"><path d="M 183 214 L 192 214 L 192 260.570312 L 183 260.570312 Z M 183 214"/></clipPath></defs><g clip-path="url(#a)"><path fill="#FFF" d="M 54.105469 176.273438 C 90.210938 210.820312 137.457031 229.792969 187.625 229.792969 C 237.789062 229.792969 285.042969 210.820312 321.144531 176.273438 C 285.042969 141.730469 237.789062 122.757812 187.625 122.757812 C 137.457031 122.757812 90.210938 141.730469 54.105469 176.273438 Z M 187.625 238.09375 C 133.832031 238.09375 83.261719 217.179688 45.222656 179.207031 C 44.445312 178.429688 44.007812 177.375 44.007812 176.273438 C 44.007812 175.175781 44.445312 174.121094 45.222656 173.339844 C 83.261719 135.367188 133.832031 114.457031 187.625 114.457031 C 241.417969 114.457031 291.988281 135.367188 330.023438 173.339844 C 330.804688 174.121094 331.242188 175.175781 331.242188 176.273438 C 331.242188 177.375 330.804688 178.429688 330.023438 179.207031 C 291.988281 217.179688 241.417969 238.09375 187.625 238.09375"/></g><path fill="#FFF" d="M 187.609375 220.5625 C 140.125 220.5625 92.632812 203.933594 54.765625 170.679688 C 53.042969 169.167969 52.871094 166.542969 54.390625 164.824219 C 55.90625 163.105469 58.535156 162.933594 60.257812 164.449219 C 132.859375 228.210938 242.371094 228.207031 314.96875 164.449219 C 316.695312 162.9375 319.324219 163.105469 320.835938 164.824219 C 322.351562 166.542969 322.183594 169.167969 320.460938 170.679688 C 282.59375 203.933594 235.101562 220.5625 187.609375 220.5625"/><path fill="#FFF" d="M 274.035156 238.09375 C 272.507812 238.09375 271.035156 237.25 270.3125 235.792969 L 255.003906 205.109375 C 253.980469 203.0625 254.816406 200.570312 256.871094 199.546875 C 258.929688 198.519531 261.421875 199.363281 262.445312 201.410156 L 277.75 232.09375 C 278.773438 234.144531 277.9375 236.636719 275.882812 237.65625 C 275.285156 237.957031 274.65625 238.09375 274.035156 238.09375"/><path fill="#FFF" d="M 236.621094 255.453125 C 234.898438 255.453125 233.285156 254.371094 232.691406 252.652344 L 220.34375 216.878906 C 219.59375 214.710938 220.746094 212.347656 222.917969 211.601562 C 225.085938 210.855469 227.449219 212.003906 228.199219 214.171875 L 240.550781 249.949219 C 241.300781 252.113281 240.144531 254.476562 237.972656 255.226562 C 237.527344 255.378906 237.070312 255.453125 236.621094 255.453125"/><path fill="#FFF" d="M 100.921875 238.09375 C 100.296875 238.09375 99.664062 237.957031 99.074219 237.65625 C 97.015625 236.636719 96.183594 234.144531 97.207031 232.09375 L 112.511719 201.410156 C 113.53125 199.363281 116.023438 198.519531 118.085938 199.546875 C 120.140625 200.570312 120.976562 203.0625 119.953125 205.109375 L 104.644531 235.792969 C 103.921875 237.25 102.449219 238.09375 100.921875 238.09375"/><path fill="#FFF" d="M 138.335938 255.453125 C 137.882812 255.453125 137.429688 255.378906 136.980469 255.226562 C 134.808594 254.476562 133.65625 252.113281 134.402344 249.949219 L 146.753906 214.171875 C 147.5 212.003906 149.859375 210.855469 152.035156 211.601562 C 154.207031 212.347656 155.359375 214.710938 154.609375 216.878906 L 142.265625 252.652344 C 141.671875 254.371094 140.058594 255.453125 138.335938 255.453125"/><g clip-path="url(#b)"><path fill="#FFF" d="M 187.625 260.410156 C 185.328125 260.410156 183.46875 258.554688 183.46875 256.261719 L 183.46875 218.601562 C 183.46875 216.3125 185.328125 214.453125 187.625 214.453125 C 189.921875 214.453125 191.78125 216.3125 191.78125 218.601562 L 191.78125 256.261719 C 191.78125 258.554688 189.921875 260.410156 187.625 260.410156"/></g></svg>