<svg xmlns="http://www.w3.org/2000/svg" width="375" viewBox="0 0 375 375" height="375" version="1.0"><defs><clipPath id="a"><path d="M 100.664062 97.164062 L 274.664062 97.164062 L 274.664062 277.914062 L 100.664062 277.914062 Z M 100.664062 97.164062"/></clipPath></defs><g clip-path="url(#a)"><path d="M 268 97.714844 L 260.1875 103.050781 C 219.324219 130.953125 177.480469 188.714844 156.605469 235.675781 C 153.382812 231.167969 152.40625 229.675781 149.285156 224.667969 C 136.519531 207.460938 120.339844 192.695312 112.660156 187.238281 L 100.664062 192.246094 L 101.042969 192.957031 C 109.328125 202.007812 123.863281 222.089844 145.769531 266.347656 C 147.113281 268.257812 148.542969 270.136719 150.175781 271.882812 C 154.460938 276.46875 158.859375 277.433594 161.789062 277.433594 C 161.792969 277.433594 161.792969 277.433594 161.792969 277.433594 C 170.15625 277.433594 175.089844 270.839844 178.484375 263.125 C 200.425781 181.84375 252.273438 125.886719 274.695312 106.722656 Z M 268 97.714844"/></g></svg>