<svg xmlns="http://www.w3.org/2000/svg" width="375" viewBox="0 0 375 375" height="375" version="1.0"><path fill="#FFA100" d="M 321.921875 342.015625 L 53.109375 342.015625 C 42.039062 342.015625 33.015625 332.996094 33.015625 321.921875 L 33.015625 53.109375 C 33.015625 42.039062 42.039062 33.015625 53.109375 33.015625 L 321.921875 33.015625 C 332.996094 33.015625 342.015625 42.039062 342.015625 53.109375 L 342.015625 321.921875 C 342.015625 332.996094 332.996094 342.015625 321.921875 342.015625"/><path fill="#020202" d="M 187.515625 163.929688 C 164.109375 163.929688 145.0625 142.769531 145.0625 116.757812 C 145.0625 90.746094 164.109375 69.585938 187.515625 69.585938 C 210.929688 69.585938 229.972656 90.746094 229.972656 116.757812 C 229.972656 142.769531 210.929688 163.929688 187.515625 163.929688 Z M 187.515625 163.929688"/><path fill="#020202" d="M 239.40625 300.730469 C 239.40625 277.421875 216.121094 258.273438 187.515625 258.273438 C 158.90625 258.273438 135.625 277.421875 135.625 300.730469 L 135.644531 305.476562 L 239.40625 305.457031 Z M 239.40625 300.730469"/><path fill="#020202" d="M 301.4375 255.835938 C 298.40625 249.949219 291.070312 238.710938 283.300781 226.8125 C 277.671875 218.191406 271.851562 209.277344 268.257812 203.230469 L 266.265625 199.84375 C 260.542969 190.082031 255.605469 181.65625 247.449219 178.726562 C 231.164062 172.875 214.738281 168.972656 187.542969 168.972656 C 163.171875 168.972656 145.226562 171.902344 127.535156 178.769531 C 120.222656 181.605469 115.769531 188.828125 110.621094 197.1875 C 109.445312 199.082031 108.230469 201.0625 106.917969 203.082031 C 104.949219 206.113281 102.671875 209.59375 100.238281 213.304688 C 90.238281 228.566406 77.792969 247.566406 73.523438 255.839844 C 68.957031 264.710938 68.6875 271.738281 72.632812 279.355469 C 75.773438 285.433594 80.136719 293.359375 85.609375 302.914062 L 87.128906 305.484375 L 116.757812 305.480469 L 116.757812 300.730469 C 116.757812 266.859375 148.4375 239.40625 187.515625 239.40625 C 226.59375 239.40625 258.273438 266.859375 258.273438 300.730469 L 258.273438 305.453125 L 287.90625 305.449219 L 289.355469 302.910156 C 294.785156 293.421875 299.15625 285.5 302.339844 279.351562 C 306.273438 271.734375 306.003906 264.699219 301.4375 255.835938 Z M 301.4375 255.835938"/></svg>