<svg xmlns="http://www.w3.org/2000/svg" width="375" viewBox="0 0 375 375" height="375" version="1.0"><defs><clipPath id="a"><path d="M 64 86.484375 L 311.433594 86.484375 L 311.433594 266 L 64 266 Z M 64 86.484375"/></clipPath><clipPath id="b"><path d="M 277 254 L 311.433594 254 L 311.433594 288.234375 L 277 288.234375 Z M 277 254"/></clipPath><clipPath id="c"><path d="M 64 254 L 98 254 L 98 288.234375 L 64 288.234375 Z M 64 254"/></clipPath><clipPath id="d"><path d="M 277 142 L 311.433594 142 L 311.433594 172 L 277 172 Z M 277 142"/></clipPath><clipPath id="e"><path d="M 64 153 L 311.433594 153 L 311.433594 266 L 64 266 Z M 64 153"/></clipPath></defs><path fill="#FFA100" d="M 321.921875 342.015625 L 53.109375 342.015625 C 42.039062 342.015625 33.015625 332.992188 33.015625 321.921875 L 33.015625 53.109375 C 33.015625 42.039062 42.039062 33.015625 53.109375 33.015625 L 321.921875 33.015625 C 332.996094 33.015625 342.015625 42.039062 342.015625 53.109375 L 342.015625 321.921875 C 342.015625 332.992188 332.996094 342.015625 321.921875 342.015625"/><g clip-path="url(#a)"><path fill="#020202" d="M 246.550781 97.691406 C 256.535156 97.691406 265.425781 104.371094 268.167969 113.953125 L 283.65625 168.023438 L 284.230469 170.019531 L 285.480469 171.667969 L 293.347656 182.125 C 297.699219 187.90625 300.09375 195.070312 300.09375 202.300781 L 300.09375 254.609375 L 75.273438 254.609375 L 75.273438 202.300781 C 75.273438 195.070312 77.667969 187.90625 82.015625 182.125 L 89.886719 171.667969 L 91.132812 170.007812 L 91.707031 168.011719 L 107.195312 113.953125 C 109.941406 104.371094 118.832031 97.691406 128.8125 97.691406 L 246.550781 97.691406 M 246.550781 86.484375 L 128.8125 86.484375 C 113.75 86.484375 100.519531 96.4375 96.382812 110.871094 L 80.894531 164.941406 L 73.023438 175.398438 C 67.191406 183.15625 64.03125 192.605469 64.03125 202.300781 L 64.03125 265.816406 L 311.332031 265.816406 L 311.332031 202.300781 C 311.332031 192.605469 308.175781 183.15625 302.339844 175.398438 L 294.472656 164.941406 L 278.980469 110.871094 C 274.84375 96.4375 261.613281 86.484375 246.550781 86.484375 Z M 246.550781 86.484375"/></g><g clip-path="url(#b)"><path fill="#020202" d="M 311.332031 254.609375 L 277.609375 254.609375 L 277.609375 277.023438 C 277.609375 283.210938 282.648438 288.234375 288.851562 288.234375 L 300.09375 288.234375 C 306.296875 288.234375 311.332031 283.210938 311.332031 277.023438 Z M 311.332031 254.609375"/></g><g clip-path="url(#c)"><path fill="#020202" d="M 97.753906 254.609375 L 64.03125 254.609375 L 64.03125 277.023438 C 64.03125 283.210938 69.066406 288.234375 75.273438 288.234375 L 86.515625 288.234375 C 92.71875 288.234375 97.753906 283.210938 97.753906 277.023438 Z M 97.753906 254.609375"/></g><g clip-path="url(#d)"><path fill="#020202" d="M 291.167969 171.644531 L 303.65625 167.496094 C 308.242188 165.972656 311.332031 161.691406 311.332031 156.859375 L 311.332031 153.734375 C 311.332031 147.546875 306.296875 142.523438 300.09375 142.523438 L 277.609375 142.523438 Z M 291.167969 171.644531"/></g><path fill="#020202" d="M 83.140625 171.296875 L 71.71875 167.496094 C 67.121094 165.972656 64.03125 161.691406 64.03125 156.859375 L 64.03125 153.734375 C 64.03125 147.546875 69.066406 142.523438 75.273438 142.523438 L 97.753906 142.523438 Z M 83.140625 171.296875"/><g clip-path="url(#e)"><path fill="#020202" d="M 302.339844 175.398438 L 294.472656 164.941406 L 291.257812 153.734375 L 84.109375 153.734375 L 80.894531 164.941406 L 73.023438 175.398438 C 67.191406 183.15625 64.03125 192.605469 64.03125 202.300781 L 64.03125 265.816406 L 311.332031 265.816406 L 311.332031 202.300781 C 311.332031 192.605469 308.175781 183.167969 302.339844 175.398438 Z M 103.375 220.984375 C 94.066406 220.984375 86.515625 213.453125 86.515625 204.171875 C 86.515625 194.890625 94.066406 187.359375 103.375 187.359375 C 112.683594 187.359375 120.238281 194.890625 120.238281 204.171875 C 120.238281 213.453125 112.683594 220.984375 103.375 220.984375 Z M 271.988281 220.984375 C 262.683594 220.984375 255.128906 213.453125 255.128906 204.171875 C 255.128906 194.890625 262.683594 187.359375 271.988281 187.359375 C 281.296875 187.359375 288.851562 194.890625 288.851562 204.171875 C 288.851562 213.453125 281.296875 220.984375 271.988281 220.984375 Z M 271.988281 220.984375"/></g></svg>