<svg xmlns="http://www.w3.org/2000/svg" width="375" viewBox="0 0 375 375" height="375" version="1.0"><defs><clipPath id="a"><path d="M 63.933594 47 L 319.683594 47 L 319.683594 328 L 63.933594 328 Z M 63.933594 47"/></clipPath></defs><path fill="#FFA100" d="M 321.921875 342.015625 L 53.109375 342.015625 C 42.039062 342.015625 33.015625 332.996094 33.015625 321.921875 L 33.015625 53.109375 C 33.015625 42.039062 42.039062 33.015625 53.109375 33.015625 L 321.921875 33.015625 C 332.996094 33.015625 342.015625 42.039062 342.015625 53.109375 L 342.015625 321.921875 C 342.015625 332.996094 332.996094 342.015625 321.921875 342.015625"/><g clip-path="url(#a)"><path fill="#020202" d="M 265.132812 141.351562 L 273.757812 195.105469 C 273.78125 195.253906 273.792969 195.402344 273.792969 195.550781 L 273.792969 286.53125 C 273.792969 288.851562 271.914062 290.730469 269.597656 290.730469 L 68.128906 290.730469 C 65.8125 290.730469 63.933594 288.851562 63.933594 286.53125 L 63.933594 195.535156 C 63.933594 195.394531 63.945312 195.257812 63.964844 195.121094 L 75.023438 120.878906 C 76.730469 110.609375 85.261719 102.339844 100.617188 96.0625 C 119.953125 88.078125 142.558594 84.085938 168.4375 84.085938 C 189.515625 84.085938 208.425781 86.734375 225.167969 92.035156 L 206.15625 60.746094 L 206.015625 60.425781 C 205.082031 58.339844 205.007812 56.046875 205.945312 53.929688 C 206.992188 51.5625 209.074219 50.027344 211.578125 49.585938 L 221.367188 47.855469 C 225.027344 47.207031 228.460938 48.386719 231.089844 51.085938 L 268.789062 88.214844 L 297.121094 83.210938 C 299.515625 82.789062 301.882812 82.742188 304.210938 83.082031 L 304.4375 83.113281 L 306.871094 83.679688 L 307.027344 83.722656 C 308.6875 84.210938 310.414062 85 312.242188 86.070312 C 314.421875 87.351562 316.132812 89 317.246094 91.027344 C 317.519531 91.414062 317.757812 91.796875 317.96875 92.179688 C 318.230469 92.660156 318.445312 93.148438 318.605469 93.664062 C 318.988281 94.585938 319.265625 95.484375 319.421875 96.378906 C 319.59375 97.355469 319.625 98.351562 319.523438 99.34375 C 319.480469 105.09375 316.03125 109.886719 309.976562 113.605469 C 307.851562 115.007812 305.496094 115.941406 302.964844 116.386719 L 274.632812 121.394531 Z M 180.488281 123.242188 L 180.773438 121.828125 C 180.828125 121.160156 180.722656 120.566406 180.445312 119.960938 L 169.667969 102.285156 L 131.21875 102.285156 C 128.128906 102.285156 125.621094 104.792969 125.621094 107.882812 L 125.621094 117.640625 C 125.621094 120.734375 128.128906 123.242188 131.21875 123.242188 Z M 177.34375 138.847656 L 96.621094 138.847656 C 94.734375 138.847656 92.941406 140.382812 92.609375 142.273438 L 82.746094 198.75 C 82.417969 200.640625 83.898438 202.171875 86.058594 202.171875 L 252.207031 202.171875 C 254.367188 202.171875 255.847656 200.640625 255.519531 198.75 L 250.714844 171.242188 C 249.085938 173.539062 246.726562 175.058594 243.847656 175.566406 L 234.058594 177.296875 C 231.554688 177.738281 229.074219 177.007812 227.277344 175.140625 C 225.675781 173.472656 224.960938 171.292969 225.125 169.011719 L 225.152344 168.660156 L 231.113281 138.847656 L 203.230469 138.847656 L 200.207031 144.339844 C 198.539062 147.53125 195.640625 149.550781 192 150.191406 L 185.472656 151.34375 C 182.96875 151.789062 180.488281 151.058594 178.695312 149.191406 C 177.089844 147.523438 176.375 145.34375 176.539062 143.0625 L 176.566406 142.707031 Z M 225.566406 277 L 243.402344 277 C 246.496094 277 249 279.503906 249 282.597656 L 249 322.355469 C 249 325.449219 246.496094 327.957031 243.402344 327.957031 L 225.566406 327.957031 C 222.476562 327.957031 219.96875 325.449219 219.96875 322.355469 L 219.96875 282.597656 C 219.96875 279.503906 222.476562 277 225.566406 277 Z M 91.300781 277 L 109.140625 277 C 112.230469 277 114.734375 279.503906 114.734375 282.597656 L 114.734375 322.355469 C 114.734375 325.449219 112.230469 327.957031 109.140625 327.957031 L 91.300781 327.957031 C 88.210938 327.957031 85.707031 325.449219 85.707031 322.355469 L 85.707031 282.597656 C 85.707031 279.503906 88.210938 277 91.300781 277 Z M 117.304688 257.949219 C 120.984375 254.40625 122.820312 249.972656 122.820312 244.65625 C 122.820312 239.335938 120.984375 234.902344 117.304688 231.359375 C 113.625 227.8125 109.28125 226.039062 104.265625 226.039062 C 99.25 226.039062 94.902344 227.8125 91.222656 231.359375 C 87.542969 234.902344 85.707031 239.335938 85.707031 244.65625 C 85.707031 249.972656 87.542969 254.40625 91.222656 257.949219 C 94.902344 261.496094 99.25 263.269531 104.265625 263.269531 C 109.28125 263.269531 113.625 261.496094 117.304688 257.949219 Z M 244.160156 257.949219 C 247.9375 254.40625 249.828125 249.972656 249.828125 244.65625 C 249.828125 239.335938 247.9375 234.902344 244.160156 231.359375 C 240.378906 227.8125 235.910156 226.039062 230.753906 226.039062 C 225.601562 226.039062 221.304688 227.8125 217.867188 231.359375 C 214.429688 234.902344 212.710938 239.335938 212.710938 244.65625 C 212.710938 249.972656 214.429688 254.40625 217.867188 257.949219 C 221.304688 261.496094 225.601562 263.269531 230.753906 263.269531 C 235.910156 263.269531 240.378906 261.496094 244.160156 257.949219 Z M 230.707031 169.417969 C 230.652344 170.167969 230.855469 170.78125 231.3125 171.257812 C 231.769531 171.734375 232.363281 171.910156 233.085938 171.78125 L 242.875 170.050781 C 244.6875 169.730469 245.996094 168.664062 246.796875 166.851562 L 269.519531 119.117188 C 270.140625 117.335938 271.445312 116.269531 273.441406 115.917969 L 301.992188 110.871094 C 303.804688 110.554688 305.464844 109.886719 306.96875 108.878906 C 311.695312 106.003906 314.011719 102.714844 313.921875 99.019531 C 314.011719 98.445312 314.003906 97.890625 313.910156 97.347656 C 313.816406 96.808594 313.613281 96.195312 313.304688 95.507812 C 313.273438 95.328125 313.1875 95.109375 313.050781 94.855469 C 312.914062 94.601562 312.722656 94.308594 312.476562 93.980469 C 311.890625 92.785156 310.871094 91.757812 309.410156 90.902344 C 307.953125 90.046875 306.632812 89.445312 305.449219 89.097656 L 303.402344 88.621094 C 301.675781 88.371094 299.90625 88.40625 298.09375 88.726562 L 269.542969 93.769531 C 267.546875 94.121094 265.957031 93.566406 264.765625 92.105469 L 227.117188 55.03125 C 225.746094 53.605469 224.152344 53.050781 222.339844 53.371094 L 212.550781 55.101562 C 211.824219 55.226562 211.328125 55.59375 211.0625 56.199219 C 210.792969 56.800781 210.8125 57.449219 211.121094 58.136719 L 234.804688 97.121094 C 235.292969 97.777344 235.359375 98.414062 235.003906 99.035156 C 234.644531 99.65625 234.101562 100.027344 233.378906 100.15625 L 201.5625 105.777344 C 199.570312 106.128906 197.902344 105.679688 196.558594 104.433594 L 187.28125 96.324219 C 185.941406 95.074219 184.273438 94.628906 182.28125 94.980469 L 175.753906 96.132812 C 175.027344 96.261719 174.53125 96.625 174.265625 97.230469 C 173.996094 97.835938 174.019531 98.480469 174.324219 99.167969 L 185.363281 117.273438 C 186.222656 118.976562 186.539062 120.777344 186.3125 122.671875 L 182.121094 143.464844 C 182.066406 144.21875 182.269531 144.832031 182.726562 145.308594 C 183.183594 145.785156 183.777344 145.957031 184.5 145.828125 L 191.027344 144.675781 C 193.019531 144.324219 194.433594 143.332031 195.269531 141.699219 L 201.21875 130.902344 C 202.054688 129.269531 203.46875 128.277344 205.460938 127.925781 L 237.277344 122.304688 C 238.183594 122.144531 238.863281 122.300781 239.320312 122.777344 C 239.78125 123.253906 239.890625 123.886719 239.65625 124.667969 Z M 230.707031 169.417969"/></g></svg>