<svg xmlns="http://www.w3.org/2000/svg" width="375" viewBox="0 0 375 375" height="375" version="1.0"><defs><clipPath id="a"><path d="M 254 65.25 L 319 65.25 L 319 140 L 254 140 Z M 254 65.25"/></clipPath><clipPath id="b"><path d="M 51.335938 137 L 164 137 L 164 284 L 51.335938 284 Z M 51.335938 137"/></clipPath></defs><path fill="#FFA100" d="M 321.921875 342.015625 L 53.109375 342.015625 C 42.039062 342.015625 33.015625 332.996094 33.015625 321.921875 L 33.015625 53.109375 C 33.015625 42.039062 42.039062 33.015625 53.109375 33.015625 L 321.921875 33.015625 C 332.996094 33.015625 342.015625 42.039062 342.015625 53.109375 L 342.015625 321.921875 C 342.015625 332.996094 332.996094 342.015625 321.921875 342.015625"/><g clip-path="url(#a)"><path fill="#020202" d="M 318.097656 100.144531 C 319.722656 102.421875 318.097656 105.609375 315.273438 105.609375 L 265.585938 105.609375 C 264.863281 105.609375 264.273438 106.199219 264.273438 106.917969 L 264.273438 138.472656 C 264.273438 139.277344 263.535156 139.902344 262.753906 139.714844 C 261.367188 139.390625 259.925781 139.222656 258.453125 139.222656 C 257.550781 139.222656 256.660156 139.285156 255.789062 139.40625 C 255.039062 139.511719 254.378906 138.902344 254.378906 138.144531 L 254.378906 67.253906 C 254.378906 66.148438 255.28125 65.246094 256.382812 65.246094 L 263.578125 65.246094 C 263.664062 65.246094 263.746094 65.265625 263.832031 65.3125 L 263.855469 65.3125 C 264 65.246094 264.128906 65.246094 264.273438 65.246094 L 315.273438 65.246094 C 318.097656 65.246094 319.722656 68.433594 318.097656 70.730469 L 309.070312 83.414062 C 308.226562 84.636719 308.226562 86.242188 309.070312 87.441406 L 318.097656 100.144531"/></g><path fill="#020202" d="M 271.300781 201.273438 L 210.957031 201.273438 C 201.9375 201.273438 194.0625 194.46875 193.480469 185.46875 C 192.847656 175.617188 200.671875 167.429688 210.367188 167.429688 L 246.617188 167.429688 C 249.765625 171.347656 254.8125 173.671875 260.367188 172.988281 C 267.210938 172.144531 272.757812 166.53125 273.523438 159.679688 C 274.546875 150.511719 267.402344 142.753906 258.441406 142.753906 C 253.652344 142.753906 249.386719 144.976562 246.605469 148.441406 L 211.320312 148.441406 C 191.246094 148.441406 174.140625 164.863281 174.460938 184.933594 C 174.773438 204.457031 190.75 220.261719 210.367188 220.261719 L 271.644531 220.261719 C 282.929688 220.261719 292.808594 228.609375 293.882812 239.839844 C 295.113281 252.726562 284.957031 263.621094 272.292969 263.621094 L 136.136719 263.621094 C 135.5 263.621094 134.902344 263.910156 134.503906 264.410156 C 130.667969 269.230469 126.617188 274.132812 122.414062 279.144531 C 121.261719 280.515625 122.226562 282.613281 124.015625 282.613281 L 272.292969 282.613281 C 295.261719 282.613281 313.8125 263.53125 312.945312 240.394531 C 312.117188 218.378906 293.332031 201.273438 271.300781 201.273438"/><g clip-path="url(#b)"><path fill="#020202" d="M 107.417969 221.101562 C 92.3125 221.101562 80.074219 208.839844 80.074219 193.734375 C 80.074219 178.628906 92.3125 166.390625 107.417969 166.390625 C 122.523438 166.390625 134.785156 178.628906 134.785156 193.734375 C 134.785156 208.839844 122.523438 221.101562 107.417969 221.101562 Z M 106.699219 137.777344 C 76.105469 138.15625 51.441406 163.078125 51.441406 193.734375 C 51.441406 202.046875 53.253906 209.960938 56.527344 217.050781 C 64.777344 236.96875 81.886719 257.519531 101.425781 280.558594 C 104.570312 284.25 110.289062 284.25 113.429688 280.558594 C 132.949219 257.519531 150.082031 236.96875 158.332031 217.050781 C 161.621094 209.875 163.4375 201.859375 163.394531 193.4375 C 163.226562 162.488281 137.652344 137.378906 106.699219 137.777344"/></g></svg>