<svg xmlns="http://www.w3.org/2000/svg" width="375" viewBox="0 0 375 375" height="375" version="1.0"><defs><clipPath id="a"><path d="M 73 73 L 301 73 L 301 301.726562 L 73 301.726562 Z M 73 73"/></clipPath></defs><g clip-path="url(#a)"><path fill="#FFF" d="M 265.859375 103.773438 L 265.859375 257.902344 C 265.824219 276.253906 253.363281 293.816406 235.5625 299.601562 C 232.652344 300.527344 229.671875 301.175781 226.660156 301.484375 C 225.117188 301.65625 223.578125 301.726562 222.070312 301.726562 L 169.453125 301.726562 C 167.601562 301.484375 167.054688 301.585938 165.378906 300.730469 C 162.914062 299.429688 161.097656 296.828125 160.753906 294.023438 C 160.585938 292.617188 160.925781 291.214844 161.269531 289.84375 C 161.917969 288.613281 162.605469 287.347656 163.664062 286.386719 C 164.726562 285.460938 165.992188 284.777344 167.363281 284.4375 C 168.046875 284.296875 168.765625 284.296875 169.453125 284.195312 C 187.046875 284.195312 204.613281 284.265625 222.207031 284.195312 C 235.5625 284.058594 247.816406 272.726562 248.332031 258.894531 C 248.332031 258.554688 248.332031 258.210938 248.332031 257.902344 L 248.332031 103.773438 L 227.890625 124.210938 C 227.550781 124.484375 227.480469 124.554688 227.105469 124.828125 C 223.132812 127.636719 216.832031 126.335938 214.367188 121.917969 C 213.890625 121.0625 213.582031 120.105469 213.410156 119.144531 C 213.308594 118.496094 213.273438 117.84375 213.308594 117.195312 C 213.476562 115.035156 214.367188 113.050781 215.839844 111.476562 L 250.898438 76.417969 C 252.0625 75.324219 252.472656 75.117188 253.292969 74.707031 C 256.238281 73.304688 259.972656 73.714844 262.574219 75.769531 C 262.914062 76.042969 262.984375 76.109375 263.292969 76.417969 L 298.347656 111.476562 C 298.65625 111.785156 298.726562 111.886719 299 112.230469 C 302.148438 116.132812 300.949219 122.84375 296.398438 125.34375 C 293.109375 127.15625 288.730469 126.507812 285.957031 123.871094 Z M 125.628906 271.800781 L 145.726562 251.707031 L 146.101562 251.363281 C 146.410156 251.089844 146.511719 250.988281 146.855469 250.746094 C 150.964844 247.835938 157.570312 249.414062 159.832031 254.101562 C 161.40625 257.355469 160.617188 261.464844 158.121094 264.097656 L 123.0625 299.15625 C 121.898438 300.253906 121.488281 300.457031 120.664062 300.867188 C 117.722656 302.273438 113.988281 301.863281 111.421875 299.808594 C 111.078125 299.535156 110.976562 299.464844 110.667969 299.15625 L 75.609375 264.097656 C 73.898438 262.285156 72.976562 259.921875 73.078125 257.421875 C 73.523438 251.980469 79.375 247.769531 84.71875 249.617188 C 85.640625 249.960938 86.496094 250.441406 87.285156 251.054688 C 87.628906 251.328125 87.695312 251.398438 88.003906 251.707031 L 108.101562 271.800781 C 108.066406 219.320312 107.929688 170.738281 108.101562 117.398438 C 108.273438 99.21875 120.769531 81.726562 138.433594 75.972656 C 141.308594 75.050781 144.320312 74.398438 147.335938 74.089844 C 148.839844 73.917969 150.382812 73.851562 151.921875 73.851562 L 204.507812 73.851562 C 205.226562 73.953125 205.914062 73.953125 206.597656 74.089844 C 211.425781 75.289062 214.539062 80.902344 212.726562 85.730469 C 211.699219 88.367188 209.371094 90.457031 206.597656 91.140625 C 205.914062 91.277344 205.226562 91.277344 204.507812 91.378906 C 186.945312 91.378906 169.347656 91.3125 151.75 91.378906 C 138.503906 91.515625 126.175781 102.882812 125.664062 116.679688 C 125.628906 117.023438 125.628906 117.363281 125.628906 117.707031 L 125.628906 271.800781"/></g></svg>