<svg xmlns="http://www.w3.org/2000/svg" width="375" viewBox="0 0 375 375" height="375" version="1.0"><defs><clipPath id="a"><path d="M 97.171875 173 L 277.921875 173 L 277.921875 290.722656 L 97.171875 290.722656 Z M 97.171875 173"/></clipPath><clipPath id="b"><path d="M 97.171875 84.472656 L 277.921875 84.472656 L 277.921875 202 L 97.171875 202 Z M 97.171875 84.472656"/></clipPath></defs><g clip-path="url(#a)"><path fill="#FFF" d="M 277.621094 262.726562 C 277.621094 264.015625 277.296875 265.300781 276.332031 266.269531 L 253.128906 289.433594 C 252.164062 290.398438 250.875 290.722656 249.585938 290.722656 C 248.296875 290.722656 247.007812 290.078125 246.039062 289.433594 L 188.03125 231.195312 L 129.703125 289.113281 C 128.734375 290.078125 127.445312 290.398438 126.15625 290.398438 C 124.867188 290.398438 123.578125 289.757812 122.613281 289.113281 L 99.410156 265.945312 C 97.476562 264.015625 97.476562 261.121094 99.410156 259.1875 L 183.84375 174.886719 C 184.808594 173.921875 186.421875 173.277344 187.710938 173.601562 C 189 173.601562 190.609375 173.921875 191.578125 174.886719 L 276.332031 259.1875 C 277.296875 260.15625 277.621094 261.441406 277.621094 262.726562 Z M 249.585938 279.136719 L 266.019531 262.726562 L 188.03125 184.863281 L 110.042969 262.726562 L 126.480469 279.136719 L 184.808594 220.898438 C 186.742188 218.96875 189.644531 218.96875 191.578125 220.898438 Z M 249.585938 279.136719"/></g><g clip-path="url(#b)"><path fill="#FFF" d="M 277.621094 173.921875 C 277.621094 175.207031 277.296875 176.496094 276.332031 177.460938 L 253.128906 200.628906 C 252.164062 201.59375 250.875 201.914062 249.585938 201.914062 C 248.296875 201.914062 247.007812 201.273438 246.039062 200.628906 L 188.03125 142.390625 L 129.703125 200.304688 C 128.734375 201.273438 127.445312 201.59375 126.15625 201.59375 C 124.867188 201.59375 123.578125 200.949219 122.613281 200.304688 L 99.410156 177.140625 C 97.476562 175.207031 97.476562 172.3125 99.410156 170.382812 L 183.84375 86.082031 C 184.808594 85.117188 186.421875 84.472656 187.710938 84.792969 C 189 84.792969 190.609375 85.117188 191.578125 86.082031 L 276.332031 170.382812 C 277.296875 171.347656 277.621094 172.636719 277.621094 173.921875 Z M 249.585938 190.011719 L 266.019531 173.601562 L 188.03125 96.054688 L 110.042969 173.921875 L 126.480469 190.332031 L 184.808594 132.09375 C 186.742188 130.164062 189.644531 130.164062 191.578125 132.09375 Z M 249.585938 190.011719"/></g></svg>