<svg xmlns="http://www.w3.org/2000/svg" width="375" viewBox="0 0 375 375" height="375" version="1.0"><defs><clipPath id="a"><path d="M 110.234375 139 L 264.734375 139 L 264.734375 282.09375 L 110.234375 282.09375 Z M 110.234375 139"/></clipPath><clipPath id="b"><path d="M 134 121.59375 L 146 121.59375 L 146 152 L 134 152 Z M 134 121.59375"/></clipPath><clipPath id="c"><path d="M 229 121.59375 L 241 121.59375 L 241 152 L 229 152 Z M 229 121.59375"/></clipPath><clipPath id="d"><path d="M 110.234375 165 L 264.734375 165 L 264.734375 178 L 110.234375 178 Z M 110.234375 165"/></clipPath></defs><g clip-path="url(#a)"><path fill="#0E0E0E" d="M 258.746094 282.09375 L 116.226562 282.09375 C 115.835938 282.09375 115.449219 282.054688 115.066406 281.976562 C 114.683594 281.902344 114.3125 281.789062 113.953125 281.640625 C 113.59375 281.488281 113.25 281.308594 112.925781 281.089844 C 112.601562 280.875 112.300781 280.625 112.027344 280.351562 C 111.75 280.074219 111.503906 279.773438 111.289062 279.449219 C 111.070312 279.125 110.886719 278.78125 110.738281 278.421875 C 110.589844 278.0625 110.476562 277.691406 110.402344 277.308594 C 110.324219 276.925781 110.289062 276.539062 110.289062 276.148438 L 110.289062 145.371094 C 110.289062 144.980469 110.324219 144.59375 110.402344 144.210938 C 110.476562 143.828125 110.589844 143.457031 110.738281 143.09375 C 110.886719 142.734375 111.070312 142.390625 111.289062 142.066406 C 111.503906 141.742188 111.75 141.441406 112.027344 141.167969 C 112.300781 140.890625 112.601562 140.644531 112.925781 140.425781 C 113.25 140.210938 113.59375 140.027344 113.953125 139.878906 C 114.3125 139.726562 114.683594 139.617188 115.066406 139.539062 C 115.449219 139.464844 115.835938 139.425781 116.226562 139.425781 L 258.746094 139.425781 C 259.136719 139.425781 259.523438 139.464844 259.902344 139.539062 C 260.285156 139.617188 260.65625 139.726562 261.019531 139.878906 C 261.378906 140.027344 261.71875 140.210938 262.042969 140.425781 C 262.367188 140.644531 262.667969 140.890625 262.945312 141.167969 C 263.21875 141.441406 263.464844 141.742188 263.683594 142.066406 C 263.898438 142.390625 264.082031 142.734375 264.230469 143.09375 C 264.382812 143.457031 264.492188 143.828125 264.570312 144.210938 C 264.644531 144.59375 264.683594 144.980469 264.683594 145.371094 L 264.683594 276.148438 C 264.683594 276.539062 264.644531 276.925781 264.570312 277.308594 C 264.492188 277.691406 264.382812 278.0625 264.230469 278.421875 C 264.082031 278.78125 263.898438 279.125 263.683594 279.449219 C 263.464844 279.773438 263.21875 280.074219 262.945312 280.351562 C 262.667969 280.625 262.367188 280.875 262.042969 281.089844 C 261.71875 281.308594 261.378906 281.488281 261.019531 281.640625 C 260.65625 281.789062 260.285156 281.902344 259.902344 281.976562 C 259.523438 282.054688 259.136719 282.09375 258.746094 282.09375 Z M 122.164062 270.203125 L 252.808594 270.203125 L 252.808594 151.3125 L 122.164062 151.3125 Z M 122.164062 270.203125"/></g><g clip-path="url(#b)"><path fill="#0E0E0E" d="M 139.980469 151.3125 C 139.589844 151.3125 139.203125 151.277344 138.820312 151.199219 C 138.4375 151.125 138.066406 151.011719 137.707031 150.863281 C 137.347656 150.710938 137.003906 150.527344 136.679688 150.3125 C 136.355469 150.09375 136.054688 149.847656 135.78125 149.574219 C 135.503906 149.296875 135.257812 148.996094 135.042969 148.671875 C 134.824219 148.347656 134.640625 148.003906 134.492188 147.644531 C 134.34375 147.285156 134.230469 146.914062 134.15625 146.53125 C 134.078125 146.148438 134.039062 145.761719 134.039062 145.371094 L 134.039062 127.535156 C 134.039062 127.144531 134.078125 126.757812 134.15625 126.375 C 134.230469 125.992188 134.34375 125.621094 134.492188 125.261719 C 134.640625 124.902344 134.824219 124.558594 135.042969 124.234375 C 135.257812 123.910156 135.503906 123.609375 135.78125 123.332031 C 136.054688 123.058594 136.355469 122.808594 136.679688 122.59375 C 137.003906 122.375 137.347656 122.195312 137.707031 122.042969 C 138.066406 121.894531 138.4375 121.78125 138.820312 121.707031 C 139.203125 121.628906 139.589844 121.59375 139.980469 121.59375 C 140.367188 121.59375 140.753906 121.628906 141.136719 121.707031 C 141.519531 121.78125 141.890625 121.894531 142.25 122.042969 C 142.613281 122.195312 142.953125 122.375 143.277344 122.59375 C 143.601562 122.808594 143.902344 123.058594 144.179688 123.332031 C 144.453125 123.609375 144.699219 123.910156 144.917969 124.234375 C 145.132812 124.558594 145.316406 124.902344 145.464844 125.261719 C 145.613281 125.621094 145.726562 125.992188 145.804688 126.375 C 145.878906 126.757812 145.917969 127.144531 145.917969 127.535156 L 145.917969 145.371094 C 145.917969 145.761719 145.878906 146.148438 145.804688 146.53125 C 145.726562 146.914062 145.613281 147.285156 145.464844 147.644531 C 145.316406 148.003906 145.132812 148.347656 144.917969 148.671875 C 144.699219 148.996094 144.453125 149.296875 144.179688 149.574219 C 143.902344 149.847656 143.601562 150.09375 143.277344 150.3125 C 142.953125 150.527344 142.613281 150.710938 142.25 150.863281 C 141.890625 151.011719 141.519531 151.125 141.136719 151.199219 C 140.753906 151.277344 140.367188 151.3125 139.980469 151.3125 Z M 139.980469 151.3125"/></g><g clip-path="url(#c)"><path fill="#0E0E0E" d="M 234.992188 151.3125 C 234.601562 151.3125 234.214844 151.277344 233.832031 151.199219 C 233.453125 151.125 233.078125 151.011719 232.71875 150.863281 C 232.359375 150.710938 232.015625 150.527344 231.691406 150.3125 C 231.367188 150.09375 231.070312 149.847656 230.792969 149.574219 C 230.515625 149.296875 230.269531 148.996094 230.054688 148.671875 C 229.839844 148.347656 229.65625 148.003906 229.507812 147.644531 C 229.355469 147.285156 229.242188 146.914062 229.167969 146.53125 C 229.09375 146.148438 229.054688 145.761719 229.054688 145.371094 L 229.054688 127.535156 C 229.054688 127.144531 229.09375 126.757812 229.167969 126.375 C 229.242188 125.992188 229.355469 125.621094 229.507812 125.261719 C 229.65625 124.902344 229.839844 124.558594 230.054688 124.234375 C 230.269531 123.910156 230.515625 123.609375 230.792969 123.332031 C 231.070312 123.058594 231.367188 122.808594 231.691406 122.59375 C 232.015625 122.375 232.359375 122.195312 232.71875 122.042969 C 233.078125 121.894531 233.453125 121.78125 233.832031 121.707031 C 234.214844 121.628906 234.601562 121.59375 234.992188 121.59375 C 235.382812 121.59375 235.769531 121.628906 236.152344 121.707031 C 236.53125 121.78125 236.90625 121.894531 237.265625 122.042969 C 237.625 122.195312 237.96875 122.375 238.292969 122.59375 C 238.617188 122.808594 238.914062 123.058594 239.191406 123.332031 C 239.46875 123.609375 239.714844 123.910156 239.929688 124.234375 C 240.144531 124.558594 240.328125 124.902344 240.476562 125.261719 C 240.628906 125.621094 240.742188 125.992188 240.816406 126.375 C 240.890625 126.757812 240.929688 127.144531 240.929688 127.535156 L 240.929688 145.371094 C 240.929688 145.761719 240.890625 146.148438 240.816406 146.53125 C 240.742188 146.914062 240.628906 147.285156 240.476562 147.644531 C 240.328125 148.003906 240.144531 148.347656 239.929688 148.671875 C 239.714844 148.996094 239.46875 149.296875 239.191406 149.574219 C 238.914062 149.847656 238.617188 150.09375 238.292969 150.3125 C 237.96875 150.527344 237.625 150.710938 237.265625 150.863281 C 236.90625 151.011719 236.53125 151.125 236.152344 151.199219 C 235.769531 151.277344 235.382812 151.3125 234.992188 151.3125 Z M 234.992188 151.3125"/></g><path fill="#0E0E0E" d="M 145.917969 186.980469 L 157.792969 186.980469 L 157.792969 198.871094 L 145.917969 198.871094 Z M 145.917969 186.980469"/><path fill="#0E0E0E" d="M 181.546875 186.980469 L 193.425781 186.980469 L 193.425781 198.871094 L 181.546875 198.871094 Z M 181.546875 186.980469"/><path fill="#0E0E0E" d="M 217.175781 186.980469 L 229.054688 186.980469 L 229.054688 198.871094 L 217.175781 198.871094 Z M 217.175781 186.980469"/><path fill="#0E0E0E" d="M 145.917969 216.703125 L 157.792969 216.703125 L 157.792969 228.59375 L 145.917969 228.59375 Z M 145.917969 216.703125"/><path fill="#0E0E0E" d="M 181.546875 216.703125 L 193.425781 216.703125 L 193.425781 228.59375 L 181.546875 228.59375 Z M 181.546875 216.703125"/><path fill="#0E0E0E" d="M 217.175781 216.703125 L 229.054688 216.703125 L 229.054688 228.59375 L 217.175781 228.59375 Z M 217.175781 216.703125"/><path fill="#0E0E0E" d="M 145.917969 246.425781 L 157.792969 246.425781 L 157.792969 258.3125 L 145.917969 258.3125 Z M 145.917969 246.425781"/><path fill="#0E0E0E" d="M 181.546875 246.425781 L 193.425781 246.425781 L 193.425781 258.3125 L 181.546875 258.3125 Z M 181.546875 246.425781"/><path fill="#0E0E0E" d="M 217.175781 246.425781 L 229.054688 246.425781 L 229.054688 258.3125 L 217.175781 258.3125 Z M 217.175781 246.425781"/><g clip-path="url(#d)"><path fill="#0E0E0E" d="M 258.746094 177.828125 L 116.226562 177.828125 C 115.835938 177.828125 115.449219 177.789062 115.066406 177.710938 C 114.683594 177.636719 114.3125 177.523438 113.953125 177.375 C 113.59375 177.222656 113.25 177.042969 112.925781 176.824219 C 112.601562 176.609375 112.300781 176.359375 112.027344 176.085938 C 111.75 175.808594 111.503906 175.507812 111.289062 175.183594 C 111.070312 174.859375 110.886719 174.515625 110.738281 174.15625 C 110.589844 173.796875 110.476562 173.425781 110.402344 173.042969 C 110.324219 172.660156 110.289062 172.273438 110.289062 171.882812 C 110.289062 171.492188 110.324219 171.105469 110.402344 170.722656 C 110.476562 170.339844 110.589844 169.96875 110.738281 169.605469 C 110.886719 169.246094 111.070312 168.902344 111.289062 168.578125 C 111.503906 168.253906 111.75 167.953125 112.027344 167.679688 C 112.300781 167.402344 112.601562 167.15625 112.925781 166.9375 C 113.25 166.722656 113.59375 166.539062 113.953125 166.390625 C 114.3125 166.242188 114.683594 166.128906 115.066406 166.050781 C 115.449219 165.976562 115.835938 165.9375 116.226562 165.9375 L 258.746094 165.9375 C 259.136719 165.9375 259.523438 165.976562 259.902344 166.050781 C 260.285156 166.128906 260.65625 166.242188 261.019531 166.390625 C 261.378906 166.539062 261.71875 166.722656 262.042969 166.9375 C 262.367188 167.15625 262.667969 167.402344 262.945312 167.679688 C 263.21875 167.953125 263.464844 168.253906 263.683594 168.578125 C 263.898438 168.902344 264.082031 169.246094 264.230469 169.605469 C 264.382812 169.96875 264.492188 170.339844 264.570312 170.722656 C 264.644531 171.105469 264.683594 171.492188 264.683594 171.882812 C 264.683594 172.273438 264.644531 172.660156 264.570312 173.042969 C 264.492188 173.425781 264.382812 173.796875 264.230469 174.15625 C 264.082031 174.515625 263.898438 174.859375 263.683594 175.183594 C 263.464844 175.507812 263.21875 175.808594 262.945312 176.085938 C 262.667969 176.359375 262.367188 176.609375 262.042969 176.824219 C 261.71875 177.042969 261.378906 177.222656 261.019531 177.375 C 260.65625 177.523438 260.285156 177.636719 259.902344 177.710938 C 259.523438 177.789062 259.136719 177.828125 258.746094 177.828125 Z M 258.746094 177.828125"/></g></svg>