<svg xmlns="http://www.w3.org/2000/svg" width="375" viewBox="0 0 375 375" height="375" version="1.0"><defs><clipPath id="a"><path d="M 75 120.28125 L 300 120.28125 L 300 254.53125 L 75 254.53125 Z M 75 120.28125"/></clipPath></defs><g clip-path="url(#a)"><path fill="#231F20" d="M 262.730469 217.207031 C 245.101562 231.542969 217.734375 248.632812 187.496094 248.632812 C 157.300781 248.632812 129.972656 231.589844 112.363281 217.292969 C 96.871094 204.714844 85.96875 191.984375 82.226562 187.402344 C 85.953125 182.832031 96.800781 170.167969 112.257812 157.597656 C 129.890625 143.261719 157.257812 126.171875 187.496094 126.171875 C 217.691406 126.171875 245.019531 143.214844 262.625 157.511719 C 278.117188 170.089844 289.023438 182.820312 292.761719 187.402344 C 289.039062 191.972656 278.191406 204.636719 262.730469 217.207031 Z M 298.875 185.621094 C 298.367188 184.953125 286.230469 169.113281 266.453125 153.035156 C 254.808594 143.5625 242.9375 136.011719 231.171875 130.585938 C 216.355469 123.75 201.660156 120.285156 187.496094 120.285156 C 173.332031 120.285156 158.636719 123.75 143.820312 130.585938 C 132.054688 136.011719 120.183594 143.5625 108.539062 153.035156 C 88.761719 169.113281 76.625 184.953125 76.117188 185.621094 C 75.316406 186.675781 75.316406 188.128906 76.117188 189.183594 C 76.625 189.847656 88.761719 205.691406 108.539062 221.769531 C 120.183594 231.242188 132.054688 238.792969 143.820312 244.21875 C 158.636719 251.050781 173.332031 254.519531 187.496094 254.519531 C 201.660156 254.519531 216.355469 251.050781 231.171875 244.21875 C 242.9375 238.792969 254.808594 231.242188 266.453125 221.769531 C 286.230469 205.691406 298.367188 189.847656 298.875 189.183594 C 299.675781 188.128906 299.675781 186.675781 298.875 185.621094"/></g><path fill="#231F20" d="M 187.496094 235.546875 C 161.15625 235.546875 139.726562 213.949219 139.726562 187.402344 C 139.726562 160.855469 161.15625 139.257812 187.496094 139.257812 C 213.835938 139.257812 235.265625 160.855469 235.265625 187.402344 C 235.265625 213.949219 213.835938 235.546875 187.496094 235.546875 Z M 187.496094 133.371094 C 157.90625 133.371094 133.835938 157.609375 133.835938 187.402344 C 133.835938 217.195312 157.90625 241.433594 187.496094 241.433594 C 217.085938 241.433594 241.15625 217.195312 241.15625 187.402344 C 241.15625 157.609375 217.085938 133.371094 187.496094 133.371094"/><path fill="#231F20" d="M 187.496094 204.574219 C 178.109375 204.574219 170.472656 196.871094 170.472656 187.402344 C 170.472656 177.933594 178.109375 170.226562 187.496094 170.226562 C 196.882812 170.226562 204.519531 177.933594 204.519531 187.402344 C 204.519531 196.871094 196.882812 204.574219 187.496094 204.574219 Z M 187.496094 164.34375 C 174.859375 164.34375 164.578125 174.6875 164.578125 187.402344 C 164.578125 200.117188 174.859375 210.460938 187.496094 210.460938 C 200.132812 210.460938 210.414062 200.117188 210.414062 187.402344 C 210.414062 174.6875 200.132812 164.34375 187.496094 164.34375"/></svg>