<svg xmlns="http://www.w3.org/2000/svg" width="375" viewBox="0 0 375 375" height="375" version="1.0"><defs><clipPath id="a"><path d="M 112.5 112.5 L 262.5 112.5 L 262.5 262.5 L 112.5 262.5 Z M 112.5 112.5"/></clipPath></defs><g clip-path="url(#a)"><path d="M 262.488281 187.492188 C 262.449219 228.765625 229.132812 262.5 187.457031 262.476562 C 146.054688 262.449219 112.511719 229.03125 112.527344 187.457031 C 112.539062 145.828125 146.222656 112.527344 187.519531 112.511719 C 228.90625 112.5 262.488281 146.109375 262.488281 187.492188 Z M 200.457031 203.917969 C 200.457031 194.675781 200.445312 185.449219 200.472656 176.207031 C 200.484375 172.710938 199.238281 169.75 196.65625 167.449219 C 192.589844 163.8125 187.863281 163.050781 182.789062 164.84375 C 177.949219 166.558594 174.707031 171.210938 174.730469 176.472656 C 174.832031 194.878906 174.78125 213.285156 174.757812 231.6875 C 174.757812 242.085938 183.667969 243.839844 187.925781 243.828125 C 194.332031 243.800781 200.625 238.640625 200.496094 231.230469 C 200.332031 222.128906 200.457031 213.015625 200.457031 203.917969 Z M 201.335938 144.863281 C 201.324219 137.183594 195.195312 131.070312 187.507812 131.070312 C 179.804688 131.070312 173.652344 137.234375 173.664062 144.9375 C 173.675781 152.550781 179.894531 158.753906 187.519531 158.753906 C 195.195312 158.753906 201.335938 152.578125 201.335938 144.863281 Z M 201.335938 144.863281"/></g></svg>