<svg xmlns="http://www.w3.org/2000/svg" width="375" viewBox="0 0 375 375" height="375" version="1.0"><defs><clipPath id="a"><path d="M 108.75 75 L 266.25 75 L 266.25 300 L 108.75 300 Z M 108.75 75"/></clipPath></defs><g clip-path="url(#a)"><path fill="#FEFCFC" d="M 187.5 75 C 144.019531 75 108.75 110.269531 108.75 153.75 C 108.75 212.8125 187.5 300 187.5 300 C 187.5 300 266.25 212.8125 266.25 153.75 C 266.25 110.269531 230.980469 75 187.5 75 Z M 187.5 181.875 C 171.976562 181.875 159.375 169.273438 159.375 153.75 C 159.375 138.226562 171.976562 125.625 187.5 125.625 C 203.023438 125.625 215.625 138.226562 215.625 153.75 C 215.625 169.273438 203.023438 181.875 187.5 181.875 Z M 187.5 181.875"/></g></svg>