<svg xmlns="http://www.w3.org/2000/svg" width="375" viewBox="0 0 375 375" height="375" version="1.0"><defs><clipPath id="a"><path d="M 42 131 L 333.441406 131 L 333.441406 244.632812 L 42 244.632812 Z M 42 131"/></clipPath></defs><g clip-path="url(#a)"><path fill="#FFF" d="M 84.179688 144.652344 C 84.179688 144.652344 97.140625 157.960938 98.574219 158.734375 C 100.011719 159.558594 169.253906 166.574219 194.265625 168.65625 C 219.226562 170.738281 257.339844 173.011719 257.339844 173.011719 C 257.339844 173.011719 233.8125 154.136719 212.101562 145.957031 C 190.441406 137.777344 161.175781 137.636719 144.769531 137.777344 C 128.320312 137.925781 84.179688 144.652344 84.179688 144.652344 Z M 93.9375 202.242188 C 103.835938 202.242188 111.871094 210.519531 111.871094 220.777344 C 111.871094 231.035156 103.835938 239.3125 93.9375 239.3125 C 84.039062 239.3125 76.003906 231.035156 76.003906 220.777344 C 76.003906 210.519531 84.039062 202.242188 93.9375 202.242188 Z M 93.9375 196.917969 C 106.65625 196.917969 116.988281 207.613281 116.988281 220.777344 C 116.988281 233.941406 106.65625 244.636719 93.9375 244.636719 C 81.214844 244.636719 70.9375 233.941406 70.9375 220.777344 C 70.9375 207.613281 81.214844 196.917969 93.9375 196.917969 Z M 280.390625 202.242188 C 290.242188 202.242188 298.273438 210.519531 298.273438 220.777344 C 298.273438 231.035156 290.242188 239.3125 280.390625 239.3125 C 270.488281 239.3125 262.457031 231.035156 262.457031 220.777344 C 262.457031 210.519531 270.488281 202.242188 280.390625 202.242188 Z M 280.390625 196.917969 C 293.109375 196.917969 303.390625 207.613281 303.390625 220.777344 C 303.390625 233.941406 293.109375 244.636719 280.390625 244.636719 C 267.667969 244.636719 257.339844 233.941406 257.339844 220.777344 C 257.339844 207.613281 267.667969 196.917969 280.390625 196.917969 Z M 63.234375 139.621094 C 63.234375 139.621094 89.15625 133.570312 97.382812 133.230469 C 105.605469 132.890625 178.675781 130.664062 190.390625 132.890625 C 202.058594 135.167969 223.578125 142.523438 260.59375 165.898438 C 260.59375 165.898438 303.296875 173.546875 316.589844 177.707031 C 329.886719 181.867188 329.261719 190.871094 329.261719 190.871094 C 329.261719 190.871094 333.375 197.257812 333.375 203.355469 C 333.375 209.40625 332.417969 220.292969 331.460938 223.199219 C 330.503906 226.054688 320.367188 232.148438 307.746094 232.441406 C 307.363281 232.488281 306.738281 232.488281 305.925781 232.488281 C 307.503906 228.90625 308.414062 224.941406 308.414062 220.777344 C 308.414062 205.195312 296.167969 192.511719 281.109375 192.511719 C 266.042969 192.511719 253.847656 205.195312 253.847656 220.777344 C 253.847656 224.699219 254.613281 228.472656 256.003906 231.859375 C 215.929688 231.230469 160.742188 230.3125 120.429688 229.585938 C 121.195312 226.925781 121.625 224.117188 121.625 221.214844 C 121.625 204.707031 108.714844 191.304688 92.742188 191.304688 C 76.816406 191.304688 63.90625 204.707031 63.90625 221.214844 C 63.90625 223.585938 64.191406 225.953125 64.71875 228.179688 C 59.125 227.066406 46.257812 223.96875 44.539062 217.730469 C 42.339844 209.742188 41.8125 198.273438 42.914062 197.160156 C 44.011719 196.046875 47.789062 193.335938 47.789062 193.335938 C 47.789062 193.335938 47.023438 171.898438 48.269531 169.476562 C 49.5625 167.058594 69.789062 145.621094 69.789062 145.621094 C 69.789062 145.621094 58.550781 143.878906 63.234375 139.621094" fill-rule="evenodd"/></g></svg>