<svg xmlns="http://www.w3.org/2000/svg" width="375" viewBox="0 0 375 375" height="375" version="1.0"><defs><clipPath id="a"><path d="M 98.746094 120 L 150 120 L 150 234 L 98.746094 234 Z M 98.746094 120"/></clipPath><clipPath id="b"><path d="M 128 152 L 248.746094 152 L 248.746094 222 L 128 222 Z M 128 152"/></clipPath></defs><path fill="#FFA100" d="M 169.644531 190.046875 L 185.296875 205.695312 C 186.328125 206.753906 188.03125 206.753906 189.089844 205.695312 L 204.714844 190.046875 C 209.710938 185.074219 209.710938 177 204.714844 172.027344 C 199.75 167.050781 191.882812 167.164062 187.164062 171.578125 C 182.449219 167.164062 174.636719 167.050781 169.644531 172.027344 C 164.675781 177 164.675781 185.074219 169.644531 190.046875 Z M 169.644531 190.046875"/><g clip-path="url(#a)"><path fill="#FEFCFC" d="M 117.496094 125.363281 L 144.390625 233.074219 L 149.582031 231.761719 L 122.210938 122.039062 C 121.902344 120.839844 120.84375 120 119.617188 120 L 101.421875 120 C 99.945312 120 98.746094 121.203125 98.746094 122.683594 C 98.746094 124.164062 99.945312 125.363281 101.421875 125.363281 Z M 117.496094 125.363281"/></g><g clip-path="url(#b)"><path fill="#FEFCFC" d="M 242.632812 157.550781 L 227.902344 216.5625 L 144.28125 216.5625 L 144.28125 221.925781 L 229.996094 221.925781 C 231.222656 221.925781 232.28125 221.089844 232.589844 219.886719 L 248.660156 155.511719 C 249.078125 153.835938 247.796875 152.1875 246.066406 152.1875 L 128.210938 152.1875 L 128.210938 157.550781 Z M 242.632812 157.550781"/></g><path fill="#FEFCFC" d="M 160.351562 243.386719 L 213.921875 243.386719 L 213.921875 238.019531 L 160.351562 238.019531 Z M 160.351562 243.386719"/><path fill="#FEFCFC" d="M 163.03125 240.703125 C 163.03125 233.300781 157.03125 227.292969 149.636719 227.292969 C 142.242188 227.292969 136.246094 233.300781 136.246094 240.703125 C 136.246094 248.105469 142.242188 254.113281 149.636719 254.113281 C 157.03125 254.113281 163.03125 248.105469 163.03125 240.703125 Z M 163.03125 240.703125"/><path fill="#FEFCFC" d="M 238.03125 240.703125 C 238.03125 233.300781 232.03125 227.292969 224.636719 227.292969 C 217.242188 227.292969 211.246094 233.300781 211.246094 240.703125 C 211.246094 248.105469 217.242188 254.113281 224.636719 254.113281 C 232.03125 254.113281 238.03125 248.105469 238.03125 240.703125 Z M 238.03125 240.703125"/></svg>