<svg xmlns="http://www.w3.org/2000/svg" width="375" viewBox="0 0 375 375" height="375" version="1.0"><defs><clipPath id="a"><path d="M 80.648438 80.648438 L 294.398438 80.648438 L 294.398438 294.398438 L 80.648438 294.398438 Z M 80.648438 80.648438"/></clipPath></defs><g clip-path="url(#a)"><path fill="#FFF" d="M 187.46875 80.648438 C 128.417969 80.648438 80.648438 128.472656 80.648438 187.523438 C 80.648438 246.570312 128.417969 294.398438 187.46875 294.398438 C 246.515625 294.398438 294.398438 246.570312 294.398438 187.523438 C 294.398438 128.472656 246.515625 80.648438 187.46875 80.648438 Z M 187.523438 273.023438 C 140.28125 273.023438 102.023438 234.761719 102.023438 187.523438 C 102.023438 140.28125 140.28125 102.023438 187.523438 102.023438 C 234.761719 102.023438 273.023438 140.28125 273.023438 187.523438 C 273.023438 234.761719 234.761719 273.023438 187.523438 273.023438 Z M 187.523438 273.023438" fill-opacity=".902"/></g><path fill="#FFF" d="M 192.867188 134.085938 L 176.835938 134.085938 L 176.835938 198.210938 L 232.890625 231.875 L 240.960938 218.730469 L 192.867188 190.195312 Z M 192.867188 134.085938" fill-opacity=".902"/></svg>