<svg xmlns="http://www.w3.org/2000/svg" width="375" viewBox="0 0 375 375" height="375" version="1.0"><defs><clipPath id="a"><path d="M 256 166.96875 L 299 166.96875 L 299 208.21875 L 256 208.21875 Z M 256 166.96875"/></clipPath></defs><path fill="#EBAF4A" d="M 114.632812 182.304688 L 102.222656 180.496094 L 96.667969 169.195312 C 96.34375 168.535156 95.261719 168.535156 94.941406 169.195312 L 89.386719 180.496094 L 76.980469 182.304688 C 76.617188 182.359375 76.316406 182.617188 76.199219 182.964844 C 76.089844 183.316406 76.179688 183.703125 76.445312 183.957031 L 85.425781 192.75 L 83.308594 205.167969 C 83.242188 205.53125 83.394531 205.898438 83.6875 206.113281 C 83.984375 206.332031 84.378906 206.359375 84.703125 206.191406 L 95.804688 200.324219 L 106.90625 206.191406 C 107.050781 206.265625 107.203125 206.296875 107.359375 206.296875 C 107.554688 206.296875 107.753906 206.238281 107.921875 206.113281 C 108.21875 205.898438 108.363281 205.53125 108.300781 205.167969 L 106.183594 192.75 L 115.160156 183.957031 C 115.429688 183.699219 115.523438 183.316406 115.410156 182.964844 C 115.292969 182.613281 114.996094 182.359375 114.632812 182.304688 Z M 114.632812 182.304688"/><path fill="#EBAF4A" d="M 160.15625 182.304688 L 147.746094 180.496094 L 142.191406 169.195312 C 141.871094 168.535156 140.789062 168.535156 140.46875 169.195312 L 134.914062 180.496094 L 122.507812 182.304688 C 122.144531 182.359375 121.839844 182.617188 121.726562 182.964844 C 121.613281 183.316406 121.707031 183.703125 121.972656 183.957031 L 130.953125 192.75 L 128.832031 205.167969 C 128.769531 205.53125 128.917969 205.898438 129.210938 206.113281 C 129.515625 206.332031 129.90625 206.359375 130.226562 206.191406 L 141.332031 200.324219 L 152.429688 206.191406 C 152.574219 206.265625 152.730469 206.296875 152.882812 206.296875 C 153.082031 206.296875 153.28125 206.238281 153.449219 206.113281 C 153.742188 205.898438 153.894531 205.53125 153.828125 205.167969 L 151.707031 192.75 L 160.691406 183.957031 C 160.953125 183.699219 161.046875 183.316406 160.9375 182.964844 C 160.820312 182.613281 160.519531 182.359375 160.15625 182.304688 Z M 160.15625 182.304688"/><path fill="#EBAF4A" d="M 206.152344 182.304688 L 193.742188 180.496094 L 188.191406 169.195312 C 187.871094 168.535156 186.785156 168.535156 186.464844 169.195312 L 180.910156 180.496094 L 168.503906 182.304688 C 168.140625 182.359375 167.839844 182.617188 167.726562 182.964844 C 167.609375 183.316406 167.699219 183.703125 167.96875 183.957031 L 176.949219 192.75 L 174.828125 205.167969 C 174.765625 205.53125 174.914062 205.898438 175.207031 206.113281 C 175.507812 206.332031 175.902344 206.359375 176.222656 206.191406 L 187.328125 200.324219 L 198.433594 206.191406 C 198.566406 206.265625 198.722656 206.296875 198.875 206.296875 C 199.074219 206.296875 199.277344 206.238281 199.445312 206.113281 C 199.734375 205.898438 199.890625 205.53125 199.824219 205.167969 L 197.703125 192.75 L 206.6875 183.957031 C 206.953125 183.699219 207.042969 183.316406 206.929688 182.964844 C 206.816406 182.613281 206.511719 182.359375 206.152344 182.304688 Z M 206.152344 182.304688"/><path fill="#EBAF4A" d="M 250.765625 182.304688 L 238.355469 180.496094 L 232.800781 169.195312 C 232.476562 168.535156 231.394531 168.535156 231.074219 169.195312 L 225.523438 180.496094 L 213.113281 182.304688 C 212.75 182.359375 212.453125 182.617188 212.335938 182.964844 C 212.222656 183.316406 212.308594 183.703125 212.574219 183.957031 L 221.5625 192.75 L 219.4375 205.167969 C 219.375 205.53125 219.519531 205.898438 219.820312 206.113281 C 220.117188 206.332031 220.507812 206.359375 220.832031 206.191406 L 231.9375 200.324219 L 243.039062 206.191406 C 243.179688 206.265625 243.332031 206.296875 243.488281 206.296875 C 243.6875 206.296875 243.882812 206.238281 244.054688 206.113281 C 244.347656 205.898438 244.496094 205.53125 244.4375 205.167969 L 242.316406 192.75 L 251.296875 183.957031 C 251.558594 183.699219 251.648438 183.316406 251.535156 182.964844 C 251.425781 182.613281 251.125 182.359375 250.765625 182.304688 Z M 250.765625 182.304688"/><g clip-path="url(#a)"><path fill="#EBAF4A" d="M 298.703125 182.421875 C 298.386719 181.457031 297.535156 180.734375 296.527344 180.585938 L 285.015625 178.90625 L 279.867188 168.429688 C 279.429688 167.527344 278.503906 166.964844 277.453125 166.964844 C 276.410156 166.964844 275.484375 167.523438 275.042969 168.425781 L 269.890625 178.90625 L 258.382812 180.585938 C 257.363281 180.734375 256.53125 181.441406 256.210938 182.421875 C 255.886719 183.398438 256.15625 184.488281 256.886719 185.199219 L 265.21875 193.359375 L 263.25 204.878906 C 263.078125 205.90625 263.492188 206.917969 264.320312 207.519531 C 264.785156 207.859375 265.332031 208.035156 265.90625 208.035156 C 266.34375 208.035156 266.777344 207.925781 267.15625 207.726562 L 277.453125 202.289062 L 287.738281 207.71875 C 288.628906 208.195312 289.765625 208.125 290.589844 207.515625 C 291.414062 206.914062 291.832031 205.871094 291.65625 204.875 L 289.691406 193.359375 L 298.003906 185.214844 C 298.753906 184.503906 299.023438 183.441406 298.703125 182.421875 Z M 277.453125 198.363281 L 266.925781 203.921875 L 268.9375 192.140625 L 260.417969 183.800781 L 272.1875 182.082031 L 277.453125 171.367188 L 282.722656 182.082031 L 294.492188 183.800781 L 285.976562 192.140625 L 287.984375 203.921875 Z M 277.453125 198.363281"/></g></svg>