<svg xmlns="http://www.w3.org/2000/svg" width="375" viewBox="0 0 375 375" height="375" version="1.0"><defs><clipPath id="a"><path d="M 59.773438 80.53125 L 295 80.53125 L 295 113 L 59.773438 113 Z M 59.773438 80.53125"/></clipPath><clipPath id="b"><path d="M 59.773438 144 L 295 144 L 295 252 L 59.773438 252 Z M 59.773438 144"/></clipPath><clipPath id="c"><path d="M 208 187 L 315.523438 187 L 315.523438 294 L 208 294 Z M 208 187"/></clipPath></defs><g clip-path="url(#a)"><path fill="#FFF" d="M 294.210938 112.808594 L 294.210938 102.175781 C 294.210938 90.480469 284.617188 80.90625 272.902344 80.90625 L 81.089844 80.90625 C 69.367188 80.90625 59.773438 90.480469 59.773438 102.175781 L 59.773438 112.808594 Z M 294.210938 112.808594"/></g><g clip-path="url(#b)"><path fill="#FFF" d="M 59.773438 144.710938 L 59.773438 229.785156 C 59.773438 241.476562 69.367188 251.050781 81.089844 251.050781 L 187.648438 251.050781 L 187.648438 240.417969 C 187.648438 199.378906 221.117188 165.980469 262.242188 165.980469 L 294.210938 165.980469 L 294.210938 144.710938 Z M 113.058594 219.148438 L 81.089844 219.148438 L 81.089844 197.882812 L 113.058594 197.882812 Z M 166.335938 219.148438 L 134.367188 219.148438 L 134.367188 197.882812 L 166.335938 197.882812 Z M 166.335938 219.148438"/></g><g clip-path="url(#c)"><path fill="#FFF" d="M 262.242188 187.246094 C 232.824219 187.246094 208.964844 211.0625 208.964844 240.417969 C 208.964844 269.773438 232.824219 293.585938 262.242188 293.585938 C 291.664062 293.585938 315.523438 269.773438 315.523438 240.417969 C 315.523438 211.0625 291.664062 187.246094 262.242188 187.246094 Z M 258.476562 263.917969 L 230.222656 235.710938 L 241.523438 224.433594 L 258.476562 241.351562 L 282.972656 216.917969 L 294.273438 228.195312 Z M 258.476562 263.917969"/></g></svg>