<svg xmlns="http://www.w3.org/2000/svg" width="375" viewBox="0 0 375 375" height="375" version="1.0"><defs><clipPath id="a"><path d="M 89 188.363281 L 93.90625 188.363281 L 93.90625 294.355469 L 89 294.355469 Z M 89 188.363281"/></clipPath><clipPath id="b"><path d="M 134 174 L 166 174 L 166 294.355469 L 134 294.355469 Z M 134 174"/></clipPath><clipPath id="c"><path d="M 76.523438 155.871094 L 167 155.871094 L 167 294.355469 L 76.523438 294.355469 Z M 76.523438 155.871094"/></clipPath><clipPath id="d"><path d="M 281.003906 188.363281 L 286 188.363281 L 286 294.355469 L 281.003906 294.355469 Z M 281.003906 188.363281"/></clipPath><clipPath id="e"><path d="M 208 174 L 241 174 L 241 294.355469 L 208 294.355469 Z M 208 174"/></clipPath><clipPath id="f"><path d="M 208 155.414062 L 298.523438 155.414062 L 298.523438 294.355469 L 208 294.355469 Z M 208 155.414062"/></clipPath><clipPath id="g"><path d="M 112.664062 235.496094 L 117.695312 235.496094 L 117.695312 294.355469 L 112.664062 294.355469 Z M 112.664062 235.496094"/></clipPath><clipPath id="h"><path d="M 184.480469 222.683594 L 189.515625 222.683594 L 189.515625 294.355469 L 184.480469 294.355469 Z M 184.480469 222.683594"/></clipPath><clipPath id="i"><path d="M 259.046875 235.496094 L 264 235.496094 L 264 294.355469 L 259.046875 294.355469 Z M 259.046875 235.496094"/></clipPath></defs><path fill="#FFF" d="M 205.675781 109.222656 C 205.554688 119.28125 199.128906 129.890625 188.304688 130.757812 C 177.578125 131.617188 169.789062 121.765625 168.703125 111.910156 C 167.574219 101.679688 173.199219 90.558594 183.671875 88.015625 C 194.203125 85.464844 202.867188 94.402344 205.109375 103.90625 C 205.519531 105.652344 205.652344 107.433594 205.675781 109.222656 C 205.710938 112.167969 210.285156 112.175781 210.25 109.222656 C 210.125 99.019531 204.816406 88.695312 195.0625 84.667969 C 185.476562 80.714844 175.375 84.632812 169.289062 92.585938 C 162.757812 101.121094 162.515625 113.445312 167.34375 122.78125 C 171.976562 131.742188 181.851562 136.921875 191.789062 134.839844 C 203.410156 132.402344 210.113281 120.347656 210.25 109.222656 C 210.285156 106.269531 205.710938 106.273438 205.675781 109.222656"/><path fill="#FFF" d="M 134.140625 126.195312 C 134.019531 136.253906 127.59375 146.863281 116.773438 147.730469 C 106.042969 148.589844 98.253906 138.738281 97.167969 128.882812 C 96.039062 118.652344 101.664062 107.53125 112.140625 104.988281 C 122.667969 102.4375 131.335938 111.375 133.578125 120.878906 C 133.988281 122.625 134.121094 124.402344 134.140625 126.195312 C 134.175781 129.144531 138.75 129.144531 138.714844 126.195312 C 138.59375 115.992188 133.28125 105.667969 123.527344 101.640625 C 113.941406 97.6875 103.839844 101.609375 97.757812 109.558594 C 91.222656 118.09375 90.984375 130.417969 95.808594 139.753906 C 100.441406 148.714844 110.316406 153.894531 120.257812 151.808594 C 131.875 149.375 138.578125 137.320312 138.714844 126.195312 C 138.75 123.242188 134.175781 123.242188 134.140625 126.195312"/><g clip-path="url(#a)"><path fill="#FFF" d="M 89.257812 190.773438 C 89.257812 212.699219 89.257812 234.625 89.257812 256.550781 C 89.257812 268.414062 89.257812 280.277344 89.257812 292.144531 C 89.257812 295.09375 93.835938 295.09375 93.835938 292.144531 C 93.835938 270.21875 93.835938 248.292969 93.835938 226.367188 C 93.835938 214.503906 93.835938 202.636719 93.835938 190.773438 C 93.835938 187.824219 89.257812 187.824219 89.257812 190.773438"/></g><g clip-path="url(#b)"><path fill="#FFF" d="M 138.714844 292.144531 C 138.714844 271.324219 138.714844 250.507812 138.714844 229.691406 C 138.714844 211.917969 138.714844 194.140625 138.714844 176.367188 C 137.953125 177.132812 137.191406 177.894531 136.429688 178.65625 C 145.527344 178.65625 154.621094 178.65625 163.71875 178.65625 C 166.667969 178.65625 166.667969 174.082031 163.71875 174.082031 C 154.621094 174.082031 145.527344 174.082031 136.429688 174.082031 C 135.183594 174.082031 134.140625 175.121094 134.140625 176.367188 C 134.140625 197.1875 134.140625 218.003906 134.140625 238.820312 C 134.140625 256.597656 134.140625 274.371094 134.140625 292.144531 C 134.140625 295.09375 138.714844 295.09375 138.714844 292.144531"/></g><g clip-path="url(#c)"><path fill="#FFF" d="M 166.96875 292.144531 C 166.96875 272.792969 166.96875 253.441406 166.96875 234.089844 C 166.96875 209.800781 166.96875 185.507812 166.96875 161.21875 C 166.96875 160.222656 166.96875 159.230469 166.96875 158.238281 C 166.96875 156.988281 165.929688 155.949219 164.683594 155.949219 C 154.25 155.949219 143.820312 155.949219 133.390625 155.949219 C 127.769531 155.949219 122.152344 155.949219 116.535156 155.949219 C 108.273438 155.949219 100.296875 157.941406 93.289062 162.410156 C 85.0625 167.660156 79.042969 176.164062 77.238281 185.789062 C 76.082031 191.957031 76.679688 198.632812 76.679688 204.871094 C 76.679688 214.671875 76.679688 224.46875 76.679688 234.269531 C 76.679688 235.519531 77.71875 236.558594 78.964844 236.558594 C 80.730469 236.558594 82.496094 236.558594 84.257812 236.558594 C 87.210938 236.558594 87.210938 231.980469 84.257812 231.980469 C 82.496094 231.980469 80.730469 231.980469 78.964844 231.980469 C 79.726562 232.746094 80.488281 233.507812 81.253906 234.269531 C 81.253906 224.46875 81.253906 214.671875 81.253906 204.871094 C 81.253906 198.660156 80.609375 191.949219 81.882812 185.828125 C 83.960938 175.8125 91.355469 167.941406 100.445312 163.699219 C 106.082031 161.074219 112.132812 160.523438 118.25 160.523438 C 124.203125 160.523438 130.160156 160.523438 136.117188 160.523438 C 145.636719 160.523438 155.160156 160.523438 164.683594 160.523438 C 163.921875 159.761719 163.15625 159 162.394531 158.238281 C 162.394531 177.589844 162.394531 196.941406 162.394531 216.292969 C 162.394531 240.582031 162.394531 264.871094 162.394531 289.160156 C 162.394531 290.15625 162.394531 291.148438 162.394531 292.144531 C 162.394531 295.09375 166.96875 295.09375 166.96875 292.144531"/></g><path fill="#FFF" d="M 236.386719 126.195312 C 236.511719 136.398438 241.824219 146.71875 251.574219 150.746094 C 261.160156 154.699219 271.261719 150.777344 277.347656 142.828125 C 283.878906 134.292969 284.117188 121.96875 279.292969 112.632812 C 274.664062 103.671875 264.785156 98.492188 254.84375 100.578125 C 243.230469 103.011719 236.523438 115.066406 236.386719 126.195312 C 236.351562 129.144531 240.925781 129.144531 240.960938 126.195312 C 241.085938 116.132812 247.511719 105.523438 258.332031 104.65625 C 269.058594 103.796875 276.847656 113.648438 277.933594 123.503906 C 279.0625 133.734375 273.441406 144.855469 262.964844 147.398438 C 252.4375 149.953125 243.769531 141.011719 241.527344 131.507812 C 241.113281 129.761719 240.984375 127.984375 240.960938 126.195312 C 240.925781 123.242188 236.351562 123.242188 236.386719 126.195312"/><g clip-path="url(#d)"><path fill="#FFF" d="M 281.269531 190.773438 C 281.269531 212.699219 281.269531 234.625 281.269531 256.550781 C 281.269531 268.414062 281.269531 280.277344 281.269531 292.144531 C 281.269531 295.09375 285.84375 295.09375 285.84375 292.144531 C 285.84375 270.21875 285.84375 248.292969 285.84375 226.367188 C 285.84375 214.503906 285.84375 202.636719 285.84375 190.773438 C 285.84375 187.824219 281.269531 187.824219 281.269531 190.773438"/></g><g clip-path="url(#e)"><path fill="#FFF" d="M 240.960938 292.144531 C 240.960938 271.324219 240.960938 250.507812 240.960938 229.691406 C 240.960938 211.917969 240.960938 194.140625 240.960938 176.367188 C 240.960938 175.121094 239.921875 174.082031 238.671875 174.082031 C 229.257812 174.082031 219.839844 174.082031 210.421875 174.082031 C 207.472656 174.082031 207.472656 178.65625 210.421875 178.65625 C 219.839844 178.65625 229.257812 178.65625 238.671875 178.65625 C 237.914062 177.894531 237.148438 177.132812 236.386719 176.367188 C 236.386719 197.1875 236.386719 218.003906 236.386719 238.820312 C 236.386719 256.597656 236.386719 274.371094 236.386719 292.144531 C 236.386719 295.09375 240.960938 295.09375 240.960938 292.144531"/></g><g clip-path="url(#f)"><path fill="#FFF" d="M 212.707031 292.144531 C 212.707031 272.792969 212.707031 253.441406 212.707031 234.089844 C 212.707031 209.800781 212.707031 185.507812 212.707031 161.21875 C 212.707031 160.222656 212.707031 159.230469 212.707031 158.238281 C 211.945312 159 211.183594 159.761719 210.421875 160.523438 C 220.851562 160.523438 231.28125 160.523438 241.714844 160.523438 C 247.332031 160.523438 252.949219 160.523438 258.566406 160.523438 C 266.910156 160.523438 274.734375 162.777344 281.492188 167.75 C 288.925781 173.21875 293.574219 182.027344 293.84375 191.230469 C 294.003906 196.625 293.851562 202.046875 293.851562 207.441406 C 293.851562 216.382812 293.851562 225.328125 293.851562 234.269531 C 294.613281 233.507812 295.375 232.746094 296.140625 231.980469 C 294.375 231.980469 292.609375 231.980469 290.84375 231.980469 C 287.894531 231.980469 287.894531 236.558594 290.84375 236.558594 C 292.609375 236.558594 294.375 236.558594 296.140625 236.558594 C 297.382812 236.558594 298.425781 235.519531 298.425781 234.269531 C 298.425781 224.46875 298.425781 214.671875 298.425781 204.871094 C 298.425781 198.574219 298.910156 192.019531 297.863281 185.789062 C 296.207031 175.882812 289.625 167.394531 281.296875 162.082031 C 269.402344 154.488281 255.148438 155.949219 241.714844 155.949219 C 231.28125 155.949219 220.851562 155.949219 210.421875 155.949219 C 209.171875 155.949219 208.132812 156.988281 208.132812 158.238281 C 208.132812 177.589844 208.132812 196.941406 208.132812 216.292969 C 208.132812 240.582031 208.132812 264.871094 208.132812 289.160156 C 208.132812 290.15625 208.132812 291.148438 208.132812 292.144531 C 208.132812 295.09375 212.707031 295.09375 212.707031 292.144531"/></g><path fill="#FFF" d="M 131.152344 144.480469 C 152.171875 144.480469 173.191406 144.480469 194.207031 144.480469 C 210.824219 144.480469 227.4375 144.480469 244.050781 144.480469 C 247.003906 144.480469 247.003906 139.902344 244.050781 139.902344 C 223.035156 139.902344 202.015625 139.902344 180.996094 139.902344 C 164.382812 139.902344 147.769531 139.902344 131.152344 139.902344 C 128.207031 139.902344 128.207031 144.480469 131.152344 144.480469"/><g clip-path="url(#g)"><path fill="#FFF" d="M 112.824219 237.753906 C 112.824219 255.886719 112.824219 274.015625 112.824219 292.144531 C 112.824219 295.09375 117.398438 295.09375 117.398438 292.144531 C 117.398438 274.015625 117.398438 255.886719 117.398438 237.753906 C 117.398438 234.804688 112.824219 234.804688 112.824219 237.753906"/></g><g clip-path="url(#h)"><path fill="#FFF" d="M 184.835938 225.191406 C 184.835938 246.988281 184.835938 268.785156 184.835938 290.585938 C 184.835938 291.105469 184.835938 291.625 184.835938 292.144531 C 184.835938 295.09375 189.410156 295.09375 189.410156 292.144531 C 189.410156 270.347656 189.410156 248.546875 189.410156 226.75 C 189.410156 226.230469 189.410156 225.710938 189.410156 225.191406 C 189.410156 222.238281 184.835938 222.238281 184.835938 225.191406"/></g><g clip-path="url(#i)"><path fill="#FFF" d="M 259.261719 237.753906 C 259.261719 255.886719 259.261719 274.015625 259.261719 292.144531 C 259.261719 295.09375 263.835938 295.09375 263.835938 292.144531 C 263.835938 274.015625 263.835938 255.886719 263.835938 237.753906 C 263.835938 234.804688 259.261719 234.804688 259.261719 237.753906"/></g></svg>