<svg xmlns="http://www.w3.org/2000/svg" width="375" viewBox="0 0 375 375" height="375" version="1.0"><defs><clipPath id="a"><path d="M 71 87.894531 L 304 87.894531 L 304 287.394531 L 71 287.394531 Z M 71 87.894531"/></clipPath></defs><g clip-path="url(#a)"><path fill="#FFF" d="M 290.289062 87.921875 L 84.859375 87.921875 C 77.3125 87.921875 71.171875 94.074219 71.171875 101.617188 L 71.171875 243.046875 C 71.171875 250.609375 77.3125 256.753906 84.859375 256.753906 L 151.671875 256.753906 L 151.671875 273.226562 L 149.890625 273.226562 C 145.996094 273.226562 142.824219 276.398438 142.824219 280.296875 C 142.824219 284.203125 145.996094 287.378906 149.890625 287.378906 L 225.238281 287.378906 C 229.144531 287.378906 232.300781 284.203125 232.300781 280.296875 C 232.300781 276.398438 229.144531 273.226562 225.238281 273.226562 L 223.476562 273.226562 L 223.476562 256.753906 L 290.289062 256.753906 C 297.832031 256.753906 303.972656 250.609375 303.972656 243.046875 L 303.972656 101.617188 C 303.972656 94.074219 297.832031 87.921875 290.289062 87.921875 Z M 293.375 243.039062 C 293.375 244.742188 291.984375 246.140625 290.289062 246.140625 L 84.859375 246.140625 C 83.15625 246.140625 81.773438 244.75 81.773438 243.039062 L 81.773438 101.617188 C 81.773438 99.929688 83.148438 98.53125 84.859375 98.53125 L 290.289062 98.53125 C 291.976562 98.53125 293.375 99.921875 293.375 101.617188 Z M 293.375 243.039062"/></g><path fill="#FFF" d="M 115.152344 180.28125 L 101.03125 180.28125 C 97.125 180.28125 93.953125 183.441406 93.953125 187.351562 L 93.953125 233.601562 L 122.214844 233.601562 L 122.214844 187.351562 C 122.214844 183.441406 119.042969 180.28125 115.152344 180.28125 Z M 115.152344 180.28125"/><path fill="#FFF" d="M 154.894531 166.433594 L 140.773438 166.433594 C 136.867188 166.433594 133.695312 169.609375 133.695312 173.503906 L 133.695312 233.601562 L 161.957031 233.601562 L 161.957031 173.503906 C 161.957031 169.601562 158.785156 166.433594 154.894531 166.433594 Z M 154.894531 166.433594"/><path fill="#FFF" d="M 194.636719 193.394531 L 180.515625 193.394531 C 176.609375 193.394531 173.4375 196.570312 173.4375 200.464844 L 173.4375 233.601562 L 201.703125 233.601562 L 201.703125 200.464844 C 201.695312 196.570312 198.53125 193.394531 194.636719 193.394531 Z M 194.636719 193.394531"/><path fill="#FFF" d="M 234.382812 159.363281 L 220.261719 159.363281 C 216.355469 159.363281 213.179688 162.539062 213.179688 166.433594 L 213.179688 233.601562 L 241.445312 233.601562 L 241.445312 166.433594 C 241.4375 162.539062 238.289062 159.363281 234.382812 159.363281 Z M 234.382812 159.363281"/><path fill="#FFF" d="M 274.117188 145.230469 L 259.996094 145.230469 C 256.089844 145.230469 252.917969 148.390625 252.917969 152.300781 L 252.917969 233.601562 L 281.179688 233.601562 L 281.179688 152.300781 C 281.179688 148.386719 278.03125 145.230469 274.117188 145.230469 Z M 274.117188 145.230469"/><path fill="#FFF" d="M 108.085938 163.449219 C 112.765625 163.449219 116.554688 159.640625 116.554688 154.960938 C 116.554688 154.914062 116.539062 154.859375 116.539062 154.8125 L 141.121094 146.25 C 142.671875 148.269531 145.085938 149.59375 147.832031 149.59375 C 149.78125 149.59375 151.539062 148.910156 152.972656 147.800781 L 179.449219 165.765625 C 179.25 166.507812 179.089844 167.273438 179.089844 168.066406 C 179.089844 172.761719 182.882812 176.554688 187.574219 176.554688 C 192.25 176.554688 196.042969 172.761719 196.042969 168.066406 C 196.042969 166.929688 195.816406 165.84375 195.402344 164.855469 L 222.9375 141.277344 C 224.21875 142.058594 225.710938 142.53125 227.316406 142.53125 C 231.996094 142.53125 235.785156 138.738281 235.785156 134.042969 C 235.785156 133.984375 235.769531 133.910156 235.769531 133.859375 L 260.398438 125.085938 C 261.945312 127.085938 264.347656 128.398438 267.058594 128.398438 C 271.738281 128.398438 275.542969 124.589844 275.542969 119.910156 C 275.542969 115.210938 271.738281 111.417969 267.058594 111.417969 C 262.367188 111.417969 258.578125 115.210938 258.578125 119.910156 C 258.578125 119.96875 258.59375 120.039062 258.605469 120.089844 L 233.980469 128.863281 C 232.429688 126.863281 230.03125 125.550781 227.316406 125.550781 C 222.625 125.550781 218.835938 129.34375 218.835938 134.042969 C 218.835938 135.175781 219.074219 136.277344 219.472656 137.265625 L 191.953125 160.84375 C 190.65625 160.0625 189.179688 159.589844 187.574219 159.589844 C 185.625 159.589844 183.847656 160.273438 182.414062 161.382812 L 155.941406 143.40625 C 156.152344 142.675781 156.296875 141.910156 156.296875 141.105469 C 156.296875 136.421875 152.507812 132.628906 147.832031 132.628906 C 143.136719 132.628906 139.347656 136.421875 139.347656 141.105469 C 139.347656 141.160156 139.363281 141.207031 139.363281 141.257812 L 114.78125 149.820312 C 113.230469 147.800781 110.816406 146.460938 108.085938 146.460938 C 103.394531 146.460938 99.605469 150.269531 99.605469 154.953125 C 99.605469 159.632812 103.402344 163.449219 108.085938 163.449219 Z M 108.085938 163.449219"/></svg>