<svg width="19" height="20" viewBox="0 0 19 20" fill="none" xmlns="http://www.w3.org/2000/svg">
<path d="M9.33759 0.833008C6.87565 0.833008 6.56883 0.84513 5.60534 0.886692C4.63789 0.935181 3.98349 1.08815 3.40608 1.31674C2.80175 1.54939 2.25446 1.91363 1.80234 2.38408C1.3397 2.84403 0.982296 3.40242 0.755635 4.01943C0.531463 4.60822 0.381448 5.27552 0.333897 6.26204C0.290307 7.2451 0.28125 7.55739 0.28125 10.0679C0.28125 12.5783 0.293138 12.8912 0.333897 13.8737C0.381448 14.8573 0.531463 15.5275 0.755635 16.1163C0.983782 16.7325 1.34098 17.2906 1.80234 17.7516C2.2534 18.2234 2.801 18.5878 3.40608 18.819C3.98349 19.0447 4.64072 19.2005 5.60534 19.249C6.5694 19.2935 6.87565 19.3027 9.33759 19.3027C11.7995 19.3027 12.1063 19.2906 13.0698 19.249C14.0344 19.2005 14.6917 19.0441 15.2691 18.819C15.8734 18.5863 16.4207 18.2221 16.8728 17.7516C17.3361 17.2922 17.6936 16.7336 17.9195 16.1163C18.1409 15.5275 18.2937 14.8573 18.3413 13.8737C18.3849 12.8906 18.3939 12.5783 18.3939 10.0679C18.3939 7.55739 18.382 7.24452 18.3413 6.26204C18.2937 5.27841 18.1403 4.60476 17.9195 4.01943C17.6914 3.40319 17.3342 2.84511 16.8728 2.38408C16.4223 1.91171 15.8745 1.54717 15.2691 1.31674C14.6917 1.08815 14.0344 0.935181 13.0698 0.886692C12.1058 0.842244 11.7995 0.833008 9.33759 0.833008ZM9.33759 2.49549C11.7554 2.49549 12.0441 2.50761 12.9996 2.54917C13.881 2.59131 14.3611 2.7414 14.6798 2.86839C15.0738 3.0167 15.4304 3.25275 15.7237 3.55936C16.0238 3.85712 16.2545 4.21993 16.3984 4.62092C16.523 4.94591 16.6702 5.43542 16.7115 6.3342C16.7523 7.3086 16.7641 7.60357 16.7641 10.0684C16.7641 12.5333 16.7523 12.8283 16.7081 13.8027C16.6605 14.7014 16.5134 15.191 16.3894 15.5159C16.2179 15.9495 16.0265 16.2525 15.7106 16.5804C15.4164 16.8851 15.06 17.12 14.6668 17.2685C14.352 17.3955 13.8652 17.5456 12.9804 17.5877C12.0197 17.6293 11.7367 17.6414 9.31268 17.6414C6.88867 17.6414 6.60619 17.6293 5.6444 17.5842C4.763 17.5357 4.27673 17.3857 3.95802 17.2592C3.52779 17.0843 3.23285 16.8892 2.91697 16.5671C2.59826 16.2421 2.3956 15.9327 2.23936 15.5027C2.11256 15.1817 1.96764 14.6853 1.92065 13.783C1.88838 12.815 1.8731 12.5148 1.8731 10.0546C1.8731 7.59549 1.88838 7.29475 1.92065 6.31458C1.96764 5.41233 2.11256 4.91705 2.23936 4.59495C2.3956 4.15566 2.59883 3.85549 2.91697 3.5305C3.23229 3.20897 3.52779 3.00116 3.95802 2.83837C4.27673 2.71196 4.75111 2.56187 5.63591 2.51685C6.59657 2.48163 6.87962 2.46893 9.30022 2.46893L9.33759 2.49549ZM9.33759 5.32805C8.72697 5.32783 8.12229 5.4503 7.55811 5.68847C6.99393 5.92665 6.4813 6.27586 6.04953 6.71614C5.61776 7.15642 5.2753 7.67915 5.04173 8.25446C4.80816 8.82976 4.68805 9.44635 4.68827 10.069C4.68805 10.6917 4.80816 11.3083 5.04173 11.8836C5.2753 12.4589 5.61776 12.9816 6.04953 13.4219C6.4813 13.8622 6.99393 14.2114 7.55811 14.4495C8.12229 14.6877 8.72697 14.8102 9.33759 14.81C9.9482 14.8102 10.5529 14.6877 11.1171 14.4495C11.6812 14.2114 12.1939 13.8622 12.6256 13.4219C13.0574 12.9816 13.3999 12.4589 13.6334 11.8836C13.867 11.3083 13.9871 10.6917 13.9869 10.069C13.9871 9.44635 13.867 8.82976 13.6334 8.25446C13.3999 7.67915 13.0574 7.15642 12.6256 6.71614C12.1939 6.27586 11.6812 5.92665 11.1171 5.68847C10.5529 5.4503 9.9482 5.32783 9.33759 5.32805ZM9.33759 13.1475C7.66875 13.1475 6.31862 11.7707 6.31862 10.069C6.31862 8.36728 7.66875 6.99053 9.33759 6.99053C11.0064 6.99053 12.3566 8.36728 12.3566 10.069C12.3566 11.7707 11.0064 13.1475 9.33759 13.1475ZM15.2612 5.13872C15.2609 5.43292 15.146 5.71497 14.9419 5.9229C14.7378 6.13082 14.4611 6.24761 14.1726 6.24761C14.0299 6.24761 13.8887 6.21896 13.7569 6.16329C13.6251 6.10762 13.5053 6.02603 13.4044 5.92316C13.3035 5.8203 13.2235 5.69818 13.1689 5.56379C13.1143 5.42939 13.0862 5.28534 13.0862 5.13987C13.0862 4.9944 13.1143 4.85035 13.1689 4.71596C13.2235 4.58156 13.3035 4.45944 13.4044 4.35658C13.5053 4.25372 13.6251 4.17212 13.7569 4.11645C13.8887 4.06078 14.0299 4.03213 14.1726 4.03213C14.7709 4.03213 15.2612 4.52856 15.2612 5.13872Z" fill="black"/>
</svg>
