<svg width="20" height="16" viewBox="0 0 20 16" fill="none" xmlns="http://www.w3.org/2000/svg">
<path d="M19.5431 2.0924C18.8471 2.39854 18.0897 2.61888 17.3096 2.70469C18.1195 2.21401 18.7261 1.43881 19.0154 0.524542C18.2554 0.985596 17.4227 1.30889 16.5544 1.4801C16.1915 1.08448 15.7526 0.769322 15.265 0.554247C14.7775 0.339172 14.2517 0.228793 13.7204 0.22999C11.5711 0.22999 9.84246 2.00658 9.84246 4.18673C9.84246 4.49288 9.87885 4.79903 9.93799 5.09358C6.71961 4.92195 3.84922 3.3541 1.94093 0.953614C1.59322 1.55922 1.41101 2.24878 1.41325 2.95054C1.41325 4.32357 2.09787 5.53425 3.14186 6.24628C2.52662 6.22157 1.92579 6.04913 1.38823 5.74299V5.79169C1.38823 7.7144 2.72108 9.30777 4.49744 9.67422C4.16391 9.76256 3.8208 9.80775 3.4762 9.80874C3.22374 9.80874 2.98492 9.78322 2.74382 9.74844C3.23511 11.3163 4.66575 12.4551 6.36934 12.4922C5.03649 13.5567 3.36703 14.183 1.55427 14.183C1.22902 14.183 0.928791 14.1714 0.617188 14.1342C2.33669 15.2591 4.3769 15.9085 6.57404 15.9085C13.7068 15.9085 17.6098 9.88295 17.6098 4.65291C17.6098 4.48128 17.6098 4.30965 17.5984 4.13803C18.3535 3.57443 19.0154 2.87632 19.5431 2.0924Z" fill="black"/>
</svg>
